<svg id="pdf_2_" data-name="pdf (2)" xmlns="http://www.w3.org/2000/svg" width="35" height="35" viewBox="0 0 35 35">
  <rect id="Rectangle_903" data-name="Rectangle 903" width="35" height="35" rx="17.5" fill="#182024" opacity="0"/>
  <g id="Group_3430" data-name="Group 3430" transform="translate(-12.724 6.951)">
    <path id="Path_1457" data-name="Path 1457" d="M36.83-1.768,36.552.72v2.7h5.63l-.446-.973L37.053-2.2Z" transform="translate(-4.566 2.563)" fill="#182024"/>
    <path id="Path_1442" data-name="Path 1442" d="M-150.576-2.38l.261-.005c.285-.006.57-.01.854-.013l.148,0q.691-.008,1.381-.014.879-.006,1.757-.025.62-.013,1.241-.015c.246,0,.492,0,.738-.011,1.669-.048,1.669-.048,2.225.431a4.951,4.951,0,0,1,.58.656,5.462,5.462,0,0,0,.59.651l.1.1.1.1a6.39,6.39,0,0,1,.541.546c.177.2.371.384.565.569.221.211.435.422.637.65.156.169.324.326.491.485.221.211.436.423.638.652.179.195.376.374.569.556.626.6.626.6.642.9,0,.042,0,.084,0,.127s0,.1,0,.147,0,.107,0,.162,0,.114,0,.171q0,.236,0,.472,0,.254,0,.509,0,.557,0,1.113,0,.348,0,.7,0,.963,0,1.926v.125c0,.041,0,.082,0,.125q0,.125,0,.25c0,.041,0,.083,0,.126q0,1.005,0,2.011,0,1.033,0,2.065,0,.58,0,1.159,0,.494,0,.988,0,.252,0,.5,0,.231,0,.462c0,.081,0,.163,0,.244a2.026,2.026,0,0,1-.407,1.407l-.077.09a1.539,1.539,0,0,1-.979.5h-1.549l-1.2,0h-.565l-1.878,0h-.61l-1.962,0-2.015,0-1.131,0h-2.144a1.782,1.782,0,0,1-1.283-.485,2.176,2.176,0,0,1-.494-1.779q0-.136,0-.272,0-.357,0-.713t0-.729c0-.476,0-11.753,0-12.514q0-.552,0-1.1,0-.482,0-.963,0-.255,0-.51t0-.481q0-.088,0-.175a1.747,1.747,0,0,1,.5-1.372A2.308,2.308,0,0,1-150.576-2.38ZM-151.7-1.215l-.073.082a1,1,0,0,0-.16.6c0,.05,0,.1,0,.151s0,.108,0,.164,0,.116,0,.174q0,.236,0,.471t0,.493q0,.467,0,.933,0,.531,0,1.063c0,.728,0,11.88,0,12.373q0,.344,0,.687t0,.664q0,.126,0,.253c0,.118,0,.237,0,.355,0,.035,0,.069,0,.1a1.048,1.048,0,0,0,.226.716l.086.069.085.071a1.524,1.524,0,0,0,.881.156h1.081l1.043,0h.652l1.805,0h.586l1.885,0,1.936,0,1.087,0h1.4c.171,0,.341,0,.512,0l.15,0a1.388,1.388,0,0,0,.83-.238.834.834,0,0,0,.266-.646c0-.047,0-.094,0-.142,0-.078,0-.078,0-.157,0-.055,0-.11,0-.166q0-.229,0-.458,0-.247,0-.494,0-.428,0-.856,0-.619,0-1.237,0-1,0-2.007,0-.975,0-1.95c0-.04,0-.08,0-.121q0-.3,0-.6,0-2.5,0-5h-.087l-2.106-.01-1.019,0-.888,0-.47,0-.525,0h-.157l-.145,0h-.125a.7.7,0,0,1-.332-.142.6.6,0,0,1-.1-.4c0-.046,0-.092,0-.14s0-.1,0-.153V3.284q0-.219,0-.439t0-.458q0-.434-.005-.868,0-.494-.006-.988-.007-1.016-.012-2.033l-3.018-.007-1.4,0-1.222,0h-1.957A.947.947,0,0,0-151.7-1.215Zm9.188.092V3.42H-138a4.774,4.774,0,0,0-.5-.578l-.067-.064-.209-.2-.275-.263-.067-.064c-.144-.139-.278-.282-.41-.432-.154-.169-.322-.324-.487-.482-.221-.211-.435-.422-.637-.65-.156-.169-.324-.326-.491-.485-.222-.212-.439-.426-.642-.655-.125-.138-.259-.267-.393-.4l-.082-.081-.079-.076-.071-.068C-142.457-1.128-142.457-1.128-142.508-1.123Z" transform="translate(174.93 2.133)" fill="#182024"/>
    <path id="Path_1458" data-name="Path 1458" d="M118.625,631.219l1.778.581,4.964,5.106-.2.62-3.745-1.511Z" transform="translate(-87.203 -631.435)" fill="#182024"/>
  </g>
</svg>
