<svg id="Component_265_6" data-name="Component 265 – 6" xmlns="http://www.w3.org/2000/svg" width="40" height="40" viewBox="0 0 40 40">
  <rect id="Rectangle_65" data-name="Rectangle 65" width="40" height="40" rx="20" fill="#fff"/>
  <g id="Group_3012" data-name="Group 3012" transform="translate(8.273 8.274)">
    <path id="Path_1068" data-name="Path 1068" d="M-18.5-9.435a1.277,1.277,0,0,0-.339-1.814,1.277,1.277,0,0,0-1.813.339l-3.425,4.995a6.686,6.686,0,0,0-.391-.583l4.754-6.933a1.277,1.277,0,0,0-.339-1.813,1.277,1.277,0,0,0-1.813.338l-4.472,6.521c-.166-.136-.336-.272-.512-.406l5.183-7.56A1.277,1.277,0,0,0-22-18.164a1.277,1.277,0,0,0-1.813.338L-29-10.268c-.19-.117-.379-.219-.567-.325l4.844-7.065a1.277,1.277,0,0,0-.339-1.813,1.277,1.277,0,0,0-1.813.338L-32-11.663l-.41.6-.369.538a6.536,6.536,0,0,1,1.691,9.068.639.639,0,0,1-.907.17,6.162,6.162,0,0,0-1.691-9.068l.954-4.763a1.278,1.278,0,0,0-.9-1.611,1.277,1.277,0,0,0-1.61.9l-1.1,3.264a28.937,28.937,0,0,1-1.513,3.8A7.829,7.829,0,0,0-35.281,1.2,7.828,7.828,0,0,0-24.4-.828c.129-.189.237-.374.34-.558l.029.02Z" transform="translate(40.194 20.716)" fill="#ffc741"/>
    <path id="Path_1069" data-name="Path 1069" d="M-1.2-4.159H-2.5A4.544,4.544,0,0,1,2.038-8.7v1.3A3.238,3.238,0,0,0-1.2-4.159" transform="translate(2.5 8.697)" fill="#ffc741" opacity="0.4"/>
    <path id="Path_1070" data-name="Path 1070" d="M-1.2-5.977H-2.5A6.53,6.53,0,0,1,4.023-12.5v1.3A5.224,5.224,0,0,0-1.2-5.977" transform="translate(3.777 13.777)" fill="#ffc741" opacity="0.4"/>
    <path id="Path_1071" data-name="Path 1071" d="M0-4.184v-1.3A3.081,3.081,0,0,0,3.261-8.75h1.3A4.458,4.458,0,0,1,0-4.184" transform="translate(18.888 27.638)" fill="#ffc741" opacity="0.4"/>
    <path id="Path_1072" data-name="Path 1072" d="M0-6v-1.3a5.663,5.663,0,0,0,5.245-5.245h1.3A6.205,6.205,0,0,1,0-6" transform="translate(15.627 28.181)" fill="#ffc741" opacity="0.4"/>
  </g>
</svg>
