<svg id="Component_411_1" data-name="Component 411 – 1" xmlns="http://www.w3.org/2000/svg" xmlns:xlink="http://www.w3.org/1999/xlink" width="48" height="48" viewBox="0 0 48 48">
  <defs>
    <linearGradient id="linear-gradient" x1="0.788" y1="0.211" x2="0.269" y2="0.822" gradientUnits="objectBoundingBox">
      <stop offset="0" stop-color="#808486"/>
      <stop offset="1" stop-color="#182024"/>
    </linearGradient>
  </defs>
  <rect id="Rectangle_65" data-name="Rectangle 65" width="48" height="48" rx="24" transform="translate(48 48) rotate(180)" opacity="0.1" fill="url(#linear-gradient)"/>
  <g id="download" transform="translate(18.5 15.8)">
    <path id="Path_1433" data-name="Path 1433" d="M-177.669-3.221a.732.732,0,0,1,.31.487c.01.143.009.285.009.428q0,.066,0,.132,0,.18,0,.36t0,.389q0,.337,0,.674,0,.487,0,.974,0,.79,0,1.581,0,.768,0,1.535c0,.047,0,.047,0,.1q0,.237,0,.475,0,1.969.009,3.938l.056-.056,1.339-1.344.648-.65.565-.566.3-.3.282-.282.1-.1.141-.141.08-.08a.792.792,0,0,1,.62-.195.814.814,0,0,1,.5.336.875.875,0,0,1,.036.638,4.276,4.276,0,0,1-.734.817l-.137.138-.448.449-.155.155-.726.727-.837.839-.648.649-.386.388-.364.364-.133.134-.182.182-.052.053a.937.937,0,0,1-.508.281h-.183a1.029,1.029,0,0,1-.568-.343l-.061-.06-.2-.2-.143-.143-.387-.388-.406-.406-.681-.682-.788-.789-.839-.84-.242-.242-.379-.38-.139-.14-.19-.191-.056-.056a.781.781,0,0,1-.273-.586.741.741,0,0,1,.23-.546.8.8,0,0,1,.572-.159,1.945,1.945,0,0,1,.849.655l.1.1.271.271.284.284.537.537.611.612,1.256,1.258c0-.033,0-.033,0-.068q0-1.982.007-3.964V3.245q0-.767,0-1.534,0-.787,0-1.574,0-.486,0-.971,0-.333,0-.666,0-.192,0-.384,0-.176,0-.352c0-.062,0-.125,0-.187a.977.977,0,0,1,.247-.74A.753.753,0,0,1-177.669-3.221Z" transform="translate(183.5 3.327)" fill="#eaeef0"/>
    <path id="Path_1434" data-name="Path 1434" d="M-20.973-.26h9.389a.83.83,0,0,1,.608.2l.043.054.044.054a.8.8,0,0,1,.1.568.851.851,0,0,1-.362.464,1.337,1.337,0,0,1-.512.057h-3.927l-1.433,0h-3.862a.845.845,0,0,1-.582-.18.878.878,0,0,1-.191-.7.777.777,0,0,1,.35-.445A.713.713,0,0,1-20.973-.26Z" transform="translate(21.662 15.176)" fill="#eaeef0"/>
  </g>
</svg>
