<svg xmlns="http://www.w3.org/2000/svg" width="35" height="35" viewBox="0 0 35 35">
  <g id="Group_3425" data-name="Group 3425" transform="translate(-265.7 -631)">
    <g id="Component_414_3" data-name="Component 414 – 3" transform="translate(265.7 631)">
      <g id="Group_3424" data-name="Group 3424" transform="translate(-265.7 -631)">
        <rect id="Rectangle_896" data-name="Rectangle 896" width="35" height="35" rx="17.5" transform="translate(265.7 631)" fill="#182024" opacity="0.75"/>
      </g>
      <g id="download" transform="translate(12.927 11.037)">
        <path id="Path_1433" data-name="Path 1433" d="M-178.639-3.238a.61.61,0,0,1,.258.406c.008.119.008.238.007.357q0,.055,0,.11,0,.15,0,.3t0,.324q0,.281,0,.562,0,.406,0,.812,0,.659,0,1.318,0,.64,0,1.28c0,.039,0,.039,0,.08q0,.2,0,.4,0,1.642.007,3.283l.046-.047,1.116-1.12.54-.542.471-.472.249-.25.235-.235.086-.086.118-.118.066-.067a.66.66,0,0,1,.517-.162.679.679,0,0,1,.419.28.729.729,0,0,1,.03.531,3.566,3.566,0,0,1-.612.681l-.114.115-.373.374L-175.69,5l-.605.606-.7.7-.54.541-.322.323-.3.3-.111.111-.152.152-.044.045a.781.781,0,0,1-.423.235h-.152a.858.858,0,0,1-.474-.286l-.051-.05-.165-.166-.119-.119-.323-.324-.338-.339-.568-.569-.657-.658-.7-.7-.2-.2-.316-.317-.116-.116-.158-.159-.047-.046a.651.651,0,0,1-.228-.489.618.618,0,0,1,.192-.455.669.669,0,0,1,.477-.132,1.622,1.622,0,0,1,.708.546l.084.084.226.226.237.237.447.448.51.51,1.047,1.049c0-.028,0-.028,0-.056q0-1.652.006-3.3,0-.2,0-.4v-.08q0-.639,0-1.279,0-.656,0-1.312,0-.4,0-.81,0-.278,0-.555,0-.16,0-.32t0-.293c0-.052,0-.1,0-.156a.815.815,0,0,1,.206-.616A.628.628,0,0,1-178.639-3.238Z" transform="translate(183.5 3.327)" fill="#fff"/>
        <path id="Path_1433_-_Outline" data-name="Path 1433 - Outline" d="M-178.97-3.576a.913.913,0,0,1,.459.123l.024.016a.855.855,0,0,1,.353.56l0,.028c.008.125.008.247.008.366v.116q0,.151,0,.3t0,.311v.012q0,.281,0,.562,0,.406,0,.812,0,.659,0,1.318,0,.64,0,1.28v.476q0,1.34.006,2.68l.737-.739.54-.542.471-.472.249-.25.236-.236.085-.085.119-.12.08-.08a.907.907,0,0,1,.7-.222h.022l.021.005a.933.933,0,0,1,.563.378l.012.017.009.018a.974.974,0,0,1,.045.711l-.008.028-.015.026a2.76,2.76,0,0,1-.515.6c-.047.045-.093.089-.137.134l-.114.114-.373.375-.129.129-.605.607-.7.7-.541.542-.322.323-.3.3-.11.11-.153.153-.041.042a1.021,1.021,0,0,1-.56.306l-.022,0h-.192l-.022,0a1.094,1.094,0,0,1-.61-.357l-.048-.048-.167-.168-.118-.118-.324-.324-.309-.31-.029-.029-.568-.569-.656-.657-.7-.7-.2-.2-.317-.317-.116-.116-.159-.16-.046-.045a.9.9,0,0,1-.3-.661V3.475a.866.866,0,0,1,.263-.627l.017-.017.02-.014a.9.9,0,0,1,.55-.179l.086,0h.019l.018,0a1.453,1.453,0,0,1,.724.5c.036.039.072.077.107.112l1.5,1.5.621.622q0-1.379.005-2.758V2.152q0-.639,0-1.279,0-.656,0-1.313,0-.4,0-.809,0-.278,0-.556,0-.16,0-.319t0-.3c0-.051,0-.1,0-.154a1.054,1.054,0,0,1,.273-.788l.016-.015A.817.817,0,0,1-178.97-3.576Zm.192.547a.41.41,0,0,0-.192-.047.325.325,0,0,0-.207.066.571.571,0,0,0-.13.439c0,.05,0,.1,0,.155,0,.1,0,.2,0,.292s0,.214,0,.321q0,.277,0,.555,0,.405,0,.81,0,.656,0,1.312,0,.64,0,1.279v.476q0,1.652-.006,3.3v.66l-.427-.428L-180.8,5.117l-1.5-1.5c-.039-.04-.078-.081-.118-.123a1.139,1.139,0,0,0-.45-.351.411.411,0,0,0-.277.076.362.362,0,0,0-.1.263.407.407,0,0,0,.156.314l.045.045.159.159.117.117.316.317.2.2.7.7.657.658.567.569.029.029.31.31.322.323.12.119.165.166.05.05a.659.659,0,0,0,.32.213h.108a.55.55,0,0,0,.27-.163l.041-.041.153-.153.112-.112.3-.3.323-.324.54-.541.7-.7.605-.606.129-.129.373-.374.114-.115c.047-.047.1-.094.145-.141a2.555,2.555,0,0,0,.412-.462.473.473,0,0,0-.014-.306.421.421,0,0,0-.241-.159.409.409,0,0,0-.308.1l-.059.059-.117.117-.087.087-.234.235-.25.251-.47.472-.54.542-1.116,1.12-.472.474v-.6q0-1.642-.007-3.283V2.231q0-.64,0-1.28,0-.659,0-1.317,0-.406,0-.812,0-.281,0-.561v-.012q0-.156,0-.312t0-.3v-.12c0-.11,0-.214-.006-.317A.353.353,0,0,0-178.778-3.03Z" transform="translate(183.5 3.327)" fill="#fff"/>
        <path id="Path_1434" data-name="Path 1434" d="M-21.087-.261h7.827a.692.692,0,0,1,.507.166l.036.045.037.045A.663.663,0,0,1-12.6.461a.709.709,0,0,1-.3.387A1.114,1.114,0,0,1-13.324.9h-7.688A.7.7,0,0,1-21.5.752a.732.732,0,0,1-.159-.583A.648.648,0,0,1-21.364-.2.594.594,0,0,1-21.087-.261Z" transform="translate(21.662 12.696)" fill="#fff"/>
        <path id="Path_1434_-_Outline" data-name="Path 1434 - Outline" d="M-13.261-.518h0a.938.938,0,0,1,.668.227l.018.015.1.127a.912.912,0,0,1,.125.639l0,.024-.007.023a.959.959,0,0,1-.4.52l-.024.016-.027.01a1.119,1.119,0,0,1-.419.064h-3.5l-2.155,0h-2.138a.953.953,0,0,1-.64-.206l-.021-.017-.017-.021A.976.976,0,0,1-21.9.146l0-.023L-21.9.1a.889.889,0,0,1,.4-.512l.015-.01.016-.008a.842.842,0,0,1,.382-.083h3.46l2.312,0h2.055Zm.328.592a.452.452,0,0,0-.328-.092h-2.055l-2.312,0h-3.459a.346.346,0,0,0-.156.029.4.4,0,0,0-.166.2.473.473,0,0,0,.091.357.476.476,0,0,0,.306.078h2.135l2.155,0h3.5a.726.726,0,0,0,.214-.022.449.449,0,0,0,.171-.216.4.4,0,0,0-.042-.273Z" transform="translate(21.662 12.696)" fill="#fff"/>
      </g>
    </g>
  </g>
</svg>
