<svg xmlns="http://www.w3.org/2000/svg" xmlns:xlink="http://www.w3.org/1999/xlink" width="28.503" height="28" viewBox="0 0 28.503 28"><defs><style>.a{fill:#808486;opacity:0;}.b,.c{stroke:#fff;}.b{fill:url(#a);}.c{fill:url(#b);}</style><linearGradient id="a" x1="0.84" y1="0.199" x2="0.172" y2="0.908" gradientUnits="objectBoundingBox"><stop offset="0" stop-color="#43d4ff"/><stop offset="1" stop-color="#009dff"/></linearGradient><linearGradient id="b" x1="0.885" y1="0.125" x2="0.297" y2="0.833" gradientUnits="objectBoundingBox"><stop offset="0" stop-color="#5fd4f7"/><stop offset="1" stop-color="#009dff"/></linearGradient></defs><g transform="translate(0.25)"><rect class="a" width="28" height="28"/><g transform="translate(-485.898 -302.721)"><path class="b" d="M16.719,18.919l2.058,2.06-6.992,6.992a3.7,3.7,0,0,1-5.039.186A6.787,6.787,0,0,1,6.9,18.9,6.924,6.924,0,0,1,16.719,18.919Z" transform="translate(481.147 289.217)"/><path class="c" d="M36.194,18.549a6.92,6.92,0,0,1-.012,9.819l-9.413,9.416a3.2,3.2,0,0,1-4.524,0l-9.523-9.523c-.089-.089-.172-.175-.252-.268a3.7,3.7,0,0,0,5.039-.186l9.164-9.164a6.8,6.8,0,0,1,9.521-.093Z" transform="translate(475.419 289.386)"/></g></g></svg>