<svg id="Component_395_2" data-name="Component 395 – 2" xmlns="http://www.w3.org/2000/svg" width="28" height="28" viewBox="0 0 28 28">
  <g id="Group_3014" data-name="Group 3014">
    <rect id="Rectangle_65" data-name="Rectangle 65" width="28" height="28" rx="14" transform="translate(28 28) rotate(180)" fill="#171c1e"/>
    <g id="Group_3065" data-name="Group 3065" transform="translate(5.065 4.734)">
      <path id="Path_1068" data-name="Path 1068" d="M-23.216-11.841a.979.979,0,0,0-.259-1.39.979.979,0,0,0-1.389.259l-2.624,3.827a5.123,5.123,0,0,0-.3-.447l3.642-5.312a.979.979,0,0,0-.259-1.389.978.978,0,0,0-1.389.259l-3.426,5c-.127-.1-.257-.208-.392-.311l3.972-5.792A.979.979,0,0,0-25.9-18.53a.978.978,0,0,0-1.389.259l-3.972,5.792c-.146-.09-.29-.167-.435-.249l3.712-5.414a.979.979,0,0,0-.259-1.389.978.978,0,0,0-1.389.259l-3.925,5.724-.314.459-.282.412a5.008,5.008,0,0,1,1.3,6.948.489.489,0,0,1-.695.13,4.722,4.722,0,0,0-1.3-6.948l.731-3.649a.979.979,0,0,0-.689-1.234.979.979,0,0,0-1.234.689l-.842,2.5a22.173,22.173,0,0,1-1.159,2.914,6,6,0,0,0,1.97,7.636,6,6,0,0,0,8.338-1.554c.1-.145.182-.286.261-.428l.022.015Z" transform="translate(39.79 20.451)" fill="#ffc741"/>
    </g>
  </g>
  <g id="Rectangle_812" data-name="Rectangle 812" transform="translate(28 28) rotate(180)" fill="none" stroke="#ffc741" stroke-width="0.5">
    <rect width="28" height="28" rx="14" stroke="none"/>
    <rect x="0.25" y="0.25" width="27.5" height="27.5" rx="13.75" fill="none"/>
  </g>
</svg>
