<svg xmlns="http://www.w3.org/2000/svg" width="30" height="30" viewBox="0 0 30 30"><defs><style>.a,.d{fill:none;}.a{stroke:#808486;}.b{fill:#808486;}.c{stroke:none;}</style></defs><g transform="translate(-1090 -329)"><g class="a" transform="translate(1090 329)"><rect class="c" width="30" height="30" rx="15"/><rect class="d" x="0.5" y="0.5" width="29" height="29" rx="14.5"/></g><path class="b" d="M16.873,17.69a.818.818,0,0,0,.816-.816V14.025a.818.818,0,0,0-.816-.816,9.309,9.309,0,0,1-2.913-.465.685.685,0,0,0-.253-.041.836.836,0,0,0-.579.237l-1.8,1.8A12.363,12.363,0,0,1,5.954,9.357l1.8-1.8a.819.819,0,0,0,.2-.832,9.271,9.271,0,0,1-.465-2.913A.818.818,0,0,0,6.672,3H3.816A.818.818,0,0,0,3,3.816,13.872,13.872,0,0,0,16.873,17.69Zm-2.938-3.248a10.407,10.407,0,0,0,2.122.367v1.216a12.589,12.589,0,0,1-3.1-.612ZM4.657,4.632H5.881a10.609,10.609,0,0,0,.375,2.114l-.979.979A12.1,12.1,0,0,1,4.657,4.632Z" transform="translate(1095.102 334.102)"/></g></svg>