<svg xmlns="http://www.w3.org/2000/svg" xmlns:xlink="http://www.w3.org/1999/xlink" width="78" height="78" viewBox="0 0 78 78">
  <defs>
    <linearGradient id="linear-gradient" x1="0.183" y1="0.862" x2="0.924" y2="0.23" gradientUnits="objectBoundingBox">
      <stop offset="0" stop-color="#1e9651"/>
      <stop offset="1" stop-color="#67ff7e"/>
    </linearGradient>
  </defs>
  <g id="Group_2850" data-name="Group 2850" transform="translate(-296.495 -96.332)">
    <rect id="Rectangle_65" data-name="Rectangle 65" width="78" height="78" rx="39" transform="translate(296.495 96.332)" fill="url(#linear-gradient)"/>
    <path id="Path_563" data-name="Path 563" d="M33.2,34.973A1.781,1.781,0,0,0,34.973,33.2V27A1.781,1.781,0,0,0,33.2,25.221a20.262,20.262,0,0,1-6.341-1.012,1.491,1.491,0,0,0-.551-.089,1.819,1.819,0,0,0-1.261.515l-3.908,3.908A26.908,26.908,0,0,1,9.43,16.837l3.908-3.908a1.783,1.783,0,0,0,.444-1.812,20.179,20.179,0,0,1-1.012-6.341A1.781,1.781,0,0,0,10.993,3H4.776A1.781,1.781,0,0,0,3,4.776,30.194,30.194,0,0,0,33.2,34.973ZM26.8,27.9a22.652,22.652,0,0,0,4.618.8v2.647a27.4,27.4,0,0,1-6.75-1.332ZM6.606,6.553H9.27a23.091,23.091,0,0,0,.817,4.6L7.956,13.285A26.334,26.334,0,0,1,6.606,6.553Z" transform="translate(316.509 116.345)" fill="#fff"/>
  </g>
</svg>
