<svg xmlns="http://www.w3.org/2000/svg" xmlns:xlink="http://www.w3.org/1999/xlink" width="640" height="800" viewBox="0 0 640 800"><defs><style>.a,.aa,.ab,.b,.d,.h,.o,.p,.s,.w{fill:none;}.a,.aa,.ab,.d,.h,.o{stroke:#fff;}.a,.d,.h,.l,.o,.p,.s,.w{stroke-miterlimit:10;}.a,.l{stroke-width:2px;}.c{fill:url(#a);}.ab,.d,.h{stroke-width:3px;}.d{stroke-dasharray:5 3.5;}.ac,.ae,.e,.m,.x,.y,.z{fill:#fff;}.e{opacity:0.11;}.f{fill:#1cb8f9;}.g{fill:#00aff9;}.i{clip-path:url(#b);}.j{fill:#182024;}.k,.l{fill:#ffd5c7;}.l,.p{stroke:#ef927f;}.n{fill:#ffc5ae;}.q{fill:#f9af95;}.r{fill:#f7633a;}.t{clip-path:url(#c);}.u{fill:#d7dfe5;}.v{clip-path:url(#d);}.w{stroke:#707070;}.x{opacity:0.1;}.y{opacity:0.15;}.z{opacity:0.25;}.aa{stroke-width:4px;}.ac{opacity:0.11;}.ad,.ae{stroke:none;}</style><linearGradient id="a" x1="0.951" y1="0.058" x2="0.433" y2="0.44" gradientUnits="objectBoundingBox"><stop offset="0" stop-color="#01bdf4"/><stop offset="1" stop-color="#009dff"/></linearGradient><clipPath id="b"><rect class="a" width="99.561" height="149.63" rx="6.631" transform="translate(99.561 149.63) rotate(-180)"/></clipPath><clipPath id="c"><rect class="b" width="113.76" height="69.46" rx="8"/></clipPath><clipPath id="d"><rect class="b" width="51.369" height="74.296" transform="translate(51.369 74.296) rotate(-180)"/></clipPath></defs><rect class="c" width="640" height="800"/><g transform="translate(26.595 166.893)"><path class="d" d="M520.01,270.6V258.522a13.472,13.472,0,0,0-13.472-13.472H215.063a5.542,5.542,0,0,0-5.543,5.543v10.3a5.542,5.542,0,0,0,5.543,5.543h5.819" transform="translate(-45.946 -43.931)"/><path class="e" d="M319.1,518.32c-99.982,10.26-177.58-83.008-227.43-118.586s-71.69-224.309,74.235-201.542,191.376-51.128,273-51.322S555.348,220.3,522.064,331.207,419.084,508.06,319.1,518.32Z" transform="translate(-0.284 -17.533)"/><path class="f" d="M494.265,219.887v67.087c0,4.242-4.056,7.681-9.059,7.681H369.174c-5,0-9.059-3.439-9.059-7.681V219.887c0-4.242,4.056-7.681,9.059-7.681H485.206C490.209,212.206,494.265,215.645,494.265,219.887Z" transform="translate(-89.966 -34.331)"/><rect class="g" width="57.005" height="81.955" rx="7.504" transform="translate(179.778 178.369)"/><path class="d" d="M351.434,309.5h-5.788a9.431,9.431,0,0,0-9.431,9.431v14.005" transform="translate(-82.98 -62.772)"/><path class="d" d="M479.02,439.517H456.735a5.567,5.567,0,0,0-5.567,5.567v23.188a5.567,5.567,0,0,1-5.567,5.567H424.932" transform="translate(-68.099 -100.775)"/><g class="h" transform="translate(413.612 231.76)"><rect class="ad" width="114.269" height="164.282" rx="15.042"/><rect class="b" x="1.5" y="1.5" width="111.269" height="161.282" rx="13.542"/></g><g transform="translate(420.966 239.086)"><g class="i" transform="translate(0 0)"><path class="j" d="M631.295,435.587,676.847,450.8v55.7H556.418V450.8l39.9-12.59" transform="translate(-566.27 -338.712)"/><path class="k" d="M608.1,385.88a2.143,2.143,0,0,0-1.389-2.7,2.973,2.973,0,0,0-3,1.069,6.275,6.275,0,0,0-1.258,3.158,8.035,8.035,0,0,0,.856,5.41,4.357,4.357,0,0,0,4.635,2.114" transform="translate(-580.767 -323.365)"/><path class="k" d="M613.493,359s-13.422,36.446-9.409,40.6,24.355,7.442,26.846,4.866a74.376,74.376,0,0,0,9.41-12.881c2.649-5.249,6.366-17.747,3.044-23.472S618.451,353.875,613.493,359Z" transform="translate(-581.084 -315.865)"/><path class="j" d="M629.771,388.681a1.059,1.059,0,1,0,1.048-1.21A1.137,1.137,0,0,0,629.771,388.681Z" transform="translate(-589.431 -324.648)"/><ellipse class="j" cx="1.047" cy="1.21" rx="1.047" ry="1.21" transform="translate(29.064 58.819)"/><line class="l" y1="7.13" x2="1.702" transform="translate(24.919 60.406)"/><path class="k" d="M615.349,414.792l1.107,20.016s7.105,7.477,11.257,7.477c8.026,0,18.91-14.126,18.91-14.126l-5.535-21.7" transform="translate(-584.877 -330.198)"/><path class="j" d="M617.084,383.832a40.889,40.889,0,0,0-8.361-2.379,7.743,7.743,0,0,1-2.18-.5,4.2,4.2,0,0,1-2.4-3.505c-3.183,1.892-5.33,6.422-6.726,9.806-1.572,3.812-2.435,8.7.33,12.179,3.659,4.6,11.513,4.432,16.653,5.585,4.507,1.011,9.359,1.806,13.61-.042,4.6-2,5.269-5.747,8.433-9.088-.2,1.226,1.318,2.135,2.477,1.8a5.513,5.513,0,0,0,2.66-2.41,62.834,62.834,0,0,0,3.769-5.8,40.827,40.827,0,0,0,4.6-17.542,6.7,6.7,0,0,0-.525-3.622,24.772,24.772,0,0,1-1.71-2.432,9.226,9.226,0,0,1-.238-3.211,11.324,11.324,0,0,0-2.021-5.531c-6.161-9.787-16.617-13.478-27.369-12.513-6.663.6-13.448,3.9-16.7,9.949a6.49,6.49,0,0,0-.956,3.747c.381,3.244,4.161,4.57,7.263,5.19a90.618,90.618,0,0,0,16.41,2.246c4.872.067,9.708-.4,13.608,3.229a1.482,1.482,0,0,1,.361.444,1.528,1.528,0,0,1,.1.607c.06,3.178-1.2,6.2-2.376,9.136a15.282,15.282,0,0,1-1.987,3.874c-1.739,2.2-4.559,2.652-7.174,2.783C623.356,386,620.151,384.9,617.084,383.832Z" transform="translate(-578.752 -312.082)"/><path class="m" d="M621.837,406.571l-12.632-2.4a.411.411,0,0,0-.473.3c-.424,1.553-1.637,7.473,4.124,8.449,6.4,1.084,8.749-3.916,9.367-5.662A.522.522,0,0,0,621.837,406.571Z" transform="translate(-582.661 -329.527)"/><path class="k" d="M649.672,405.719c2.113-3.957,5.73-9.925,8.816-7.177a3.673,3.673,0,0,1,1.005,1.913,8.172,8.172,0,0,1-4.778,9.282c-2.27.846-5.145.529-5.274-2.509A4.885,4.885,0,0,1,649.672,405.719Z" transform="translate(-595.641 -327.679)"/><path class="l" d="M658.407,403.976s.535-2.514-.681-2.514a2.831,2.831,0,0,0-2.48,2.011c-.138.377,1.119,1.71.1,2.263s-1.555.4-2.236,1.106-.972,2.514.486,2.514" transform="translate(-596.622 -328.737)"/><path class="m" d="M650.289,425.828s-10.713,20-16.871,22.119c3.763,5.623,8.553,14.154,10.948,14.154,4.106,0,14.131-28.513,14.131-28.513Z" transform="translate(-590.582 -335.86)"/><path class="m" d="M625.994,449.918c-8.553-4.742-11.959-17.348-11.959-17.348l-4.129,6.1s2.745,22.925,6.167,22.925C618.125,461.595,625.994,449.918,625.994,449.918Z" transform="translate(-583.159 -337.83)"/></g><rect class="h" width="99.561" height="149.63" rx="6.631" transform="translate(99.561 149.63) rotate(-180)"/></g><g transform="translate(418.583 405.153)"><path class="h" d="M601.689,560.29H577.133a7.276,7.276,0,0,1-7.275-7.275V544.61a7.276,7.276,0,0,1,7.275-7.276h27.694l4.138-3.975v19.656A7.276,7.276,0,0,1,601.689,560.29Z" transform="translate(-569.858 -533.359)"/><g transform="translate(8.667 14.391)"><path class="a" d="M610.258,556.764a1.446,1.446,0,0,1-1.486-1.536,1.421,1.421,0,0,1,1.438-1.534,1.453,1.453,0,0,1,1.462,1.534A1.431,1.431,0,0,1,610.258,556.764Z" transform="translate(-589.9 -553.694)"/><path class="a" d="M596.924,556.764a1.446,1.446,0,0,1-1.486-1.536,1.421,1.421,0,0,1,1.437-1.534,1.453,1.453,0,0,1,1.463,1.534A1.431,1.431,0,0,1,596.924,556.764Z" transform="translate(-586.002 -553.694)"/><path class="a" d="M583.591,556.764a1.446,1.446,0,0,1-1.486-1.536,1.421,1.421,0,0,1,1.437-1.534,1.453,1.453,0,0,1,1.463,1.534A1.431,1.431,0,0,1,583.591,556.764Z" transform="translate(-582.105 -553.694)"/></g></g><g transform="translate(138.781 272.073)"><g transform="translate(59.748 148.405)"><path class="h" d="M285.64,555.013,280.1,581.846h63.793l-5.544-26.833" transform="translate(-265.105 -555.013)"/><path class="h" d="M0,0H93.776a0,0,0,0,1,0,0V0a6.421,6.421,0,0,1-6.421,6.421H6.421A6.421,6.421,0,0,1,0,0V0A0,0,0,0,1,0,0Z" transform="translate(93.776 33.254) rotate(-180)"/></g><rect class="h" width="213.272" height="148.405" rx="11.47" transform="translate(0 0)"/></g><g transform="translate(145.271 278.504)"><rect class="h" width="200.291" height="136.252" rx="7" transform="translate(200.291 136.252) rotate(-180)"/></g><g transform="translate(161.986 284.354)"><g transform="translate(21.264 10.84)"><path class="j" d="M271.911,384.045a15.874,15.874,0,0,0-6.7,8.16c-1.219,3.388-1.338,7.778-3.489,10.664-1.683,2.258-4.156,3.587-6.567,5.039s-4.995,2.847-5.543,5.609c-.846,4.26,3.089,8.368,2.322,12.644-.815,4.544-6.127,6.429-9.623,9.443a14.373,14.373,0,0,0,1.163,22.672c2.963,2.067,6.574,2.94,10.1,3.744,11.959,2.73,24.035,5.155,36.278,5.93s24.706-.137,36.366-3.948A14.455,14.455,0,0,0,331,461.68a15.963,15.963,0,0,0,3.18-4.044c2.3-3.684,4.642-7.47,5.5-11.728s-.077-9.142-3.418-11.907c-2.07-1.713-5.291-2.887-6.836-5.282-2.416-3.743.976-7.216,1.788-10.9.885-4.018-2.5-6.7-5.142-9.009-2.939-2.579-3.965-5.134-4.917-8.873a29.165,29.165,0,0,0-34.257-21.344" transform="translate(-237.323 -377.983)"/></g><g transform="translate(102.378 59.624)"><path class="n" d="M376.554,492.075,392.9,509.621l16.264-35.044,6.691,1.6S418.6,529.8,397.68,534.466c-17.615,3.926-45.74-23.726-45.74-23.726" transform="translate(-351.94 -455.001)"/><path class="n" d="M433.119,469.476s-2.184-3.209-2.423-5.64-.407-9.469.351-9.836c.929-.449,2.023,2.951,2.093,3.09.174.347,2.1-10.3,3.081-10.174s.334,7.335.334,7.335,2.2-7.535,3.229-7.215-.521,7.938-.521,7.938,2.079-7.046,3.02-6.456-1.025,7.911-1.025,7.911,2.42-6.293,3.313-5.617c1.069.81-2.231,16.195-5.758,17.629l-.952,3.524" transform="translate(-374.902 -446.915)"/><path class="o" d="M434.906,462.541s4.165,3.743,2.672,7.309" transform="translate(-376.191 -451.483)"/></g><path class="n" d="M226.549,505.469l-19.273,29h32.512L251.8,522.635" transform="translate(-207.276 -404.407)"/><path class="j" d="M308,476.855s12.1,2.35,22.266,9.206a64.865,64.865,0,0,1,16.745,15.969l-20.2,24.077H241.83l-22.316-15s13.315-20.791,24.456-26.525a102.909,102.909,0,0,1,19.077-7.129l29.475,6.837Z" transform="translate(-210.853 -396.043)"/><path class="n" d="M327.4,388.137c4.818,11.84,9.5,38.983-7.495,42.92-24.068,5.574-30.745-21.252-32-31.42C285.907,383.5,322.582,376.3,327.4,388.137Z" transform="translate(-230.821 -368.394)"/><path class="n" d="M313.251,442.679l1.2,19.408,11.524,3.865s.2,13.988-4.422,16.621c-5.713,3.251-30.078,3.885-34.232-.269s-6.3-15.772-6.3-15.772l14.4-5.519,3.961-21.459" transform="translate(-228.834 -385.14)"/><path class="j" d="M304.072,389.443c5.365,6.406,19.355,9.343,25.594,7.472,6.662-2,7.866-9.316,4.609-14.058a21.62,21.62,0,0,0-8.818-6.982,35.537,35.537,0,0,0-26.117-1.514c-6.553,2.2-12.642,6.647-15.351,13a25.1,25.1,0,0,0-1.774,7.63,37.382,37.382,0,0,0,1.6,14.569c.561,1.766,1.4,3.65,3.078,4.43,1.559.725,3.4.282,4.991-.382,6.485-2.714,9.664-13.365,12.189-24.169" transform="translate(-229.139 -365.559)"/><path class="j" d="M293.5,375.195a9.1,9.1,0,0,0-1.35-8.791c-8.772-10.983-27.013,4.781-15.009,14.518,3.259,2.643,7.8,3.278,11.935,2.6" transform="translate(-226.538 -362.665)"/><path class="p" d="M322.18,451.339s-6.807.546-11.9-2.962" transform="translate(-237.385 -387.719)"/><line class="o" y1="6.591" x2="1.843" transform="translate(141.491 114.243)"/><path class="o" d="M367.678,536.281s-.931-13.866-8.465-25.774" transform="translate(-251.688 -405.88)"/><line class="o" x1="8.85" y2="16.158" transform="translate(38.045 114.243)"/><path class="j" d="M342.332,415.331a1.044,1.044,0,1,1-1.045-1.045A1.045,1.045,0,0,1,342.332,415.331Z" transform="translate(-246.144 -377.754)"/><path class="j" d="M315.182,420.146a1.044,1.044,0,1,0,1.045-1.045A1.044,1.044,0,0,0,315.182,420.146Z" transform="translate(-238.818 -379.161)"/><path class="q" d="M317.246,425.231c-2.238-1.666-6.551.957-6.117,4.1.393,2.838,4.1,3.349,6.059,2.444a3.478,3.478,0,0,0,1.777-3.2A4.374,4.374,0,0,0,317.246,425.231Z" transform="translate(-237.624 -380.802)"/><path class="q" d="M343.692,422.606a3.387,3.387,0,0,0-5.144,3.45c.33,2.386,3.445,2.816,5.1,2.054a2.924,2.924,0,0,0,1.494-2.694A3.4,3.4,0,0,0,343.692,422.606Z" transform="translate(-245.638 -380.024)"/><path class="m" d="M332.946,437.4l-8.388-.137a.436.436,0,0,0-.443.417c-.064,1.284.055,5.069,3.606,5.471,4.461.505,5.485-3.631,5.712-5.175A.5.5,0,0,0,332.946,437.4Z" transform="translate(-241.426 -384.471)"/><g transform="translate(57.06 44.812)"><path class="n" d="M299.5,435.587a3.426,3.426,0,0,1-3.381,3.126c-4.871,0-9.264-5.625-7.987-9.563,1.928-5.948,7.86-1.991,8.693-.328" transform="translate(-287.905 -425.986)"/><g transform="translate(7.924 10.52)"><path class="r" d="M299.124,441.424l.044-.135a.608.608,0,0,1,.734-.417.53.53,0,0,1,.416.417.609.609,0,0,1-.416.734l-.135.044a.526.526,0,0,1-.643-.643Z" transform="translate(-299.102 -440.851)"/></g><path class="p" d="M296.033,436.7c1.1.267,2.991.2,2.835-1.336-.141-1.386-1.608-1.052-2.327-1.921a3.274,3.274,0,0,1-.486-1.335,3.158,3.158,0,0,0-1.217-1.9,1.8,1.8,0,0,0-2.145.061,2.792,2.792,0,0,0-.651,2.018c-.011.3.073.71.375.719" transform="translate(-289.114 -427.125)"/></g></g><g class="s" transform="translate(-89.966 -34.331)"><path class="ad" d="M494.265,219.887v67.087c0,4.242-4.056,7.681-9.059,7.681H369.174c-5,0-9.059-3.439-9.059-7.681V219.887c0-4.242,4.056-7.681,9.059-7.681H485.206C490.209,212.206,494.265,215.645,494.265,219.887Z"/><path class="ae" d="M 369.1741333007812 215.2059936523438 C 367.4640197753906 215.2059936523438 365.8780212402344 215.7521362304688 364.7083129882812 216.7438354492188 C 363.6808166503906 217.6150207519531 363.1149291992188 218.7311401367188 363.1149291992188 219.8866271972656 L 363.1149291992188 286.9731750488281 C 363.1149291992188 288.1287841796875 363.6808471679688 289.2450561523438 364.7084655761719 290.1164245605469 C 365.8782043457031 291.1082763671875 367.4641418457031 291.6545104980469 369.1741333007812 291.6545104980469 L 485.20556640625 291.6545104980469 C 486.9156799316406 291.6545104980469 488.5016784667969 291.1083374023438 489.67138671875 290.1166381835938 C 490.6988830566406 289.2454833984375 491.2647705078125 288.1293334960938 491.2647705078125 286.9738464355469 L 491.2647705078125 219.8866271972656 C 491.2647705078125 218.7311401367188 490.6988830566406 217.6150207519531 489.67138671875 216.7438354492188 C 488.5016784667969 215.7521362304688 486.9156799316406 215.2059936523438 485.20556640625 215.2059936523438 L 369.1741333007812 215.2059936523438 M 369.1741333007812 212.2059936523438 L 485.20556640625 212.2059936523438 C 490.2089538574219 212.2059936523438 494.2647705078125 215.6446838378906 494.2647705078125 219.8866271972656 L 494.2647705078125 286.9738464355469 C 494.2647705078125 291.2158203125 490.2089538574219 294.6545104980469 485.20556640625 294.6545104980469 L 369.1741333007812 294.6545104980469 C 364.1707458496094 294.6545104980469 360.1149291992188 291.2150573730469 360.1149291992188 286.9731750488281 L 360.1149291992188 219.8866271972656 C 360.1149291992188 215.6446838378906 364.1707458496094 212.2059936523438 369.1741333007812 212.2059936523438 Z"/></g><g transform="translate(282.902 184.369)"><g class="t" transform="translate(0 0)"><g transform="translate(38.439 2.579)"><path class="u" d="M458.035,290.772a70.786,70.786,0,0,1,26.3-1.357c13.584,2.118,23.061,13.677,23.061,13.677v11.056H429.654C435.689,296.143,458.035,290.772,458.035,290.772Z" transform="translate(-428.167 -244.306)"/><path class="j" d="M443.858,250.414q-.585,5.052-1.17,10.1c-.361,3.119-.623,6.612,1.339,9.065,3.642,4.551,11.313,2.461,14.824-2.122" transform="translate(-432.363 -231.726)"/><path class="n" d="M464.977,274.977l1.274,15.174s1.225,3.9,7.56,2.528c4.833-1.044,6.318-6.728,6.318-6.728l-3.621-13.49Z" transform="translate(-439.764 -238.965)"/><path class="n" d="M447.434,238.175c-3.211,8.563.226,20.624,6.634,25.272,3.79,2.749,8.006,2.27,11.921,0,4.359-2.528,7.98-9.161,7.98-18.006C473.969,233.753,454.068,220.485,447.434,238.175Z" transform="translate(-433.604 -224.887)"/><path class="j" d="M452.458,223.958a20.091,20.091,0,0,1,4.527-1.225c5.271-.719,10.525,1.4,14.582,4.676s6.4,7.051,8.436,11.787a47.15,47.15,0,0,1,2.49,6.378c1,3.755,1.306,7.831-1.128,11.137a9.044,9.044,0,0,1-4.021,3.348,27.754,27.754,0,0,1-6.412,2,3.094,3.094,0,0,1-1.543,0,2.264,2.264,0,0,1-1.344-2.073,7.819,7.819,0,0,1,.487-2.565c1.616-5.509,2.352-11.739.571-17.3a9.492,9.492,0,0,0-3.059-3.993.856.856,0,0,0-.437-.239c-.356-.038-.6.336-.8.629a4.3,4.3,0,0,1-4.2,1.468,10.4,10.4,0,0,1-3.41-1.341.894.894,0,0,0-1.212.351,3.255,3.255,0,0,1-2.289,1.567,3.219,3.219,0,0,1-2.221-.525.9.9,0,0,0-1.309.391,1.312,1.312,0,0,1-1.176.768c-.371-.026-.7-.263-1.069-.307-.752-.091-1.35.61-1.714,1.274a15.854,15.854,0,0,0-1.846,7.149c-.031-.339-.779-1.067-.97-1.4a10.561,10.561,0,0,1-.855-1.885,12.154,12.154,0,0,1-.621-3.873C441.89,233.664,446.279,226.353,452.458,223.958Z" transform="translate(-432.192 -222.593)"/><g transform="translate(35.031 22.599)"><path class="n" d="M480.073,264.995a2.409,2.409,0,0,0,3.116.883c3.054-1.552,4.017-6.48,1.961-8.542-3.105-3.115-5.564,1.257-5.556,2.565" transform="translate(-479.594 -256.238)"/></g><path class="j" d="M489.972,318.239c-.506-9.519,1.409-21.489,4.856-29.49,12.028-.258,26.326,4.563,33.6,14.612v14.562Z" transform="translate(-447.943 -244.309)"/><path class="j" d="M447.234,319.4s-1.723-17.111,2.978-23.878c-12.7,3.316-22.23,16.86-22.76,22.154S447.234,319.4,447.234,319.4Z" transform="translate(-427.441 -246.536)"/><path class="j" d="M451.337,259.647a.819.819,0,1,0,.577-1A.82.82,0,0,0,451.337,259.647Z" transform="translate(-435.277 -234.418)"/><path class="j" d="M470.4,255.581a.819.819,0,1,1-1-.578A.819.819,0,0,1,470.4,255.581Z" transform="translate(-441.015 -233.224)"/><path class="q" d="M469.378,258.574c1.354-1.72,5.159-.617,5.474,1.855.284,2.231-2.417,3.376-4.089,3.092a2.729,2.729,0,0,1-2-2.063A3.432,3.432,0,0,1,469.378,258.574Z" transform="translate(-440.975 -234.132)"/><path class="q" d="M449.887,262.959a2.658,2.658,0,0,1,4.6,1.56c.238,1.875-2.033,2.839-3.439,2.6a2.3,2.3,0,0,1-1.684-1.735A2.666,2.666,0,0,1,449.887,262.959Z" transform="translate(-434.61 -235.555)"/><path class="m" d="M460.57,272.175l6.326-1.822a.343.343,0,0,1,.421.225c.311.96,1,3.851-1.612,4.883-3.275,1.3-4.9-1.627-5.387-2.751A.393.393,0,0,1,460.57,272.175Z" transform="translate(-438.224 -238.268)"/></g></g></g><g transform="translate(182.596 183.903)"><g class="v" transform="translate(0 0)"><g transform="translate(-21.321 9.224)"><path class="j" d="M290.8,323.883s-8.766-14.792-17.782-19.823c-9.3-5.19-49.205-11.194-58.533,3.732s-8.162,21.687-8.162,21.687Z" transform="translate(-206.272 -250.936)"/><path class="k" d="M271.037,286.485l-.536,11.449s-2.059,2.626-7.976,1.737c-7.524-1.13-8.891-4.817-8.891-4.817l5.163-15.545" transform="translate(-220.116 -245.367)"/><path class="k" d="M254.374,251.221a17.236,17.236,0,0,1,1.468-3.608,14.641,14.641,0,0,1,10.3-7.531,8.727,8.727,0,0,1,6.352,1.231c2.615,1.858,3.981,5.432,5.216,8.264,2.261,5.183,4.843,11.281,4.538,17.043a9.511,9.511,0,0,1-1.955,5.567,10.355,10.355,0,0,1-4.926,3.041,15.373,15.373,0,0,1-17.144-5.074,20.745,20.745,0,0,1-4.271-9.7A21.137,21.137,0,0,1,254.374,251.221Z" transform="translate(-220.116 -233.864)"/><path class="j" d="M243.971,262.616c1.771,2.965,8.013,8.051,10.974,5.487.641-.556-.7-3.673-.9-4.289-.655-2.047-1.786-4-.329-5.941,3.163-4.2,6.308-8.867,6.4-14.125a50.1,50.1,0,0,0,6.508.88,9.285,9.285,0,0,0,6.167-1.831,5.21,5.21,0,0,0,1.666-5.888A6.185,6.185,0,0,0,272.6,234.7a2.326,2.326,0,0,0-.786-.457c-1.054-.3-1.989.764-3.063.982a2.86,2.86,0,0,0-1.72-3.741,5.52,5.52,0,0,0-2.154-.057,57.116,57.116,0,0,0-7.272,1.088,23.555,23.555,0,0,0-12.225,7.032C239.624,246.055,239.641,255.369,243.971,262.616Z" transform="translate(-216.387 -231.348)"/><path class="j" d="M271.695,265.347a.66.66,0,1,1-.933.03A.661.661,0,0,1,271.695,265.347Z" transform="translate(-225.071 -241.234)"/><path class="j" d="M286.074,260.162a.66.66,0,1,1-.933.031A.66.66,0,0,1,286.074,260.162Z" transform="translate(-229.274 -239.719)"/><path class="q" d="M268.013,273.038c.2-1.754,3.274-2.611,4.538-1.05,1.141,1.408-.225,3.339-1.491,3.854a2.2,2.2,0,0,1-2.248-.565A2.767,2.767,0,0,1,268.013,273.038Z" transform="translate(-224.315 -242.989)"/><path class="q" d="M287.089,264.779a2,2,0,0,1,3.484-.957,2.254,2.254,0,0,1-.811,3.417,1.928,1.928,0,0,1-1.972-.5A2.426,2.426,0,0,1,287.089,264.779Z" transform="translate(-229.891 -240.634)"/><path class="m" d="M282.718,277.48a12.508,12.508,0,0,1-6.586.7.673.673,0,0,0-.689.229c-.8,1.61.543,4.379,4.107,4.066,3.155-.277,5.263-2.268,3.886-4.911C283.348,277.4,282.981,277.356,282.718,277.48Z" transform="translate(-226.426 -244.812)"/><g transform="translate(34.163 28.796)"><path class="k" d="M258.24,272.259a2.666,2.666,0,0,0-3.526,1.493,3.519,3.519,0,0,0-.13,1.618c.3,2.3,2.277,4.72,4.521,4.984s3.811-1.078,3.6-2.9" transform="translate(-254.545 -272.038)"/></g></g></g></g><path class="w" d="M207.811,337.148" transform="translate(-45.447 -70.852)"/><path class="w" d="M207.811,337.148" transform="translate(-45.447 -70.852)"/><g transform="translate(284.466 292.681)"><path class="h" d="M387.622,374.431h24.556a7.275,7.275,0,0,1,7.275,7.275v8.405a7.275,7.275,0,0,1-7.275,7.276H384.484l-4.138,3.975V381.706A7.276,7.276,0,0,1,387.622,374.431Z" transform="translate(-380.346 -374.431)"/><g transform="translate(8.667 9.471)"><path class="a" d="M394.007,387.814a1.445,1.445,0,0,1,1.486,1.536,1.42,1.42,0,0,1-1.437,1.534,1.454,1.454,0,0,1-1.463-1.534A1.431,1.431,0,0,1,394.007,387.814Z" transform="translate(-392.593 -387.814)"/><path class="a" d="M407.341,387.814a1.445,1.445,0,0,1,1.487,1.536,1.421,1.421,0,0,1-1.438,1.534,1.453,1.453,0,0,1-1.462-1.534A1.43,1.43,0,0,1,407.341,387.814Z" transform="translate(-396.491 -387.814)"/><path class="a" d="M420.674,387.814a1.445,1.445,0,0,1,1.487,1.536,1.421,1.421,0,0,1-1.438,1.534,1.453,1.453,0,0,1-1.463-1.534A1.431,1.431,0,0,1,420.674,387.814Z" transform="translate(-400.388 -387.814)"/></g></g><g transform="translate(236.533 146.728)"><path class="h" d="M319.89,168.194h24.556a7.275,7.275,0,0,1,7.275,7.276v8.405a7.275,7.275,0,0,1-7.275,7.275H316.752l-4.138,3.975V175.47A7.276,7.276,0,0,1,319.89,168.194Z" transform="translate(-312.614 -168.194)"/><g transform="translate(8.667 9.471)"><path class="a" d="M326.275,181.577a1.445,1.445,0,0,1,1.486,1.536,1.42,1.42,0,0,1-1.437,1.534,1.453,1.453,0,0,1-1.463-1.534A1.431,1.431,0,0,1,326.275,181.577Z" transform="translate(-324.861 -181.577)"/><path class="a" d="M339.609,181.577a1.445,1.445,0,0,1,1.487,1.536,1.421,1.421,0,0,1-1.438,1.534,1.453,1.453,0,0,1-1.462-1.534A1.43,1.43,0,0,1,339.609,181.577Z" transform="translate(-328.759 -181.577)"/><path class="a" d="M352.942,181.577a1.445,1.445,0,0,1,1.487,1.536,1.421,1.421,0,0,1-1.438,1.534,1.453,1.453,0,0,1-1.463-1.534A1.431,1.431,0,0,1,352.942,181.577Z" transform="translate(-332.656 -181.577)"/></g></g><g transform="translate(284.846 212.311)"><path class="h" d="M412.713,248.819H388.157a7.276,7.276,0,0,0-7.275,7.276V264.5a7.275,7.275,0,0,0,7.275,7.275h27.693l4.138,3.976V256.095A7.276,7.276,0,0,0,412.713,248.819Z" transform="translate(-380.882 -248.819)"/><g transform="translate(8.667 9.471)"><path class="a" d="M422.7,263.738a1.454,1.454,0,0,1-1.462,1.534,1.422,1.422,0,0,1-1.438-1.534,1.445,1.445,0,0,1,1.486-1.536A1.431,1.431,0,0,1,422.7,263.738Z" transform="translate(-400.924 -262.202)"/><path class="a" d="M409.362,263.738a1.454,1.454,0,0,1-1.463,1.534,1.421,1.421,0,0,1-1.437-1.534,1.445,1.445,0,0,1,1.486-1.536A1.431,1.431,0,0,1,409.362,263.738Z" transform="translate(-397.026 -262.202)"/><path class="a" d="M396.029,263.738a1.454,1.454,0,0,1-1.463,1.534,1.421,1.421,0,0,1-1.437-1.534,1.445,1.445,0,0,1,1.486-1.536A1.431,1.431,0,0,1,396.029,263.738Z" transform="translate(-393.129 -262.202)"/></g></g><path class="w" d="M729.316,491.6" transform="translate(-197.886 -115.998)"/><g transform="translate(62.393 286.086)"><path class="x" d="M92.536,444.718c.972-1.223.711-3.049-.044-4.417s-1.915-2.466-2.771-3.773a19.308,19.308,0,0,1-2.325-6.61,21.553,21.553,0,0,0-2.2-6.661,7.034,7.034,0,0,0-5.652-3.68c-3.21-.021-5.8,3.112-6.081,6.309s1.208,6.3,3.1,8.894c3.529,4.82,6.938,9.518,15.97,9.938" transform="translate(-58.329 -374.213)"/><path class="a" d="M107.336,480.4c-.482-7.779-1.231-12.356-3.11-17.738-2.824-8.083-7.717-14.325-12.981-20.917-3.945-4.939-7.954-10.232-9.031-16.626" transform="translate(-60.898 -375.834)"/><path class="y" d="M112.515,433.724c6-1.843,6.676-9.632,7.158-14.468.77-7.724,1.71-15.562,1.112-23.328-.809-10.505-5.863-21.331-16.843-24.931a21.884,21.884,0,0,0-10.012-1.309c-3.362.516-6.622,2.575-7.533,5.6a3.091,3.091,0,0,0,.022,2.178,5.053,5.053,0,0,0,1.987,1.845,30.808,30.808,0,0,1,13.765,21.61c.734,6.063-.5,12.212.147,18.283s3.911,12.588,10.2,14.524" transform="translate(-62.066 -359.582)"/><path class="z" d="M96.392,418.4c-3.58-.285-6.428-3.272-7.9-6.547-3.405-7.569-2.761-16.271-7.574-23.3-2.5-3.652-5.9-6.6-8.6-10.107-3.811-4.964-5.681-12.013-2.759-17.816,4.41-8.754,13.748-4.784,19.416.318,7.848,7.065,14.322,17.363,16.12,27.408,1.18,6.6,3,23.127-8.7,30.042" transform="translate(-56.78 -355.476)"/><path class="y" d="M117.675,459.345c10.543-1.609,8.829-11.155,10.843-14.855,3.538-6.5,2.68-14.525,5.809-21.217,2.2-4.7,5.618-7.921,10.646-8.409-2.44-1.264-20.793.085-24.294,3.021-3.928,3.294-5.667,6.794-6.94,11.67-1.452,5.56-6.693,26.2,3.935,29.79" transform="translate(-69.36 -372.697)"/><path class="a" d="M143.007,414.882c-14.251,1.379-20.17,14.4-21.863,28.9-1.224,10.49-.75,22.314-.311,33.623" transform="translate(-72.049 -372.84)"/><path class="a" d="M78.73,366.675c4.947,0,11.131,8.14,13.329,13.876,4.478,11.692,6.136,24.282,7.192,36.678,1.333,15.646,2.052,30.386,2.156,46.088" transform="translate(-59.879 -358.749)"/><path class="x" d="M70.434,466.423a36.212,36.212,0,0,0-12.608,1.833,15.484,15.484,0,0,0-5.092,6.509c-1.28,3.313-.65,7.475,1.956,9.832a10.236,10.236,0,0,0,7.548,2.205A8.156,8.156,0,0,0,66,485.79c2.869-1.746,3.535-5.613,5.153-8.6A12.96,12.96,0,0,1,82.4,470.459" transform="translate(-52.093 -387.896)"/><path class="a" d="M62.916,479.479c.142-5.195.894-9.255,5.357-12.543a14.556,14.556,0,0,1,6.468-2.624" transform="translate(-55.257 -387.269)"/><path class="x" d="M60.194,466.908c6.349-1.178,13.094,1.413,17.606,6.144,2.122,2.226,4.16,5.095,7.185,5.367,3.123.281,7.066.57,7.176-5.979.084-4.97-2.92-6.248-5.558-7.987a18.651,18.651,0,0,0-8.956-2.6c-3.662-.277-12.561-.013-17.452,5.056" transform="translate(-54.461 -386.548)"/><path class="a" d="M70.64,462.97c11.151,0,19.388,8.255,21.19,14a40.372,40.372,0,0,1,2.164,14.5" transform="translate(-57.514 -386.897)"/><path class="z" d="M146.307,418.359c8.448,1.878,13.516-7.511,19.084-13.2,6.253-6.39,13.786-6.65,20.64-11.348,1.889-1.294,3.682-3.818,2.888-6.226-.7-2.13-2.951-2.764-4.87-3.018a46.566,46.566,0,0,0-18.58.893c-8.413,2.33-17.885,4.841-22.05,14.112-1.785,3.973-3.3,16.639,2.887,18.787" transform="translate(-78.33 -363.826)"/><path class="a" d="M183.135,388.547c-21.126,1.5-34.437,18.191-40.21,37.231-4.273,14.093-6.317,29.214-7.374,43.933" transform="translate(-76.488 -365.143)"/><path class="h" d="M87.713,503.235h46.228l-11.854,69.9H99.566Z" transform="translate(-62.495 -398.666)"/></g><g class="aa" transform="translate(124.335 150.082)"><circle class="ad" cx="8.525" cy="8.525" r="8.525"/><circle class="b" cx="8.525" cy="8.525" r="6.525"/></g><g class="aa" transform="translate(484.927 203.787)"><circle class="ad" cx="9.377" cy="9.377" r="9.377"/><circle class="b" cx="9.377" cy="9.377" r="7.377"/></g><g class="ab" transform="translate(141.384 138.148)"><circle class="ad" cx="5.967" cy="5.967" r="5.967"/><circle class="b" cx="5.967" cy="5.967" r="4.467"/></g><g class="ab" transform="translate(307.614 437.362)"><circle class="ad" cx="5.541" cy="5.541" r="5.541"/><circle class="b" cx="5.541" cy="5.541" r="4.041"/></g><circle class="ac" cx="8.525" cy="8.525" r="8.525" transform="translate(484.927 33.295)"/><circle class="ac" cx="8.525" cy="8.525" r="8.525" transform="translate(207.876 498.74)"/><circle class="ac" cx="17.049" cy="17.049" r="17.049" transform="translate(334.041 100.639)"/><circle class="ac" cx="17.049" cy="17.049" r="17.049" transform="translate(494.304 509.822)"/><line class="ab" x2="321.339" transform="translate(52.572 471.423)"/><line class="ab" x2="218.576" transform="translate(201.007 485.288)"/><line class="ab" x2="26.811" transform="translate(444.05 485.288)"/><g class="h" transform="translate(398.379 183.841) rotate(90)"><rect class="ad" width="70.517" height="122.31" rx="8"/><rect class="b" x="1.5" y="1.5" width="67.517" height="119.31" rx="6.5"/></g><g class="h" transform="translate(179.778 178.369)"><rect class="ad" width="57.005" height="81.955" rx="7.504"/><rect class="b" x="1.5" y="1.5" width="54.005" height="78.955" rx="6.004"/></g></g></svg>