<svg id="Group_2" data-name="Group 2" xmlns="http://www.w3.org/2000/svg" xmlns:xlink="http://www.w3.org/1999/xlink" width="221" height="65" viewBox="0 0 221 65">
  <defs>
    <linearGradient id="linear-gradient" x1="1.652" y1="3.338" x2="1.659" y2="3.332" gradientUnits="objectBoundingBox">
      <stop offset="0" stop-color="#01bdf4"/>
      <stop offset="1" stop-color="#009dff"/>
    </linearGradient>
  </defs>
  <g id="Rectangle_822" data-name="Rectangle 822" fill="#fff" stroke="#707070" stroke-width="1" opacity="0">
    <rect width="221" height="65" stroke="none"/>
    <rect x="0.5" y="0.5" width="220" height="64" fill="none"/>
  </g>
  <g id="Group_1" data-name="Group 1" transform="translate(4 3)">
    <path id="Path_2" data-name="Path 2" d="M107.022,186.458a9.1,9.1,0,0,1,4.472,7.51,8.8,8.8,0,0,1-4.472,8.08l-34.934,20.38a9.089,9.089,0,0,1-9.42-.2,8.773,8.773,0,0,1-4.148-7.593V173.877a9.088,9.088,0,0,1,3.856-7.4,8.827,8.827,0,0,1,9.708-.4Z" transform="translate(-58.518 -164.814)" fill="url(#linear-gradient)"/>
    <circle id="Ellipse_1" data-name="Ellipse 1" cx="5.671" cy="5.671" r="5.671" transform="translate(9.072 8.952)" fill="#fff"/>
  </g>
  <g id="Epic_Meet" data-name="Epic Meet" transform="translate(67.132 11.494)" style="mix-blend-mode: normal;isolation: isolate">
    <g id="Group_324" data-name="Group 324" transform="translate(0 0)" style="mix-blend-mode: normal;isolation: isolate">
      <path id="Path_381" data-name="Path 381" d="M158.876,176.048v2.737H145.259v7.767h12.694v2.737H145.259v8.452h13.72v2.737H142.008v-24.43Z" transform="translate(-142.008 -176.048)" fill="#182024"/>
      <path id="Path_382" data-name="Path 382" d="M172.065,184.83v2.4h.069a4.358,4.358,0,0,1,2.258-2.139,8.445,8.445,0,0,1,3.388-.667,7.988,7.988,0,0,1,3.576.753,7.286,7.286,0,0,1,2.532,2.036,9.024,9.024,0,0,1,1.522,2.96,12.055,12.055,0,0,1,.513,3.558,12.49,12.49,0,0,1-.5,3.558,8.4,8.4,0,0,1-1.5,2.925,7.094,7.094,0,0,1-2.532,1.968,8.212,8.212,0,0,1-3.542.718,8.789,8.789,0,0,1-1.454-.136,8.124,8.124,0,0,1-1.591-.445,6.182,6.182,0,0,1-1.488-.838,4.677,4.677,0,0,1-1.18-1.317h-.069v9.1h-2.908V184.83Zm10.452,6.278a6.488,6.488,0,0,0-.992-2.1,4.859,4.859,0,0,0-1.71-1.471,5.2,5.2,0,0,0-2.446-.547,4.8,4.8,0,0,0-4.174,2.1,6.357,6.357,0,0,0-.941,2.138,10.28,10.28,0,0,0-.29,2.43,10.17,10.17,0,0,0,.308,2.515,6.215,6.215,0,0,0,.975,2.138,4.973,4.973,0,0,0,1.729,1.488,5.39,5.39,0,0,0,2.566.565,4.972,4.972,0,0,0,2.515-.582,4.677,4.677,0,0,0,1.626-1.54,6.711,6.711,0,0,0,.889-2.189,11.7,11.7,0,0,0,.273-2.532A9.033,9.033,0,0,0,182.518,191.108Z" transform="translate(-148.628 -178.089)" fill="#182024"/>
      <path id="Path_383" data-name="Path 383" d="M196.079,179.606v-3.558h2.909v3.558Zm2.909,3.182v17.689h-2.909V182.788Z" transform="translate(-155.193 -176.048)" fill="#182024"/>
      <path id="Path_384" data-name="Path 384" d="M216.162,187.909a4.418,4.418,0,0,0-2.943-.923,5.42,5.42,0,0,0-2.634.581,4.688,4.688,0,0,0-1.693,1.54,6.479,6.479,0,0,0-.907,2.207,12,12,0,0,0-.274,2.583,9.81,9.81,0,0,0,.291,2.395,6.408,6.408,0,0,0,.907,2.07,4.585,4.585,0,0,0,1.608,1.454,4.809,4.809,0,0,0,2.361.547,4.76,4.76,0,0,0,3.37-1.129,5.1,5.1,0,0,0,1.488-3.182h2.976a8.15,8.15,0,0,1-2.446,5.064,7.686,7.686,0,0,1-5.354,1.778,9.226,9.226,0,0,1-3.575-.65,6.915,6.915,0,0,1-2.6-1.848,7.974,7.974,0,0,1-1.574-2.857,11.908,11.908,0,0,1-.53-3.644,12.965,12.965,0,0,1,.513-3.712,8.581,8.581,0,0,1,1.556-3.011,7.3,7.3,0,0,1,2.618-2.019,8.566,8.566,0,0,1,3.661-.736,10.71,10.71,0,0,1,2.822.359,6.891,6.891,0,0,1,2.327,1.112,6.077,6.077,0,0,1,1.66,1.9,7.012,7.012,0,0,1,.821,2.72H217.6A4.435,4.435,0,0,0,216.162,187.909Z" transform="translate(-157.278 -178.089)" fill="#182024"/>
      <path id="Path_385" data-name="Path 385" d="M247.947,176.048l7.7,20.529,7.732-20.529h4.448v24.43h-3.08V180.154h-.068l-7.63,20.324h-2.771l-7.63-20.324h-.069v20.324H243.5v-24.43Z" transform="translate(-166.756 -176.048)" fill="#182024"/>
      <path id="Path_386" data-name="Path 386" d="M294.4,201.389a8.027,8.027,0,0,1-5,1.506,9.09,9.09,0,0,1-3.679-.684,7.25,7.25,0,0,1-2.618-1.915,8.148,8.148,0,0,1-1.59-2.943,14.184,14.184,0,0,1-.6-3.729,10.649,10.649,0,0,1,.616-3.7,8.833,8.833,0,0,1,1.729-2.908A7.832,7.832,0,0,1,285.9,185.1a8.043,8.043,0,0,1,3.335-.684,7.258,7.258,0,0,1,3.918.975,7.755,7.755,0,0,1,2.5,2.48,9.813,9.813,0,0,1,1.3,3.285,14.088,14.088,0,0,1,.291,3.388H284a7.008,7.008,0,0,0,.275,2.206,4.972,4.972,0,0,0,.992,1.847,4.876,4.876,0,0,0,1.745,1.283,6.012,6.012,0,0,0,2.5.479,5.036,5.036,0,0,0,3.028-.855,4.14,4.14,0,0,0,1.557-2.6h2.874A7.074,7.074,0,0,1,294.4,201.389Zm-.7-11.359a4.991,4.991,0,0,0-1.06-1.591,5.053,5.053,0,0,0-1.574-1.061,4.99,4.99,0,0,0-2-.393,5.073,5.073,0,0,0-2.036.393,4.688,4.688,0,0,0-1.556,1.078,5.154,5.154,0,0,0-1.028,1.591,6.072,6.072,0,0,0-.445,1.934h10.162A5.959,5.959,0,0,0,293.7,190.03Z" transform="translate(-175.88 -178.089)" fill="#182024"/>
      <path id="Path_387" data-name="Path 387" d="M318.7,201.389a8.028,8.028,0,0,1-5,1.506,9.087,9.087,0,0,1-3.678-.684,7.25,7.25,0,0,1-2.618-1.915,8.148,8.148,0,0,1-1.59-2.943,14.154,14.154,0,0,1-.6-3.729,10.65,10.65,0,0,1,.616-3.7,8.845,8.845,0,0,1,1.728-2.908,7.841,7.841,0,0,1,2.635-1.916,8.043,8.043,0,0,1,3.335-.684,7.258,7.258,0,0,1,3.918.975,7.755,7.755,0,0,1,2.5,2.48,9.829,9.829,0,0,1,1.3,3.285,14.165,14.165,0,0,1,.291,3.388H308.3a7.03,7.03,0,0,0,.274,2.206,4.974,4.974,0,0,0,.993,1.847,4.869,4.869,0,0,0,1.745,1.283,6.011,6.011,0,0,0,2.5.479,5.036,5.036,0,0,0,3.028-.855,4.139,4.139,0,0,0,1.557-2.6h2.873A7.07,7.07,0,0,1,318.7,201.389ZM318,190.03a4.989,4.989,0,0,0-1.06-1.591,5.053,5.053,0,0,0-1.574-1.061,4.989,4.989,0,0,0-2-.393,5.073,5.073,0,0,0-2.036.393,4.7,4.7,0,0,0-1.557,1.078,5.167,5.167,0,0,0-1.027,1.591,6.073,6.073,0,0,0-.445,1.934h10.162A5.957,5.957,0,0,0,318,190.03Z" transform="translate(-181.805 -178.089)" fill="#182024"/>
      <path id="Path_388" data-name="Path 388" d="M337.735,183.252v2.566h-3.524V196.8a3.148,3.148,0,0,0,.085.82.841.841,0,0,0,.325.479,1.43,1.43,0,0,0,.667.222,9.557,9.557,0,0,0,1.112.051h1.334v2.566h-2.223a10.419,10.419,0,0,1-1.934-.154,2.842,2.842,0,0,1-1.3-.565,2.407,2.407,0,0,1-.735-1.163,6.7,6.7,0,0,1-.24-1.985V185.818h-3.01v-2.566h3.01v-5.3h2.909v5.3Z" transform="translate(-187.432 -176.512)" fill="#182024"/>
    </g>
  </g>
  <g id="Epic_Meet-2" data-name="Epic Meet" transform="translate(64.463 47.252)" style="mix-blend-mode: normal;isolation: isolate">
    <g id="Group_325" data-name="Group 325" transform="translate(0 0)" style="mix-blend-mode: normal;isolation: isolate">
      <path id="Path_389" data-name="Path 389" d="M141.1,231.781l-2.623-8.187h1.066l2.132,7.1h.021l2.153-7.1h1.035l-2.655,8.187Z" transform="translate(-138.479 -223.4)" fill="#808486"/>
      <path id="Path_390" data-name="Path 390" d="M153.2,223.594v8.187H152.2v-8.187Z" transform="translate(-141.826 -223.4)" fill="#808486"/>
      <path id="Path_391" data-name="Path 391" d="M162.435,223.594a3.52,3.52,0,0,1,2.655.963,4.083,4.083,0,0,1,.93,2.935,7.248,7.248,0,0,1-.209,1.829,3.53,3.53,0,0,1-.648,1.341,2.817,2.817,0,0,1-1.118.832,4.133,4.133,0,0,1-1.61.286h-2.56v-8.187Zm.084,7.27a3.86,3.86,0,0,0,.418-.029,2.171,2.171,0,0,0,.533-.138,2.317,2.317,0,0,0,.559-.315,1.975,1.975,0,0,0,.5-.562,3.3,3.3,0,0,0,.36-.888,5.083,5.083,0,0,0,.141-1.29,6.047,6.047,0,0,0-.13-1.313,2.649,2.649,0,0,0-.429-.986,1.9,1.9,0,0,0-.768-.619,2.82,2.82,0,0,0-1.161-.212h-1.672v6.352Z" transform="translate(-143.696 -223.4)" fill="#808486"/>
      <path id="Path_392" data-name="Path 392" d="M178.905,223.594v.918h-4.16v2.6h3.878v.917h-3.878v2.833h4.191v.916h-5.184v-8.187Z" transform="translate(-147.08 -223.4)" fill="#808486"/>
      <path id="Path_393" data-name="Path 393" d="M186.016,226.015a4.216,4.216,0,0,1,.675-1.371,3.345,3.345,0,0,1,1.119-.951,3.588,3.588,0,0,1,3.114,0,3.36,3.36,0,0,1,1.119.951,4.215,4.215,0,0,1,.674,1.371,5.888,5.888,0,0,1,0,3.221,4.214,4.214,0,0,1-.674,1.371,3.361,3.361,0,0,1-5.352,0,4.216,4.216,0,0,1-.675-1.371,5.908,5.908,0,0,1,0-3.221Zm.915,2.832a3.48,3.48,0,0,0,.46,1.084,2.448,2.448,0,0,0,.805.774,2.493,2.493,0,0,0,2.341,0,2.438,2.438,0,0,0,.8-.774,3.46,3.46,0,0,0,.46-1.084,5.156,5.156,0,0,0,0-2.442,3.453,3.453,0,0,0-.46-1.084,2.427,2.427,0,0,0-.8-.774,2.487,2.487,0,0,0-2.341,0,2.437,2.437,0,0,0-.805.774,3.472,3.472,0,0,0-.46,1.084,5.156,5.156,0,0,0,0,2.442Z" transform="translate(-150.016 -223.337)" fill="#808486"/>
      <path id="Path_394" data-name="Path 394" d="M213.377,224.69a2.162,2.162,0,0,0-1.354-.436,2.243,2.243,0,0,0-1.144.275,2.335,2.335,0,0,0-.784.74,3.348,3.348,0,0,0-.454,1.061,5.171,5.171,0,0,0-.147,1.238,5.8,5.8,0,0,0,.147,1.325,3.326,3.326,0,0,0,.454,1.089,2.31,2.31,0,0,0,.789.74,2.276,2.276,0,0,0,1.15.275,2.038,2.038,0,0,0,.872-.178,1.977,1.977,0,0,0,.659-.493,2.293,2.293,0,0,0,.433-.751,3.373,3.373,0,0,0,.189-.941h.993a3.894,3.894,0,0,1-.972,2.408,2.989,2.989,0,0,1-2.259.86,3.323,3.323,0,0,1-1.515-.327,3.025,3.025,0,0,1-1.077-.9,4.01,4.01,0,0,1-.643-1.353,6.288,6.288,0,0,1-.214-1.674,5.942,5.942,0,0,1,.23-1.679,4.18,4.18,0,0,1,.674-1.37,3.191,3.191,0,0,1,1.108-.923,3.307,3.307,0,0,1,1.521-.338,3.517,3.517,0,0,1,1.108.172,2.869,2.869,0,0,1,.93.5,2.782,2.782,0,0,1,.68.832,3.26,3.26,0,0,1,.355,1.152h-.993A2.058,2.058,0,0,0,213.377,224.69Z" transform="translate(-155.554 -223.337)" fill="#808486"/>
      <path id="Path_395" data-name="Path 395" d="M222.783,226.015a4.215,4.215,0,0,1,.674-1.371,3.359,3.359,0,0,1,1.119-.951,3.588,3.588,0,0,1,3.114,0,3.35,3.35,0,0,1,1.118.951,4.2,4.2,0,0,1,.675,1.371,5.888,5.888,0,0,1,0,3.221,4.2,4.2,0,0,1-.675,1.371,3.36,3.36,0,0,1-5.351,0,4.215,4.215,0,0,1-.674-1.371,5.907,5.907,0,0,1,0-3.221Zm.915,2.832a3.461,3.461,0,0,0,.46,1.084,2.438,2.438,0,0,0,.8.774,2.495,2.495,0,0,0,2.342,0,2.428,2.428,0,0,0,.8-.774,3.445,3.445,0,0,0,.461-1.084,5.182,5.182,0,0,0,0-2.442,3.438,3.438,0,0,0-.461-1.084,2.418,2.418,0,0,0-.8-.774,2.489,2.489,0,0,0-2.342,0,2.428,2.428,0,0,0-.8.774,3.454,3.454,0,0,0-.46,1.084,5.156,5.156,0,0,0,0,2.442Z" transform="translate(-158.981 -223.337)" fill="#808486"/>
      <path id="Path_396" data-name="Path 396" d="M238.8,223.594l3.93,6.639h.02v-6.639h.941v8.187h-1.087l-3.9-6.569h-.021v6.569h-.941v-8.187Z" transform="translate(-162.685 -223.4)" fill="#808486"/>
      <path id="Path_397" data-name="Path 397" d="M256.789,223.594v.918h-3.909v2.6h3.428v.917h-3.428v3.749h-.993v-8.187Z" transform="translate(-166.133 -223.4)" fill="#808486"/>
      <path id="Path_398" data-name="Path 398" d="M269.121,223.594v.918h-4.16v2.6h3.878v.917h-3.878v2.833h4.191v.916h-5.183v-8.187Z" transform="translate(-169.079 -223.4)" fill="#808486"/>
      <path id="Path_399" data-name="Path 399" d="M280.073,223.594a2.314,2.314,0,0,1,1.667.574,2.066,2.066,0,0,1,.6,1.571,2.671,2.671,0,0,1-.309,1.307,1.6,1.6,0,0,1-.988.768v.023a1.274,1.274,0,0,1,.528.229,1.212,1.212,0,0,1,.324.384,1.835,1.835,0,0,1,.178.5q.057.276.089.573t.032.608a5.728,5.728,0,0,0,.052.608,4.037,4.037,0,0,0,.12.567,1.445,1.445,0,0,0,.236.476h-1.108a.712.712,0,0,1-.142-.344,3.854,3.854,0,0,1-.046-.487c-.008-.179-.014-.373-.021-.579a4.474,4.474,0,0,0-.062-.607c-.029-.2-.063-.388-.105-.568a1.4,1.4,0,0,0-.2-.47,1,1,0,0,0-.355-.321,1.22,1.22,0,0,0-.585-.12h-2.424v3.5h-.993v-8.187Zm.209,3.715a1.353,1.353,0,0,0,.549-.223,1.185,1.185,0,0,0,.376-.448,1.616,1.616,0,0,0,.141-.728,1.561,1.561,0,0,0-.313-1.009,1.228,1.228,0,0,0-1.014-.389h-2.467v2.855h2.069A3.627,3.627,0,0,0,280.281,227.309Z" transform="translate(-172.149 -223.4)" fill="#808486"/>
      <path id="Path_400" data-name="Path 400" d="M295.327,223.594v.918h-4.16v2.6h3.878v.917h-3.878v2.833h4.191v.916h-5.183v-8.187Z" transform="translate(-175.469 -223.4)" fill="#808486"/>
      <path id="Path_401" data-name="Path 401" d="M303.808,223.594l3.931,6.639h.02v-6.639h.941v8.187h-1.087l-3.9-6.569h-.02v6.569h-.941v-8.187Z" transform="translate(-178.536 -223.4)" fill="#808486"/>
      <path id="Path_402" data-name="Path 402" d="M321.284,224.69a2.162,2.162,0,0,0-1.353-.436,2.242,2.242,0,0,0-1.143.275,2.321,2.321,0,0,0-.784.74,3.331,3.331,0,0,0-.455,1.061,5.173,5.173,0,0,0-.146,1.238,5.8,5.8,0,0,0,.146,1.325,3.31,3.31,0,0,0,.455,1.089,2.3,2.3,0,0,0,.789.74,2.271,2.271,0,0,0,1.149.275,2.036,2.036,0,0,0,.872-.178,1.977,1.977,0,0,0,.659-.493,2.294,2.294,0,0,0,.434-.751,3.4,3.4,0,0,0,.188-.941h.993a3.89,3.89,0,0,1-.972,2.408,2.987,2.987,0,0,1-2.258.86,3.324,3.324,0,0,1-1.515-.327,3.032,3.032,0,0,1-1.077-.9,4.01,4.01,0,0,1-.643-1.353,6.289,6.289,0,0,1-.214-1.674,5.939,5.939,0,0,1,.23-1.679,4.178,4.178,0,0,1,.674-1.37,3.191,3.191,0,0,1,1.108-.923,3.307,3.307,0,0,1,1.521-.338,3.513,3.513,0,0,1,1.108.172,2.87,2.87,0,0,1,.93.5,2.771,2.771,0,0,1,.68.832,3.275,3.275,0,0,1,.355,1.152h-.994A2.055,2.055,0,0,0,321.284,224.69Z" transform="translate(-181.866 -223.337)" fill="#808486"/>
      <path id="Path_403" data-name="Path 403" d="M336.171,223.594v.918h-4.16v2.6h3.878v.917h-3.878v2.833H336.2v.916h-5.183v-8.187Z" transform="translate(-185.429 -223.4)" fill="#808486"/>
    </g>
  </g>
</svg>
