<svg id="Component_263_9" data-name="Component 263 – 9" xmlns="http://www.w3.org/2000/svg" width="48" height="48" viewBox="0 0 48 48">
  <circle id="photo-1503443207922-dff7d543fd0e" cx="24" cy="24" r="24" fill="#fff" opacity="0.05"/>
  <g id="Group_353" data-name="Group 353" transform="translate(7.946 7.947)">
    <g id="Rectangle_124" data-name="Rectangle 124" transform="translate(0.054 0.053)" fill="#fff" stroke="#707070" stroke-width="1" opacity="0">
      <rect width="32" height="32" rx="15" stroke="none"/>
      <rect x="0.5" y="0.5" width="31" height="31" rx="14.5" fill="none"/>
    </g>
    <g id="Group_510" data-name="Group 510" transform="translate(3.732 5.551)">
      <g id="Rectangle_131" data-name="Rectangle 131" transform="translate(3.752)" fill="none" stroke="#eaeef0" stroke-width="1.5">
        <rect width="9.535" height="9.535" rx="4.768" stroke="none"/>
        <rect x="0.75" y="0.75" width="8.035" height="8.035" rx="4.018" fill="none"/>
      </g>
      <path id="Path_411" data-name="Path 411" d="M0,0A8.521,8.521,0,0,1,8.521,8.521,8.521,8.521,0,0,1,0,17.042" transform="translate(0 20.708) rotate(-90)" fill="none" stroke="#eaeef0" stroke-width="1.5"/>
    </g>
    <g id="Group_511" data-name="Group 511" transform="translate(15.24 2.657)">
      <path id="Path_546" data-name="Path 546" d="M4.837,0A3.609,3.609,0,0,1,7.22,3.452a3.69,3.69,0,0,1-3.69,3.69A3.757,3.757,0,0,1,0,4.532" transform="matrix(0.454, -0.891, 0.891, 0.454, 0, 6.433)" fill="none" stroke="#eaeef0" stroke-width="1.5"/>
      <path id="Path_411-2" data-name="Path 411" d="M7.147,0a7.417,7.417,0,0,1,.488,2.726A7.635,7.635,0,0,1,0,10.361" transform="translate(2.611 20.115) rotate(-90)" fill="none" stroke="#eaeef0" stroke-width="1.5"/>
    </g>
  </g>
</svg>
