<svg xmlns="http://www.w3.org/2000/svg" xmlns:xlink="http://www.w3.org/1999/xlink" width="242.672" height="188.836" viewBox="0 0 242.672 188.836"><defs><style>.a,.ad,.ae,.b,.c,.f,.m,.n,.p,.s,.v,.w,.x,.z{fill:none;}.a,.ad,.ae,.c,.f,.g,.m,.n,.z{stroke:#fff;}.a,.ac,.c,.f,.g,.k,.m,.n,.p,.s,.v,.w,.x,.z{stroke-miterlimit:10;}.a,.k{stroke-width:2px;}.c{stroke-width:3px;stroke-dasharray:5 3.5;}.d{fill:url(#a);}.e,.g{fill:#009dff;}.ac,.ad,.f,.g,.m,.w{stroke-width:1.5px;}.f{stroke-dasharray:3 2;}.h{clip-path:url(#b);}.i{fill:#182024;}.j,.k{fill:#ffd5c7;}.k,.p{stroke:#ef927f;}.aa,.ab,.ac,.ah,.l,.y{fill:#fff;}.o{fill:#ffc5ae;}.q{fill:#f9af95;}.r{fill:#f7633a;}.t{clip-path:url(#c);}.u{fill:#d7dfe5;}.v{stroke:#707070;}.ac,.w,.x{stroke:#009dff;}.y{opacity:0.1;}.z{stroke-width:1.2px;}.aa{opacity:0.15;}.ab{opacity:0.25;}.af{clip-path:url(#d);}.ag,.ah{stroke:none;}</style><linearGradient id="a" x1="0.924" y1="0.08" x2="0.271" y2="0.88" gradientUnits="objectBoundingBox"><stop offset="0" stop-color="#01bdf4"/><stop offset="1" stop-color="#009dff"/></linearGradient><clipPath id="b"><rect class="a" width="50.274" height="75.556" rx="6.631" transform="translate(50.274 75.556) rotate(-180)"/></clipPath><clipPath id="c"><rect class="b" width="57.443" height="35.074" rx="8"/></clipPath><clipPath id="d"><rect class="b" width="25.939" height="37.516" rx="3" transform="translate(25.939 37.516) rotate(-180)"/></clipPath></defs><g transform="translate(-53.163 -81.423)"><path class="c" d="M366.3,257.949v-6.1a6.8,6.8,0,0,0-6.8-6.8H212.319a2.8,2.8,0,0,0-2.8,2.8v5.2a2.8,2.8,0,0,0,2.8,2.8h2.938" transform="translate(-100.891 -126.506)"/><path class="d" d="M187.872,334.435C137.386,339.616,98.2,292.52,73.03,274.555s-36.2-113.266,37.486-101.77,96.636-25.817,137.853-25.915,58.8,37.081,41.99,93.082S238.358,329.254,187.872,334.435Z" transform="translate(-0.852 -64.572)"/><path class="e" d="M427.855,216.084V249.96c0,2.142-2.048,3.878-4.574,3.878H364.689c-2.526,0-4.574-1.737-4.574-3.879V216.084c0-2.142,2.048-3.878,4.574-3.878H423.28C425.807,212.206,427.855,213.942,427.855,216.084Z" transform="translate(-197.67 -105.398)"/><path class="f" d="M343.9,309.5h-2.923a4.762,4.762,0,0,0-4.762,4.762v7.072" transform="translate(-182.311 -167.927)"/><path class="f" d="M452.244,439.517H440.991a2.811,2.811,0,0,0-2.811,2.811v11.709a2.811,2.811,0,0,1-2.811,2.811H424.932" transform="translate(-218.716 -251.479)"/><g class="g" transform="translate(234.887 134.017)"><rect class="ag" width="57.701" height="82.955" rx="9"/><rect class="b" x="0.75" y="0.75" width="56.201" height="81.455" rx="8.25"/></g><g transform="translate(238.6 137.716)"><g class="h" transform="translate(0 0)"><path class="i" d="M594.227,435.587l23,7.682v28.124H556.418V443.268l20.149-6.357" transform="translate(-561.393 -386.669)"/><path class="j" d="M605.244,384.5a1.082,1.082,0,0,0-.7-1.365,1.5,1.5,0,0,0-1.514.54,3.169,3.169,0,0,0-.635,1.595,4.058,4.058,0,0,0,.432,2.732,2.2,2.2,0,0,0,2.341,1.067" transform="translate(-591.442 -352.928)"/><path class="j" d="M608.464,358.221s-6.778,18.4-4.751,20.5,12.3,3.758,13.556,2.457a37.552,37.552,0,0,0,4.752-6.5c1.338-2.651,3.214-8.961,1.537-11.852S610.967,355.632,608.464,358.221Z" transform="translate(-592.099 -336.438)"/><path class="i" d="M629.771,388.082a.535.535,0,1,0,.529-.611A.574.574,0,0,0,629.771,388.082Z" transform="translate(-609.401 -355.748)"/><ellipse class="i" cx="0.529" cy="0.611" rx="0.529" ry="0.611" transform="translate(14.676 29.701)"/><line class="k" y1="3.6" x2="0.859" transform="translate(12.583 30.502)"/><path class="j" d="M615.349,410.667l.559,10.107s3.588,3.776,5.684,3.776c4.053,0,9.549-7.133,9.549-7.133l-2.795-10.957" transform="translate(-599.962 -367.951)"/><path class="i" d="M606.621,364.353a20.644,20.644,0,0,0-4.222-1.2,3.909,3.909,0,0,1-1.1-.252,2.123,2.123,0,0,1-1.212-1.77c-1.607.956-2.691,3.243-3.4,4.952-.794,1.925-1.23,4.395.167,6.15,1.847,2.323,5.814,2.238,8.409,2.82,2.276.51,4.726.912,6.872-.021,2.324-1.01,2.66-2.9,4.258-4.589-.1.619.665,1.078,1.251.909a2.783,2.783,0,0,0,1.343-1.217,31.747,31.747,0,0,0,1.9-2.928,20.617,20.617,0,0,0,2.324-8.858,3.384,3.384,0,0,0-.265-1.829,12.537,12.537,0,0,1-.863-1.228,4.658,4.658,0,0,1-.12-1.622,5.719,5.719,0,0,0-1.021-2.793c-3.111-4.942-8.391-6.806-13.82-6.319-3.365.3-6.79,1.971-8.432,5.024a3.277,3.277,0,0,0-.483,1.892c.193,1.638,2.1,2.308,3.667,2.621a45.758,45.758,0,0,0,8.286,1.134c2.46.034,4.9-.2,6.871,1.631a.747.747,0,0,1,.182.224.77.77,0,0,1,.051.307,12.04,12.04,0,0,1-1.2,4.613,7.719,7.719,0,0,1-1,1.956,4.653,4.653,0,0,1-3.623,1.406A12.913,12.913,0,0,1,606.621,364.353Z" transform="translate(-587.265 -328.122)"/><path class="l" d="M615.15,405.379l-6.379-1.212a.208.208,0,0,0-.239.153c-.214.784-.827,3.774,2.082,4.266a4.079,4.079,0,0,0,4.73-2.859A.264.264,0,0,0,615.15,405.379Z" transform="translate(-595.368 -366.475)"/><path class="j" d="M649.557,401.82c1.067-2,2.893-5.012,4.452-3.624a1.854,1.854,0,0,1,.508.966,4.127,4.127,0,0,1-2.413,4.687c-1.146.427-2.6.267-2.663-1.267A2.463,2.463,0,0,1,649.557,401.82Z" transform="translate(-622.273 -362.413)"/><path class="k" d="M655.506,402.732s.27-1.27-.344-1.27a1.429,1.429,0,0,0-1.252,1.016c-.069.19.565.863.049,1.143s-.785.2-1.129.559-.491,1.27.245,1.27" transform="translate(-624.307 -364.739)"/><path class="l" d="M641.937,425.828s-5.409,10.1-8.519,11.169c1.9,2.839,4.319,7.147,5.528,7.147,2.073,0,7.135-14.4,7.135-14.4Z" transform="translate(-611.788 -380.398)"/><path class="l" d="M618.03,441.33c-4.319-2.395-6.039-8.76-6.039-8.76l-2.085,3.08s1.386,11.576,3.114,11.576C614.056,447.226,618.03,441.33,618.03,441.33Z" transform="translate(-596.4 -384.731)"/></g><rect class="m" width="50.274" height="75.556" rx="6.631" transform="translate(50.274 75.556) rotate(-180)"/></g><g transform="translate(237.397 221.573)"><path class="m" d="M585.931,546.958h-12.4a3.674,3.674,0,0,1-3.674-3.674V539.04a3.674,3.674,0,0,1,3.674-3.674h13.984l2.089-2.007v9.925A3.674,3.674,0,0,1,585.931,546.958Z" transform="translate(-569.858 -533.359)"/><g transform="translate(4.377 7.267)"><path class="n" d="M609.522,555.244a.73.73,0,0,1-.75-.776.717.717,0,0,1,.726-.774.734.734,0,0,1,.738.774A.723.723,0,0,1,609.522,555.244Z" transform="translate(-599.242 -553.694)"/><path class="n" d="M596.188,555.244a.73.73,0,0,1-.75-.776.717.717,0,0,1,.726-.774.734.734,0,0,1,.739.774A.723.723,0,0,1,596.188,555.244Z" transform="translate(-590.673 -553.694)"/><path class="n" d="M582.855,555.244a.73.73,0,0,1-.75-.776.717.717,0,0,1,.726-.774.734.734,0,0,1,.739.774A.723.723,0,0,1,582.855,555.244Z" transform="translate(-582.105 -553.694)"/></g></g><g transform="translate(96.109 154.373)"><g transform="translate(30.17 74.938)"><path class="m" d="M282.9,555.013l-2.8,13.549h32.212l-2.8-13.549" transform="translate(-272.526 -555.013)"/><path class="m" d="M0,0H47.352a0,0,0,0,1,0,0V0A3.243,3.243,0,0,1,44.11,3.243H3.243A3.243,3.243,0,0,1,0,0V0A0,0,0,0,1,0,0Z" transform="translate(47.352 16.792) rotate(-180)"/></g><rect class="g" width="107.693" height="74.938" rx="10" transform="translate(0 0)"/></g><g transform="translate(99.387 157.62)"><rect class="m" width="101.138" height="68.801" rx="7" transform="translate(101.138 68.801) rotate(-180)"/></g><g transform="translate(107.827 160.575)"><g transform="translate(10.737 5.474)"><path class="i" d="M254.788,381.044a8.016,8.016,0,0,0-3.385,4.121c-.615,1.711-.675,3.927-1.762,5.385a10.756,10.756,0,0,1-3.316,2.545c-1.218.733-2.522,1.438-2.8,2.832-.427,2.151,1.56,4.226,1.172,6.384-.412,2.295-3.094,3.246-4.859,4.769a7.258,7.258,0,0,0,.587,11.448,14.284,14.284,0,0,0,5.1,1.89,115.315,115.315,0,0,0,18.319,2.994,49.16,49.16,0,0,0,18.363-1.993,7.3,7.3,0,0,0,2.418-1.173,8.06,8.06,0,0,0,1.606-2.042,18.35,18.35,0,0,0,2.776-5.922,6.232,6.232,0,0,0-1.726-6.012c-1.045-.865-2.672-1.458-3.452-2.667-1.22-1.89.493-3.644.9-5.506.447-2.029-1.265-3.381-2.6-4.549a7.749,7.749,0,0,1-2.483-4.48,14.727,14.727,0,0,0-17.3-10.778" transform="translate(-237.323 -377.983)"/></g><g transform="translate(51.696 30.107)"><path class="o" d="M364.369,483.413l8.253,8.86,8.212-17.7,3.379.809s1.387,27.078-9.176,29.432c-8.895,1.982-23.1-11.981-23.1-11.981" transform="translate(-351.94 -464.692)"/><path class="o" d="M431.82,458.307a7.959,7.959,0,0,1-1.224-2.848c-.12-1.228-.205-4.781.177-4.966.469-.227,1.021,1.49,1.057,1.561.088.175,1.058-5.2,1.556-5.137s.169,3.7.169,3.7,1.112-3.8,1.631-3.643-.263,4.008-.263,4.008,1.05-3.558,1.525-3.26-.517,3.995-.517,3.995,1.222-3.178,1.673-2.836c.54.409-1.127,8.178-2.908,8.9l-.481,1.779" transform="translate(-402.423 -446.915)"/><path class="n" d="M434.906,462.541s2.1,1.89,1.349,3.691" transform="translate(-405.258 -456.957)"/></g><path class="o" d="M217.008,505.469l-9.732,14.645h16.417l6.067-5.977" transform="translate(-207.276 -454.438)"/><path class="i" d="M264.2,476.855a34.577,34.577,0,0,1,11.243,4.649,32.754,32.754,0,0,1,8.456,8.064l-10.2,12.158H230.782l-11.268-7.576s6.724-10.5,12.349-13.394a51.963,51.963,0,0,1,9.633-3.6l14.883,3.452Z" transform="translate(-215.141 -436.049)"/><path class="o" d="M307.808,385.231c2.433,5.979,4.8,19.684-3.784,21.672-12.153,2.815-15.525-10.731-16.16-15.866C286.856,382.888,305.375,379.251,307.808,385.231Z" transform="translate(-259.04 -375.261)"/><path class="o" d="M297.3,441.131l.608,9.8,5.819,1.951s.1,7.063-2.233,8.393c-2.885,1.642-15.188,1.962-17.286-.136s-3.18-7.964-3.18-7.964l7.269-2.787,2-10.836" transform="translate(-254.673 -412.077)"/><path class="i" d="M293.18,381.088c2.709,3.235,9.773,4.718,12.924,3.773a4.556,4.556,0,0,0,2.327-7.1,10.916,10.916,0,0,0-4.453-3.526,17.945,17.945,0,0,0-13.188-.765,11.345,11.345,0,0,0-8.648,10.419,18.877,18.877,0,0,0,.808,7.357,3.444,3.444,0,0,0,1.554,2.237,3.181,3.181,0,0,0,2.52-.193c3.274-1.371,4.88-6.749,6.155-12.2" transform="translate(-255.342 -369.028)"/><path class="i" d="M283.435,368.992a4.6,4.6,0,0,0-.682-4.439c-4.429-5.546-13.64,2.414-7.579,7.331a7.63,7.63,0,0,0,6.027,1.31" transform="translate(-249.623 -362.665)"/><path class="p" d="M316.29,449.873a10.44,10.44,0,0,1-6.008-1.5" transform="translate(-273.473 -417.747)"/><line class="n" y1="3.328" x2="0.931" transform="translate(71.447 57.688)"/><path class="n" d="M363.488,523.522a31.279,31.279,0,0,0-4.275-13.014" transform="translate(-304.918 -457.676)"/><line class="n" x1="4.469" y2="8.159" transform="translate(19.211 57.688)"/><path class="i" d="M341.3,414.813a.527.527,0,1,1-.527-.527A.527.527,0,0,1,341.3,414.813Z" transform="translate(-292.727 -395.839)"/><path class="i" d="M315.182,419.628a.527.527,0,1,0,.527-.527A.527.527,0,0,0,315.182,419.628Z" transform="translate(-276.621 -398.933)"/><path class="q" d="M314.2,424.975c-1.13-.841-3.308.483-3.089,2.072.2,1.433,2.069,1.691,3.06,1.234a1.756,1.756,0,0,0,.9-1.618A2.208,2.208,0,0,0,314.2,424.975Z" transform="translate(-273.998 -402.541)"/><path class="q" d="M341.129,422.332a1.711,1.711,0,0,0-2.6,1.742c.167,1.2,1.74,1.422,2.573,1.037a1.476,1.476,0,0,0,.754-1.36A1.717,1.717,0,0,0,341.129,422.332Z" transform="translate(-291.616 -400.83)"/><path class="l" d="M328.57,437.335l-4.235-.069a.22.22,0,0,0-.224.21c-.032.648.028,2.559,1.821,2.763,2.252.255,2.77-1.833,2.884-2.613A.253.253,0,0,0,328.57,437.335Z" transform="translate(-282.356 -410.607)"/><g transform="translate(28.813 22.628)"><path class="o" d="M293.758,430.834a1.73,1.73,0,0,1-1.707,1.578c-2.46,0-4.678-2.84-4.033-4.829.974-3,3.969-1.005,4.389-.166" transform="translate(-287.905 -425.986)"/><g transform="translate(4.001 5.312)"><path class="r" d="M299.113,441.141l.022-.068a.307.307,0,0,1,.371-.21.268.268,0,0,1,.21.21.307.307,0,0,1-.21.371l-.068.022a.266.266,0,0,1-.325-.324Z" transform="translate(-299.102 -440.851)"/></g><path class="p" d="M294.057,433.324c.554.135,1.511.1,1.432-.675-.071-.7-.812-.531-1.175-.97a1.653,1.653,0,0,1-.245-.674,1.6,1.6,0,0,0-.615-.961.91.91,0,0,0-1.083.031,1.41,1.41,0,0,0-.329,1.019c-.006.153.037.358.189.363" transform="translate(-290.563 -428.489)"/></g></g><g class="s" transform="translate(-197.67 -105.398)"><path class="ag" d="M427.855,216.084V249.96c0,2.142-2.048,3.878-4.574,3.878H364.689c-2.526,0-4.574-1.737-4.574-3.879V216.084c0-2.142,2.048-3.878,4.574-3.878H423.28C425.807,212.206,427.855,213.942,427.855,216.084Z"/><path class="ah" d="M 364.6893920898438 213.7059936523438 C 363.8223266601562 213.7059936523438 363.01806640625 213.9830322265625 362.4247741699219 214.4860534667969 C 361.9025268554688 214.9288177490234 361.6149291992188 215.4964447021484 361.6149291992188 216.0843658447266 L 361.6149291992188 249.9600830078125 C 361.6149291992188 250.5480346679688 361.9025573730469 251.1157379150391 362.4248352050781 251.55859375 C 363.0181579589844 252.0617065429688 363.8224182128906 252.3387908935547 364.6893920898438 252.3387908935547 L 423.2801208496094 252.3387908935547 C 424.1471557617188 252.3387908935547 424.951416015625 252.0617523193359 425.5447387695312 251.5587158203125 C 426.0669555664062 251.1159362792969 426.3545837402344 250.5483093261719 426.3545837402344 249.9604034423828 L 426.3545837402344 216.0843658447266 C 426.3545837402344 215.4964447021484 426.0669860839844 214.9288177490234 425.5447387695312 214.4860534667969 C 424.951416015625 213.9830322265625 424.1471557617188 213.7059936523438 423.2801208496094 213.7059936523438 L 364.6893920898438 213.7059936523438 M 364.6893920898438 212.2059936523438 L 423.2801208496094 212.2059936523438 C 425.8066101074219 212.2059936523438 427.8545837402344 213.9423675537109 427.8545837402344 216.0843658447266 L 427.8545837402344 249.9604034423828 C 427.8545837402344 252.1023712158203 425.8066101074219 253.8387908935547 423.2801208496094 253.8387908935547 L 364.6893920898438 253.8387908935547 C 362.1629028320312 253.8387908935547 360.1149291992188 252.1020202636719 360.1149291992188 249.9600830078125 L 360.1149291992188 216.0843658447266 C 360.1149291992188 213.9423675537109 362.1629028320312 212.2059936523438 364.6893920898438 212.2059936523438 Z"/></g><g transform="translate(168.884 110.087)"><g class="t" transform="translate(0 0)"><g transform="translate(19.41 1.303)"><path class="u" d="M443.985,289.762a35.743,35.743,0,0,1,13.281-.685c6.859,1.069,11.645,6.906,11.645,6.906v5.583H429.654C432.7,292.474,443.985,289.762,443.985,289.762Z" transform="translate(-428.903 -266.299)"/><path class="i" d="M443.153,250.414q-.3,2.551-.591,5.1c-.182,1.575-.315,3.339.676,4.577,1.839,2.3,5.713,1.243,7.485-1.071" transform="translate(-437.349 -240.978)"/><path class="o" d="M464.977,273.732l.643,7.662s.619,1.967,3.817,1.276c2.44-.527,3.19-3.4,3.19-3.4l-1.828-6.812Z" transform="translate(-452.246 -255.547)"/><path class="o" d="M446.83,233.922c-1.622,4.324.114,10.414,3.35,12.761,1.914,1.388,4.043,1.146,6.02,0,2.2-1.276,4.029-4.626,4.029-9.092C460.228,231.688,450.179,224.989,446.83,233.922Z" transform="translate(-439.846 -227.212)"/><path class="i" d="M447.238,223.282a10.145,10.145,0,0,1,2.286-.619,9.857,9.857,0,0,1,7.363,2.361,14.417,14.417,0,0,1,4.26,5.952,23.808,23.808,0,0,1,1.257,3.22c.5,1.9.659,3.954-.57,5.624a4.567,4.567,0,0,1-2.03,1.691,14.016,14.016,0,0,1-3.238,1.011,1.563,1.563,0,0,1-.779,0,1.143,1.143,0,0,1-.679-1.047,3.95,3.95,0,0,1,.246-1.3,15.168,15.168,0,0,0,.288-8.736,4.793,4.793,0,0,0-1.545-2.016.432.432,0,0,0-.22-.121c-.18-.019-.3.17-.405.318a2.169,2.169,0,0,1-2.12.741,5.251,5.251,0,0,1-1.722-.677.451.451,0,0,0-.612.177,1.644,1.644,0,0,1-1.156.791,1.626,1.626,0,0,1-1.121-.265.454.454,0,0,0-.661.2.663.663,0,0,1-.594.388c-.188-.013-.353-.133-.54-.155-.38-.046-.682.308-.866.643a8.006,8.006,0,0,0-.932,3.61c-.016-.171-.393-.539-.49-.705a5.337,5.337,0,0,1-.432-.952,6.138,6.138,0,0,1-.314-1.956A9.163,9.163,0,0,1,447.238,223.282Z" transform="translate(-437.005 -222.593)"/><g transform="translate(17.689 11.412)"><path class="o" d="M479.836,260.66a1.216,1.216,0,0,0,1.573.446c1.542-.784,2.028-3.272.99-4.313-1.568-1.573-2.809.635-2.805,1.295" transform="translate(-479.594 -256.238)"/></g><path class="i" d="M489.932,303.635a36.626,36.626,0,0,1,2.452-14.891c6.074-.13,13.293,2.3,16.967,7.378v7.353Z" transform="translate(-468.709 -266.304)"/><path class="i" d="M437.435,307.581s-.87-8.64,1.5-12.057c-6.413,1.674-11.225,8.513-11.493,11.187S437.435,307.581,437.435,307.581Z" transform="translate(-427.441 -270.787)"/><path class="i" d="M451.323,259.135a.414.414,0,1,0,.291-.507A.414.414,0,0,0,451.323,259.135Z" transform="translate(-443.213 -246.396)"/><path class="i" d="M469.6,255.281a.414.414,0,1,1-.507-.292A.414.414,0,0,1,469.6,255.281Z" transform="translate(-454.764 -243.991)"/><path class="q" d="M469.025,258.161c.684-.869,2.6-.312,2.764.937.143,1.126-1.221,1.7-2.065,1.562a1.378,1.378,0,0,1-1.011-1.042A1.733,1.733,0,0,1,469.025,258.161Z" transform="translate(-454.683 -245.819)"/><path class="q" d="M449.586,262.522a1.342,1.342,0,0,1,2.324.788c.12.947-1.027,1.433-1.737,1.313a1.159,1.159,0,0,1-.85-.876A1.346,1.346,0,0,1,449.586,262.522Z" transform="translate(-441.871 -248.684)"/><path class="l" d="M460.429,271.266l3.194-.92a.173.173,0,0,1,.213.114c.157.485.5,1.945-.814,2.466a2.087,2.087,0,0,1-2.72-1.389A.2.2,0,0,1,460.429,271.266Z" transform="translate(-449.145 -254.144)"/></g></g></g><path class="v" d="M207.811,337.148" transform="translate(-99.793 -185.692)"/><path class="v" d="M207.811,337.148" transform="translate(-99.793 -185.692)"/><g transform="translate(169.674 164.779)"><path class="m" d="M384.02,374.431h12.4a3.674,3.674,0,0,1,3.674,3.674v4.244a3.674,3.674,0,0,1-3.674,3.674H382.435l-2.089,2.007V378.1A3.674,3.674,0,0,1,384.02,374.431Z" transform="translate(-380.346 -374.431)"/><g transform="translate(4.377 4.782)"><path class="n" d="M393.307,387.814a.73.73,0,0,1,.75.775.717.717,0,0,1-.726.774.734.734,0,0,1-.739-.774A.722.722,0,0,1,393.307,387.814Z" transform="translate(-392.593 -387.814)"/><path class="n" d="M406.642,387.814a.73.73,0,0,1,.751.775.718.718,0,0,1-.726.774.734.734,0,0,1-.738-.774A.722.722,0,0,1,406.642,387.814Z" transform="translate(-401.163 -387.814)"/><path class="n" d="M419.974,387.814a.73.73,0,0,1,.751.775.718.718,0,0,1-.726.774.734.734,0,0,1-.739-.774A.723.723,0,0,1,419.974,387.814Z" transform="translate(-409.73 -387.814)"/></g></g><g transform="translate(147.449 82.173)"><g transform="translate(0)"><path class="w" d="M316.288,168.194h12.4a3.674,3.674,0,0,1,3.674,3.674v4.244a3.674,3.674,0,0,1-3.674,3.674H314.7l-2.089,2.007v-9.925A3.674,3.674,0,0,1,316.288,168.194Z" transform="translate(-312.614 -168.194)"/><g transform="translate(4.377 4.782)"><path class="x" d="M325.575,181.577a.73.73,0,0,1,.75.775.717.717,0,0,1-.726.774.734.734,0,0,1-.739-.774A.722.722,0,0,1,325.575,181.577Z" transform="translate(-324.861 -181.577)"/><path class="x" d="M338.91,181.577a.73.73,0,0,1,.751.775.718.718,0,0,1-.726.774.734.734,0,0,1-.738-.774A.722.722,0,0,1,338.91,181.577Z" transform="translate(-333.431 -181.577)"/><path class="x" d="M352.242,181.577a.73.73,0,0,1,.751.775.718.718,0,0,1-.726.774.734.734,0,0,1-.739-.774A.723.723,0,0,1,352.242,181.577Z" transform="translate(-341.998 -181.577)"/></g></g></g><g transform="translate(169.866 124.196)"><path class="m" d="M396.955,248.819h-12.4a3.674,3.674,0,0,0-3.674,3.674v4.244a3.674,3.674,0,0,0,3.674,3.674H398.54l2.089,2.008v-9.926A3.674,3.674,0,0,0,396.955,248.819Z" transform="translate(-380.882 -248.819)"/><g transform="translate(4.377 4.782)"><path class="n" d="M421.26,262.977a.734.734,0,0,1-.738.775.718.718,0,0,1-.726-.775.73.73,0,0,1,.75-.775A.722.722,0,0,1,421.26,262.977Z" transform="translate(-410.266 -262.202)"/><path class="n" d="M407.926,262.977a.734.734,0,0,1-.739.775.718.718,0,0,1-.726-.775.73.73,0,0,1,.75-.775A.722.722,0,0,1,407.926,262.977Z" transform="translate(-401.697 -262.202)"/><path class="n" d="M394.593,262.977a.734.734,0,0,1-.739.775.718.718,0,0,1-.726-.775.73.73,0,0,1,.75-.775A.722.722,0,0,1,394.593,262.977Z" transform="translate(-393.129 -262.202)"/></g></g><path class="v" d="M729.316,491.6" transform="translate(-434.936 -284.947)"/><g transform="translate(57.537 161.449)"><path class="y" d="M83.076,432.272a2.066,2.066,0,0,0-.022-2.231c-.381-.69-.967-1.245-1.4-1.905a9.75,9.75,0,0,1-1.174-3.338,10.883,10.883,0,0,0-1.111-3.363,3.552,3.552,0,0,0-2.854-1.858,3.388,3.388,0,0,0-3.071,3.186,6.821,6.821,0,0,0,1.567,4.491c1.782,2.434,3.5,4.806,8.064,5.018" transform="translate(-65.803 -396.67)"/><path class="z" d="M94.9,453.036a30.418,30.418,0,0,0-1.571-8.957c-1.426-4.082-3.9-7.234-6.555-10.562-1.992-2.494-4.016-5.167-4.56-8.4" transform="translate(-71.45 -400.234)"/><path class="aa" d="M99.493,401.942c3.032-.931,3.371-4.864,3.615-7.306a67.218,67.218,0,0,0,.561-11.78c-.408-5.3-2.96-10.771-8.505-12.589a11.051,11.051,0,0,0-5.055-.661,4.591,4.591,0,0,0-3.8,2.826,1.561,1.561,0,0,0,.011,1.1,2.552,2.552,0,0,0,1,.932,15.557,15.557,0,0,1,6.951,10.912c.371,3.061-.252,6.167.074,9.232s1.975,6.357,5.148,7.334" transform="translate(-74.018 -364.503)"/><path class="ab" d="M82.4,387.25a5.2,5.2,0,0,1-3.989-3.306c-1.72-3.822-1.394-8.216-3.825-11.764-1.263-1.844-2.981-3.331-4.342-5.1-1.924-2.506-2.869-6.066-1.393-9,2.227-4.42,6.942-2.416,9.8.16,3.963,3.567,7.232,8.768,8.14,13.84.6,3.331,1.517,11.678-4.395,15.17" transform="translate(-62.398 -355.476)"/><path class="aa" d="M114.452,437.09c5.324-.813,4.458-5.633,5.475-7.5,1.787-3.282,1.353-7.334,2.934-10.714,1.111-2.375,2.837-4,5.376-4.246-1.232-.638-10.5.043-12.267,1.526a10.335,10.335,0,0,0-3.5,5.893c-.733,2.808-3.379,13.227,1.987,15.042" transform="translate(-90.055 -393.337)"/><path class="z" d="M131.8,414.882c-7.2.7-10.185,7.27-11.04,14.6a113.985,113.985,0,0,0-.157,16.978" transform="translate(-95.967 -393.653)"/><path class="z" d="M78.73,366.675c2.5,0,5.62,4.11,6.73,7.007,2.261,5.9,3.1,12.261,3.631,18.521.673,7.9,1.036,15.343,1.089,23.272" transform="translate(-69.211 -362.673)"/><path class="y" d="M61.355,466.406a18.284,18.284,0,0,0-6.367.926,7.818,7.818,0,0,0-2.571,3.287,4.608,4.608,0,0,0,.988,4.965,5.169,5.169,0,0,0,3.811,1.113,4.118,4.118,0,0,0,1.9-.511c1.449-.882,1.785-2.834,2.6-4.345a6.544,6.544,0,0,1,5.678-3.4" transform="translate(-52.093 -426.753)"/><path class="z" d="M62.916,471.971c.072-2.623.451-4.673,2.7-6.334a7.35,7.35,0,0,1,3.266-1.325" transform="translate(-59.048 -425.408)"/><path class="y" d="M60.194,464.369a10.047,10.047,0,0,1,8.89,3.1c1.072,1.124,2.1,2.573,3.628,2.71,1.577.142,3.568.288,3.624-3.019.042-2.51-1.474-3.155-2.807-4.033a9.418,9.418,0,0,0-4.522-1.314c-1.849-.14-6.343-.007-8.813,2.553" transform="translate(-57.299 -423.79)"/><path class="z" d="M70.64,462.97c5.631,0,9.79,4.169,10.7,7.069a20.386,20.386,0,0,1,1.093,7.32" transform="translate(-64.012 -424.556)"/><path class="ab" d="M144.1,401.371c4.266.948,6.825-3.793,9.637-6.666,3.158-3.227,6.961-3.358,10.422-5.73.954-.654,1.859-1.928,1.458-3.144a2.683,2.683,0,0,0-2.459-1.524,23.513,23.513,0,0,0-9.382.451c-4.248,1.176-9.031,2.445-11.134,7.126-.9,2.006-1.664,8.4,1.458,9.487" transform="translate(-109.777 -373.835)"/><path class="z" d="M159.579,388.547c-10.668.757-17.389,9.185-20.3,18.8a102.3,102.3,0,0,0-3.724,22.184" transform="translate(-105.727 -376.729)"/><path class="ac" d="M87.713,503.235h23.343l-5.986,35.3H93.7Z" transform="translate(-74.979 -450.432)"/></g><g class="ad" transform="translate(270.898 119.892)"><circle class="ag" cx="4.735" cy="4.735" r="4.735"/><circle class="b" cx="4.735" cy="4.735" r="3.985"/></g><g class="ae" transform="translate(181.363 237.837)"><circle class="ag" cx="2.798" cy="2.798" r="2.798"/><circle class="b" cx="2.798" cy="2.798" r="2.298"/></g><line class="ad" x2="40.832" transform="translate(174.542 254.321)"/><line class="ad" x2="34.638" transform="translate(157.975 262.037)"/><g class="m" transform="translate(227.195 109.82) rotate(90)"><rect class="ag" width="35.608" height="61.761" rx="2"/><rect class="b" x="0.75" y="0.75" width="34.108" height="60.261" rx="1.25"/></g><g transform="translate(116.812 97.16)"><rect class="e" width="28.785" height="41.384" rx="7.504" transform="translate(0 0)"/><g transform="translate(1.423 2.794)"><g class="af" transform="translate(0 0)"><g transform="translate(-10.766 4.658)"><path class="i" d="M248.953,311.247s-4.427-7.469-8.979-10.009c-4.7-2.621-24.846-5.652-29.557,1.884s-4.121,10.951-4.121,10.951Z" transform="translate(-206.272 -274.413)"/><path class="j" d="M262.422,282.933l-.271,5.781s-1.04,1.326-4.027.877c-3.8-.57-4.49-2.432-4.49-2.432l2.607-7.85" transform="translate(-236.709 -262.17)"/><path class="j" d="M254.008,245.643a8.7,8.7,0,0,1,.742-1.822,7.393,7.393,0,0,1,5.2-3.8,4.407,4.407,0,0,1,3.207.622c1.32.938,2.01,2.743,2.634,4.173,1.142,2.617,2.446,5.7,2.291,8.606a4.8,4.8,0,0,1-.987,2.811,5.229,5.229,0,0,1-2.488,1.536,7.763,7.763,0,0,1-8.657-2.562,10.475,10.475,0,0,1-2.157-4.9A10.673,10.673,0,0,1,254.008,245.643Z" transform="translate(-236.709 -236.878)"/><path class="i" d="M242.438,247.137c.894,1.5,4.046,4.066,5.541,2.771.324-.281-.353-1.855-.453-2.166-.331-1.034-.9-2.022-.166-3,1.6-2.122,3.185-4.477,3.231-7.132a25.3,25.3,0,0,0,3.286.444,4.689,4.689,0,0,0,3.114-.924,2.631,2.631,0,0,0,.841-2.973,3.123,3.123,0,0,0-.941-1.116,1.174,1.174,0,0,0-.4-.231c-.532-.151-1,.386-1.547.5a1.444,1.444,0,0,0-.869-1.889,2.787,2.787,0,0,0-1.087-.029,28.846,28.846,0,0,0-3.672.549,11.894,11.894,0,0,0-6.173,3.551A9.852,9.852,0,0,0,242.438,247.137Z" transform="translate(-228.509 -231.348)"/><path class="i" d="M271.144,265.259a.333.333,0,1,1-.471.015A.334.334,0,0,1,271.144,265.259Z" transform="translate(-247.601 -253.083)"/><path class="i" d="M285.523,260.074a.333.333,0,1,1-.471.016A.333.333,0,0,1,285.523,260.074Z" transform="translate(-256.842 -249.751)"/><path class="q" d="M268,272.114a1.38,1.38,0,0,1,2.292-.53c.576.711-.114,1.686-.753,1.946a1.111,1.111,0,0,1-1.135-.285A1.4,1.4,0,0,1,268,272.114Z" transform="translate(-245.939 -256.94)"/><path class="q" d="M287.082,263.956a1.009,1.009,0,0,1,1.759-.483,1.138,1.138,0,0,1-.41,1.725.974.974,0,0,1-1-.25A1.225,1.225,0,0,1,287.082,263.956Z" transform="translate(-258.2 -251.764)"/><path class="l" d="M279.005,277.445a6.317,6.317,0,0,1-3.326.355.34.34,0,0,0-.348.116c-.4.813.274,2.211,2.074,2.053,1.593-.14,2.658-1.145,1.962-2.48C279.324,277.4,279.138,277.382,279.005,277.445Z" transform="translate(-250.581 -260.949)"/><g transform="translate(17.251 14.541)"><path class="j" d="M256.411,272.149a1.346,1.346,0,0,0-1.781.754,1.777,1.777,0,0,0-.066.817,2.981,2.981,0,0,0,2.283,2.517c1.134.133,1.924-.544,1.819-1.467" transform="translate(-254.545 -272.038)"/></g></g></g></g><g class="m" transform="translate(0 0)"><rect class="ag" width="28.785" height="41.384" rx="5"/><rect class="b" x="0.75" y="0.75" width="27.285" height="39.884" rx="4.25"/></g></g></g></svg>