<svg xmlns="http://www.w3.org/2000/svg" xmlns:xlink="http://www.w3.org/1999/xlink" width="193.718" height="53.396" viewBox="0 0 193.718 53.396"><defs><style>.a{fill:url(#a);}.b{fill:#fff;}.c{isolation:isolate;}.d{fill:#182024;}.e{fill:#808486;}</style><linearGradient id="a" x1="1.652" y1="3.338" x2="1.659" y2="3.332" gradientUnits="objectBoundingBox"><stop offset="0" stop-color="#01bdf4"/><stop offset="1" stop-color="#009dff"/></linearGradient></defs><g transform="translate(-58.518 -164.814)"><g transform="translate(58.518 164.814)"><path class="a" d="M102.541,184.458a8.255,8.255,0,0,1,4.059,6.816,7.987,7.987,0,0,1-4.059,7.333L70.834,217.1a8.249,8.249,0,0,1-8.55-.182,7.962,7.962,0,0,1-3.765-6.891V173.04a8.248,8.248,0,0,1,3.5-6.715,8.011,8.011,0,0,1,8.811-.365Z" transform="translate(-58.518 -164.814)"/><circle class="b" cx="5.147" cy="5.147" r="5.147" transform="translate(8.234 8.125)"/></g><g class="c" transform="translate(115.817 172.524)"><g class="c" transform="translate(0 0)"><path class="d" d="M157.318,176.048v2.484h-12.36v7.05h11.521v2.484H144.958v7.671h12.453v2.484h-15.4V176.048Z" transform="translate(-142.008 -176.048)"/><path class="d" d="M171.8,184.792v2.174h.062a3.955,3.955,0,0,1,2.049-1.942,7.665,7.665,0,0,1,3.075-.605,7.25,7.25,0,0,1,3.246.684,6.612,6.612,0,0,1,2.3,1.848,8.191,8.191,0,0,1,1.382,2.686,10.942,10.942,0,0,1,.465,3.23,11.337,11.337,0,0,1-.45,3.23,7.629,7.629,0,0,1-1.366,2.655,6.439,6.439,0,0,1-2.3,1.786,7.454,7.454,0,0,1-3.215.652,7.975,7.975,0,0,1-1.32-.124,7.373,7.373,0,0,1-1.444-.4,5.611,5.611,0,0,1-1.351-.76,4.245,4.245,0,0,1-1.071-1.2H171.8v8.26h-2.64V184.792Zm9.487,5.7a5.888,5.888,0,0,0-.9-1.909,4.41,4.41,0,0,0-1.552-1.336,4.721,4.721,0,0,0-2.22-.5,4.357,4.357,0,0,0-3.788,1.909,5.77,5.77,0,0,0-.854,1.941,9.331,9.331,0,0,0-.264,2.205,9.23,9.23,0,0,0,.279,2.283,5.641,5.641,0,0,0,.885,1.941,4.513,4.513,0,0,0,1.569,1.351,4.892,4.892,0,0,0,2.329.513,4.513,4.513,0,0,0,2.283-.528,4.245,4.245,0,0,0,1.476-1.4,6.091,6.091,0,0,0,.807-1.987,10.619,10.619,0,0,0,.248-2.3A8.2,8.2,0,0,0,181.283,190.49Z" transform="translate(-150.525 -178.674)"/><path class="d" d="M196.079,179.278v-3.23h2.64v3.23Zm2.64,2.888v16.055h-2.64V182.166Z" transform="translate(-158.97 -176.048)"/><path class="d" d="M215.1,187.586a4.01,4.01,0,0,0-2.671-.838,4.919,4.919,0,0,0-2.391.528,4.255,4.255,0,0,0-1.537,1.4,5.88,5.88,0,0,0-.824,2,10.89,10.89,0,0,0-.248,2.344,8.9,8.9,0,0,0,.264,2.173,5.816,5.816,0,0,0,.823,1.879,4.161,4.161,0,0,0,1.46,1.32,4.365,4.365,0,0,0,2.143.5,4.321,4.321,0,0,0,3.059-1.025,4.632,4.632,0,0,0,1.351-2.888h2.7a7.4,7.4,0,0,1-2.22,4.6,6.976,6.976,0,0,1-4.86,1.614,8.374,8.374,0,0,1-3.245-.59,6.276,6.276,0,0,1-2.36-1.677,7.237,7.237,0,0,1-1.429-2.593,10.808,10.808,0,0,1-.481-3.307,11.767,11.767,0,0,1,.466-3.369,7.789,7.789,0,0,1,1.412-2.733,6.628,6.628,0,0,1,2.376-1.832,7.775,7.775,0,0,1,3.323-.668,9.72,9.72,0,0,1,2.561.326,6.255,6.255,0,0,1,2.112,1.01,5.516,5.516,0,0,1,1.506,1.723,6.363,6.363,0,0,1,.745,2.469H216.4A4.025,4.025,0,0,0,215.1,187.586Z" transform="translate(-161.653 -178.674)"/><path class="d" d="M247.536,176.048l6.987,18.632,7.018-18.632h4.038v22.173h-2.8V179.775h-.062L255.8,198.221h-2.515l-6.925-18.446h-.062v18.446H243.5V176.048Z" transform="translate(-173.845 -176.048)"/><path class="d" d="M293.153,199.822a7.285,7.285,0,0,1-4.534,1.366,8.251,8.251,0,0,1-3.339-.621,6.58,6.58,0,0,1-2.376-1.738,7.4,7.4,0,0,1-1.443-2.671,12.876,12.876,0,0,1-.544-3.385,9.666,9.666,0,0,1,.559-3.354,8.018,8.018,0,0,1,1.569-2.639,7.108,7.108,0,0,1,2.391-1.739,7.3,7.3,0,0,1,3.027-.621,6.588,6.588,0,0,1,3.556.885,7.038,7.038,0,0,1,2.266,2.251,8.907,8.907,0,0,1,1.18,2.981,12.79,12.79,0,0,1,.264,3.075H283.713a6.36,6.36,0,0,0,.249,2,4.512,4.512,0,0,0,.9,1.677,4.425,4.425,0,0,0,1.584,1.165,5.456,5.456,0,0,0,2.266.435,4.571,4.571,0,0,0,2.749-.776,3.757,3.757,0,0,0,1.413-2.36h2.609A6.421,6.421,0,0,1,293.153,199.822Zm-.637-10.31a4.53,4.53,0,0,0-.962-1.444,4.586,4.586,0,0,0-1.429-.963,4.529,4.529,0,0,0-1.817-.357,4.6,4.6,0,0,0-1.848.357,4.255,4.255,0,0,0-1.412.978,4.679,4.679,0,0,0-.933,1.444,5.513,5.513,0,0,0-.4,1.755h9.223A5.409,5.409,0,0,0,292.517,189.512Z" transform="translate(-185.584 -178.674)"/><path class="d" d="M317.451,199.822a7.286,7.286,0,0,1-4.534,1.366,8.247,8.247,0,0,1-3.338-.621,6.58,6.58,0,0,1-2.376-1.738,7.394,7.394,0,0,1-1.443-2.671,12.844,12.844,0,0,1-.544-3.385,9.667,9.667,0,0,1,.559-3.354,8.028,8.028,0,0,1,1.568-2.639,7.116,7.116,0,0,1,2.392-1.739,7.3,7.3,0,0,1,3.027-.621,6.588,6.588,0,0,1,3.557.885,7.04,7.04,0,0,1,2.266,2.251,8.922,8.922,0,0,1,1.18,2.981,12.857,12.857,0,0,1,.264,3.075H308.011a6.381,6.381,0,0,0,.248,2,4.514,4.514,0,0,0,.9,1.677,4.419,4.419,0,0,0,1.584,1.165,5.456,5.456,0,0,0,2.266.435,4.571,4.571,0,0,0,2.749-.776,3.757,3.757,0,0,0,1.413-2.36h2.608A6.417,6.417,0,0,1,317.451,199.822Zm-.637-10.31a4.527,4.527,0,0,0-.962-1.444,4.586,4.586,0,0,0-1.429-.963,4.528,4.528,0,0,0-1.817-.357,4.6,4.6,0,0,0-1.848.357,4.265,4.265,0,0,0-1.413.978,4.691,4.691,0,0,0-.932,1.444,5.512,5.512,0,0,0-.4,1.755h9.223A5.408,5.408,0,0,0,316.815,189.512Z" transform="translate(-193.206 -178.674)"/><path class="d" d="M336.863,182.762v2.329h-3.2v9.969a2.856,2.856,0,0,0,.078.745.764.764,0,0,0,.3.435,1.3,1.3,0,0,0,.605.2,8.674,8.674,0,0,0,1.01.047h1.211v2.329h-2.018a9.458,9.458,0,0,1-1.755-.14,2.579,2.579,0,0,1-1.18-.513,2.184,2.184,0,0,1-.667-1.056,6.074,6.074,0,0,1-.218-1.8V185.091h-2.732v-2.329h2.732v-4.813h2.64v4.813Z" transform="translate(-200.445 -176.644)"/></g></g><g class="c" transform="translate(113.395 204.979)"><g class="c" transform="translate(0 0)"><path class="e" d="M140.86,231.025l-2.381-7.431h.968l1.935,6.442h.019l1.954-6.442h.94l-2.41,7.431Z" transform="translate(-138.479 -223.418)"/><path class="e" d="M153.105,223.594v7.431h-.9v-7.431Z" transform="translate(-142.785 -223.418)"/><path class="e" d="M162.2,223.594a3.2,3.2,0,0,1,2.41.874,3.705,3.705,0,0,1,.844,2.664,6.579,6.579,0,0,1-.189,1.66,3.2,3.2,0,0,1-.588,1.217,2.557,2.557,0,0,1-1.015.755,3.751,3.751,0,0,1-1.461.259h-2.324v-7.431Zm.076,6.6a3.506,3.506,0,0,0,.38-.026,1.97,1.97,0,0,0,.484-.126,2.1,2.1,0,0,0,.507-.286,1.793,1.793,0,0,0,.451-.51,2.993,2.993,0,0,0,.327-.806,4.613,4.613,0,0,0,.128-1.171,5.489,5.489,0,0,0-.118-1.191,2.4,2.4,0,0,0-.389-.895,1.728,1.728,0,0,0-.7-.562,2.56,2.56,0,0,0-1.053-.192h-1.517v5.766Z" transform="translate(-145.191 -223.418)"/><path class="e" d="M178.429,223.594v.833h-3.776v2.362h3.519v.832h-3.519v2.571h3.8v.832h-4.705v-7.431Z" transform="translate(-149.544 -223.418)"/><path class="e" d="M186,225.767a3.827,3.827,0,0,1,.612-1.244,3.036,3.036,0,0,1,1.016-.863,3.257,3.257,0,0,1,2.826,0,3.05,3.05,0,0,1,1.016.863,3.826,3.826,0,0,1,.611,1.244,5.344,5.344,0,0,1,0,2.924,3.825,3.825,0,0,1-.611,1.244,3.05,3.05,0,0,1-4.858,0,3.826,3.826,0,0,1-.612-1.244,5.362,5.362,0,0,1,0-2.924Zm.83,2.57a3.159,3.159,0,0,0,.417.984,2.222,2.222,0,0,0,.731.7,2.263,2.263,0,0,0,2.125,0,2.213,2.213,0,0,0,.73-.7,3.141,3.141,0,0,0,.417-.984,4.68,4.68,0,0,0,0-2.217,3.134,3.134,0,0,0-.417-.983,2.2,2.2,0,0,0-.73-.7,2.257,2.257,0,0,0-2.125,0,2.212,2.212,0,0,0-.731.7,3.152,3.152,0,0,0-.417.983,4.68,4.68,0,0,0,0,2.217Z" transform="translate(-153.321 -223.337)"/><path class="e" d="M212.927,224.565a1.962,1.962,0,0,0-1.228-.4,2.035,2.035,0,0,0-1.038.25,2.119,2.119,0,0,0-.712.671,3.038,3.038,0,0,0-.412.963,4.693,4.693,0,0,0-.133,1.123,5.261,5.261,0,0,0,.133,1.2,3.018,3.018,0,0,0,.412.988,2.1,2.1,0,0,0,.717.671,2.066,2.066,0,0,0,1.044.25,1.85,1.85,0,0,0,.791-.161,1.794,1.794,0,0,0,.6-.447,2.081,2.081,0,0,0,.393-.681,3.062,3.062,0,0,0,.172-.854h.9a3.534,3.534,0,0,1-.882,2.186,2.712,2.712,0,0,1-2.05.78,3.016,3.016,0,0,1-1.375-.3,2.746,2.746,0,0,1-.977-.817,3.64,3.64,0,0,1-.583-1.228,5.708,5.708,0,0,1-.194-1.52,5.393,5.393,0,0,1,.209-1.524,3.794,3.794,0,0,1,.611-1.244,2.9,2.9,0,0,1,1.005-.838,3,3,0,0,1,1.381-.307,3.193,3.193,0,0,1,1.005.156,2.6,2.6,0,0,1,.844.458,2.525,2.525,0,0,1,.617.755,2.959,2.959,0,0,1,.322,1.046h-.9A1.868,1.868,0,0,0,212.927,224.565Z" transform="translate(-160.445 -223.337)"/><path class="e" d="M222.762,225.767a3.826,3.826,0,0,1,.612-1.244,3.049,3.049,0,0,1,1.016-.863,3.257,3.257,0,0,1,2.826,0,3.04,3.04,0,0,1,1.015.863,3.812,3.812,0,0,1,.612,1.244,5.345,5.345,0,0,1,0,2.924,3.811,3.811,0,0,1-.612,1.244,3.05,3.05,0,0,1-4.857,0,3.825,3.825,0,0,1-.612-1.244,5.362,5.362,0,0,1,0-2.924Zm.83,2.57a3.142,3.142,0,0,0,.417.984,2.213,2.213,0,0,0,.73.7,2.264,2.264,0,0,0,2.125,0,2.2,2.2,0,0,0,.73-.7,3.126,3.126,0,0,0,.418-.984,4.7,4.7,0,0,0,0-2.217,3.12,3.12,0,0,0-.418-.983,2.195,2.195,0,0,0-.73-.7,2.259,2.259,0,0,0-2.125,0,2.2,2.2,0,0,0-.73.7,3.135,3.135,0,0,0-.417.983,4.68,4.68,0,0,0,0,2.217Z" transform="translate(-164.855 -223.337)"/><path class="e" d="M238.707,223.594l3.567,6.026h.019v-6.026h.854v7.431h-.986l-3.538-5.963H238.6v5.963h-.854v-7.431Z" transform="translate(-169.62 -223.418)"/><path class="e" d="M256.337,223.594v.833h-3.548v2.362H255.9v.832h-3.111v3.4h-.9v-7.431Z" transform="translate(-174.055 -223.418)"/><path class="e" d="M268.646,223.594v.833H264.87v2.362h3.519v.832H264.87v2.571h3.8v.832h-4.7v-7.431Z" transform="translate(-177.845 -223.418)"/><path class="e" d="M279.748,223.594a2.1,2.1,0,0,1,1.513.521,1.875,1.875,0,0,1,.546,1.425,2.424,2.424,0,0,1-.28,1.187,1.455,1.455,0,0,1-.9.7v.021a1.157,1.157,0,0,1,.479.208,1.1,1.1,0,0,1,.294.349,1.664,1.664,0,0,1,.162.453q.051.25.08.52t.029.552a5.191,5.191,0,0,0,.047.552,3.667,3.667,0,0,0,.108.515,1.312,1.312,0,0,0,.214.432h-1.005a.647.647,0,0,1-.129-.312,3.5,3.5,0,0,1-.042-.442c-.007-.163-.013-.338-.019-.526a4.064,4.064,0,0,0-.056-.551c-.026-.181-.057-.352-.1-.515a1.267,1.267,0,0,0-.181-.426.911.911,0,0,0-.323-.292,1.106,1.106,0,0,0-.531-.109h-2.2v3.173h-.9v-7.431Zm.189,3.372a1.227,1.227,0,0,0,.5-.2,1.075,1.075,0,0,0,.341-.406,1.466,1.466,0,0,0,.128-.661,1.417,1.417,0,0,0-.284-.916,1.115,1.115,0,0,0-.92-.353h-2.239v2.591h1.878A3.29,3.29,0,0,0,279.938,226.966Z" transform="translate(-181.795 -223.418)"/><path class="e" d="M294.851,223.594v.833h-3.775v2.362H294.6v.832h-3.519v2.571h3.8v.832h-4.7v-7.431Z" transform="translate(-186.065 -223.418)"/><path class="e" d="M303.71,223.594l3.567,6.026h.019v-6.026h.854v7.431h-.986l-3.538-5.963h-.019v5.963h-.854v-7.431Z" transform="translate(-190.011 -223.418)"/><path class="e" d="M320.834,224.565a1.962,1.962,0,0,0-1.228-.4,2.034,2.034,0,0,0-1.038.25,2.106,2.106,0,0,0-.712.671,3.025,3.025,0,0,0-.413.963,4.7,4.7,0,0,0-.132,1.123,5.265,5.265,0,0,0,.132,1.2,3.005,3.005,0,0,0,.413.988,2.09,2.09,0,0,0,.716.671,2.061,2.061,0,0,0,1.043.25,1.848,1.848,0,0,0,.791-.161,1.794,1.794,0,0,0,.6-.447A2.081,2.081,0,0,0,321.4,229a3.089,3.089,0,0,0,.171-.854h.9a3.531,3.531,0,0,1-.882,2.186,2.711,2.711,0,0,1-2.049.78,3.017,3.017,0,0,1-1.375-.3,2.752,2.752,0,0,1-.977-.817,3.64,3.64,0,0,1-.583-1.228,5.708,5.708,0,0,1-.194-1.52,5.39,5.39,0,0,1,.209-1.524,3.793,3.793,0,0,1,.611-1.244,2.9,2.9,0,0,1,1.005-.838,3,3,0,0,1,1.381-.307,3.19,3.19,0,0,1,1.006.156,2.606,2.606,0,0,1,.844.458,2.515,2.515,0,0,1,.617.755,2.972,2.972,0,0,1,.323,1.046h-.9A1.865,1.865,0,0,0,320.834,224.565Z" transform="translate(-194.295 -223.337)"/><path class="e" d="M335.7,223.594v.833H331.92v2.362h3.519v.832H331.92v2.571h3.8v.832h-4.7v-7.431Z" transform="translate(-198.878 -223.418)"/></g></g></g></svg>