<svg id="Component_181_1" data-name="Component 181 – 1" xmlns="http://www.w3.org/2000/svg" xmlns:xlink="http://www.w3.org/1999/xlink" width="214" height="59" viewBox="0 0 214 59">
  <defs>
    <clipPath id="clip-path">
      <path id="Path_577" data-name="Path 577" d="M7.549,12.172a4.726,4.726,0,0,1,4.72-4.72h0a4.72,4.72,0,1,1-4.721,4.72M7.488,0A7.3,7.3,0,0,0,3.21,1.387,7.576,7.576,0,0,0,0,7.544V41.461c0,.026,0,.053,0,.079V41.6a7.312,7.312,0,0,0,3.453,6.179,7.554,7.554,0,0,0,4.054,1.18h0a7.577,7.577,0,0,0,3.783-1.014L40.366,30.987a7.324,7.324,0,0,0,3.722-6.724,7.571,7.571,0,0,0-3.722-6.25L11.289,1.051A7.343,7.343,0,0,0,7.5,0Z" transform="translate(0 0)" fill="none"/>
    </clipPath>
    <linearGradient id="linear-gradient" x1="0.681" y1="0.473" x2="0.093" y2="0.483" gradientUnits="objectBoundingBox">
      <stop offset="0" stop-color="#01bdf4"/>
      <stop offset="1" stop-color="#009dff"/>
    </linearGradient>
  </defs>
  <rect id="Rectangle_218" data-name="Rectangle 218" width="214" height="59" fill="#fff" opacity="0"/>
  <g id="Group_2850" data-name="Group 2850" transform="translate(-100 -93)">
    <g id="Group_2846" data-name="Group 2846" transform="translate(100 98)" clip-path="url(#clip-path)">
      <rect id="Rectangle_215" data-name="Rectangle 215" width="65.595" height="64.56" transform="translate(-23.35 31.84) rotate(-53.746)" fill="url(#linear-gradient)"/>
    </g>
    <g id="Group_2851" data-name="Group 2851" transform="translate(149.522 105.032)">
      <path id="Path_578" data-name="Path 578" d="M195.039,33.168h-7.91l-1.776,4.94h-2.567L190,19.229h2.178L199.4,38.108h-2.554Zm-7.157-2.036H194.3l-3.216-8.83Z" transform="translate(-182.786 -18.97)" fill="#37393a"/>
      <path id="Path_579" data-name="Path 579" d="M268.289,44.665a8.4,8.4,0,0,1-1.465,5.161,4.7,4.7,0,0,1-3.967,1.958,5.145,5.145,0,0,1-4.02-1.621v6.755h-2.4V37.495h2.191l.117,1.556a4.942,4.942,0,0,1,4.072-1.815,4.784,4.784,0,0,1,4,1.906,8.494,8.494,0,0,1,1.472,5.3Zm-2.4-.272a6.2,6.2,0,0,0-1.011-3.747,3.258,3.258,0,0,0-2.775-1.374,3.526,3.526,0,0,0-3.268,1.932v6.7a3.533,3.533,0,0,0,3.294,1.919,3.242,3.242,0,0,0,2.742-1.368,6.765,6.765,0,0,0,1.018-4.065" transform="translate(-237.662 -32.386)" fill="#37393a"/>
      <path id="Path_580" data-name="Path 580" d="M326.732,44.665a8.4,8.4,0,0,1-1.465,5.161,4.7,4.7,0,0,1-3.968,1.958,5.145,5.145,0,0,1-4.02-1.621v6.755h-2.4V37.495h2.191l.117,1.556a4.942,4.942,0,0,1,4.072-1.815,4.784,4.784,0,0,1,4,1.906,8.494,8.494,0,0,1,1.472,5.3Zm-2.4-.272a6.2,6.2,0,0,0-1.011-3.747,3.258,3.258,0,0,0-2.775-1.374A3.526,3.526,0,0,0,317.28,41.2v6.7a3.533,3.533,0,0,0,3.294,1.919,3.242,3.242,0,0,0,2.742-1.368,6.765,6.765,0,0,0,1.018-4.065" transform="translate(-281.207 -32.386)" fill="#37393a"/>
      <path id="Path_581" data-name="Path 581" d="M379.787,47.8a1.766,1.766,0,0,0-.733-1.511,7.051,7.051,0,0,0-2.554-.927,12.079,12.079,0,0,1-2.891-.934,4.111,4.111,0,0,1-1.582-1.3,3.1,3.1,0,0,1-.512-1.79,3.64,3.64,0,0,1,1.459-2.917,5.7,5.7,0,0,1,3.727-1.193,5.864,5.864,0,0,1,3.871,1.232,3.913,3.913,0,0,1,1.484,3.151h-2.412a2.167,2.167,0,0,0-.836-1.7,3.135,3.135,0,0,0-2.107-.713,3.279,3.279,0,0,0-2.049.571,1.8,1.8,0,0,0-.739,1.491,1.455,1.455,0,0,0,.687,1.31,8.439,8.439,0,0,0,2.483.843,12.939,12.939,0,0,1,2.911.96,4.243,4.243,0,0,1,1.653,1.342,3.3,3.3,0,0,1,.538,1.912,3.59,3.59,0,0,1-1.5,3.014,6.308,6.308,0,0,1-3.9,1.135,7.068,7.068,0,0,1-2.982-.6,4.849,4.849,0,0,1-2.029-1.666,4.014,4.014,0,0,1-.733-2.315h2.4a2.482,2.482,0,0,0,.966,1.912,3.745,3.745,0,0,0,2.379.707,3.867,3.867,0,0,0,2.185-.551,1.693,1.693,0,0,0,.823-1.472" transform="translate(-323.046 -32.386)" fill="#37393a"/>
      <path id="Path_582" data-name="Path 582" d="M466.291,31.361a6.946,6.946,0,0,1-2.211,4.622,7.245,7.245,0,0,1-4.947,1.627,6.652,6.652,0,0,1-5.361-2.4,9.651,9.651,0,0,1-2.016-6.418V26.978a10.751,10.751,0,0,1,.94-4.629,7.02,7.02,0,0,1,2.665-3.066,7.419,7.419,0,0,1,3.994-1.07,6.821,6.821,0,0,1,4.823,1.679,7.029,7.029,0,0,1,2.114,4.648h-2.5a5.426,5.426,0,0,0-1.407-3.277,4.257,4.257,0,0,0-3.028-1.015,4.455,4.455,0,0,0-3.741,1.765,8.1,8.1,0,0,0-1.355,5.022v1.83a8.328,8.328,0,0,0,1.284,4.893,4.148,4.148,0,0,0,3.592,1.817,4.791,4.791,0,0,0,3.183-.94,5.22,5.22,0,0,0,1.472-3.274Z" transform="translate(-383.19 -18.213)" fill="#37393a"/>
      <path id="Path_583" data-name="Path 583" d="M518.135,44.38a8.287,8.287,0,0,1,.81-3.708A6.048,6.048,0,0,1,521.2,38.13a6.143,6.143,0,0,1,3.3-.895,5.916,5.916,0,0,1,4.635,1.984,7.633,7.633,0,0,1,1.77,5.277v.168a8.361,8.361,0,0,1-.784,3.676,5.96,5.96,0,0,1-2.243,2.535,6.212,6.212,0,0,1-3.352.908A5.9,5.9,0,0,1,519.9,49.8a7.6,7.6,0,0,1-1.77-5.251Zm2.412.285a6,6,0,0,0,1.083,3.747,3.669,3.669,0,0,0,5.8-.019,6.564,6.564,0,0,0,1.076-4.013,5.991,5.991,0,0,0-1.1-3.741,3.484,3.484,0,0,0-2.911-1.433,3.445,3.445,0,0,0-2.866,1.414,6.514,6.514,0,0,0-1.089,4.045" transform="translate(-432.648 -32.386)" fill="#37393a"/>
      <path id="Path_584" data-name="Path 584" d="M582.306,37.5l.078,1.764a5.112,5.112,0,0,1,4.2-2.023q4.447,0,4.486,5.018v9.271h-2.4V42.241A3.228,3.228,0,0,0,587.979,40a2.781,2.781,0,0,0-2.12-.726,3.461,3.461,0,0,0-2.049.623,4.224,4.224,0,0,0-1.374,1.634v10h-2.4V37.5Z" transform="translate(-478.769 -32.387)" fill="#37393a"/>
      <path id="Path_585" data-name="Path 585" d="M639.783,37.5l.078,1.764a5.112,5.112,0,0,1,4.2-2.023q4.447,0,4.486,5.018v9.271h-2.4V42.241A3.229,3.229,0,0,0,645.456,40a2.781,2.781,0,0,0-2.12-.726,3.461,3.461,0,0,0-2.048.623,4.222,4.222,0,0,0-1.374,1.634v10h-2.4V37.5Z" transform="translate(-521.594 -32.387)" fill="#37393a"/>
      <path id="Path_586" data-name="Path 586" d="M699.031,51.784a6.128,6.128,0,0,1-4.642-1.874A6.953,6.953,0,0,1,692.6,44.9v-.441a8.423,8.423,0,0,1,.8-3.728,6.224,6.224,0,0,1,2.23-2.567,5.61,5.61,0,0,1,3.105-.927,5.255,5.255,0,0,1,4.253,1.8A7.8,7.8,0,0,1,704.5,44.2v1H695a4.984,4.984,0,0,0,1.212,3.352,3.811,3.811,0,0,0,2.95,1.277,4.177,4.177,0,0,0,2.153-.519,5.409,5.409,0,0,0,1.543-1.374l1.465,1.141a5.892,5.892,0,0,1-5.29,2.71m-.3-12.578a3.2,3.2,0,0,0-2.438,1.057,5.131,5.131,0,0,0-1.219,2.963H702.1v-.182a4.572,4.572,0,0,0-.985-2.833,3.014,3.014,0,0,0-2.386-1" transform="translate(-562.638 -32.386)" fill="#37393a"/>
      <path id="Path_587" data-name="Path 587" d="M753.985,49.826a3.454,3.454,0,0,0,2.243-.778,2.738,2.738,0,0,0,1.063-1.945h2.269a4.35,4.35,0,0,1-.83,2.3,5.466,5.466,0,0,1-2.042,1.738,5.894,5.894,0,0,1-2.7.648,5.779,5.779,0,0,1-4.558-1.912,7.618,7.618,0,0,1-1.692-5.232v-.4a8.446,8.446,0,0,1,.752-3.643,5.727,5.727,0,0,1,2.159-2.477,6.133,6.133,0,0,1,3.326-.882,5.628,5.628,0,0,1,3.922,1.414,5.052,5.052,0,0,1,1.666,3.669h-2.269a3.308,3.308,0,0,0-1.031-2.237,3.208,3.208,0,0,0-2.289-.875,3.357,3.357,0,0,0-2.833,1.316,6.18,6.18,0,0,0-1.005,3.806v.454a6.054,6.054,0,0,0,1,3.734,3.372,3.372,0,0,0,2.853,1.31" transform="translate(-603.718 -32.386)" fill="#37393a"/>
      <path id="Path_588" data-name="Path 588" d="M802.994,24.926v3.4h2.619v1.854h-2.619v8.711a1.949,1.949,0,0,0,.35,1.266,1.474,1.474,0,0,0,1.193.422,5.808,5.808,0,0,0,1.141-.156v1.934a7,7,0,0,1-1.841.258,2.988,2.988,0,0,1-2.425-.972,4.179,4.179,0,0,1-.817-2.762v-8.7h-2.554V28.323H800.6v-3.4Z" transform="translate(-641.2 -23.215)" fill="#37393a"/>
      <path id="Path_589" data-name="Path 589" d="M186.729,134.452h-2.754v2.9h-1.189v-6.843h4.347v.959h-3.158V133.5h2.754Z" transform="translate(-182.786 -101.883)" fill="#66686a"/>
      <path id="Path_590" data-name="Path 590" d="M219.682,133.834a4.194,4.194,0,0,1-.348,1.765,2.628,2.628,0,0,1-.994,1.166,2.915,2.915,0,0,1-2.97,0,2.668,2.668,0,0,1-1.006-1.158,4.065,4.065,0,0,1-.359-1.734v-.385a4.162,4.162,0,0,1,.355-1.767,2.667,2.667,0,0,1,1-1.173,2.921,2.921,0,0,1,2.965,0,2.636,2.636,0,0,1,1,1.156,4.155,4.155,0,0,1,.357,1.755Zm-1.189-.357a2.99,2.99,0,0,0-.43-1.744,1.517,1.517,0,0,0-2.425,0,2.932,2.932,0,0,0-.444,1.708v.395a2.966,2.966,0,0,0,.439,1.743,1.414,1.414,0,0,0,1.22.616,1.4,1.4,0,0,0,1.215-.6,3.034,3.034,0,0,0,.425-1.758Z" transform="translate(-206.047 -101.607)" fill="#66686a"/>
      <path id="Path_591" data-name="Path 591" d="M254.763,134.72h-1.325v2.632h-1.189v-6.843h2.406a2.8,2.8,0,0,1,1.828.531,1.881,1.881,0,0,1,.644,1.538,1.925,1.925,0,0,1-.331,1.15,2.108,2.108,0,0,1-.924.713l1.537,2.849v.061h-1.274Zm-1.325-.958h1.222a1.358,1.358,0,0,0,.94-.3,1.058,1.058,0,0,0,.338-.83,1.127,1.127,0,0,0-.312-.851,1.328,1.328,0,0,0-.933-.31h-1.255Z" transform="translate(-234.541 -101.882)" fill="#66686a"/>
      <path id="Path_592" data-name="Path 592" d="M308.49,135.862l1.739-5.353h1.306l-2.463,6.843h-1.151l-2.453-6.843h1.3Z" transform="translate(-274.194 -101.883)" fill="#66686a"/>
      <rect id="Rectangle_216" data-name="Rectangle 216" width="1.184" height="6.843" transform="translate(41.07 28.627)" fill="#66686a"/>
      <path id="Path_593" data-name="Path 593" d="M365.6,137.353V130.51h2.021a3.173,3.173,0,0,1,1.61.4,2.756,2.756,0,0,1,1.088,1.147,3.642,3.642,0,0,1,.385,1.7v.343a3.624,3.624,0,0,1-.388,1.711,2.723,2.723,0,0,1-1.1,1.137,3.314,3.314,0,0,1-1.642.4Zm1.189-5.884V136.4h.775a1.787,1.787,0,0,0,1.436-.585,2.548,2.548,0,0,0,.51-1.68v-.381a2.616,2.616,0,0,0-.484-1.7,1.716,1.716,0,0,0-1.405-.588Z" transform="translate(-318.998 -101.883)" fill="#66686a"/>
      <path id="Path_594" data-name="Path 594" d="M405.594,134.3h-2.81V136.4h3.285v.949h-4.474v-6.843h4.441v.959h-3.252v1.889h2.81Z" transform="translate(-345.816 -101.883)" fill="#66686a"/>
      <path id="Path_595" data-name="Path 595" d="M439.1,133.834a4.194,4.194,0,0,1-.348,1.765,2.629,2.629,0,0,1-.994,1.166,2.916,2.916,0,0,1-2.97,0,2.669,2.669,0,0,1-1.006-1.158,4.065,4.065,0,0,1-.359-1.734v-.385a4.161,4.161,0,0,1,.355-1.767,2.667,2.667,0,0,1,1-1.173,2.921,2.921,0,0,1,2.965,0,2.636,2.636,0,0,1,1,1.156,4.154,4.154,0,0,1,.357,1.755Zm-1.189-.357a2.99,2.99,0,0,0-.43-1.744,1.517,1.517,0,0,0-2.425,0,2.932,2.932,0,0,0-.444,1.708v.395a2.966,2.966,0,0,0,.439,1.743,1.414,1.414,0,0,0,1.22.616,1.4,1.4,0,0,0,1.215-.6,3.034,3.034,0,0,0,.425-1.758Z" transform="translate(-369.529 -101.607)" fill="#66686a"/>
      <path id="Path_596" data-name="Path 596" d="M496.983,134.85a2.47,2.47,0,0,1-.808,1.708,2.756,2.756,0,0,1-1.875.613,2.668,2.668,0,0,1-1.441-.388,2.549,2.549,0,0,1-.961-1.1,3.977,3.977,0,0,1-.352-1.659v-.639a4.012,4.012,0,0,1,.343-1.706,2.588,2.588,0,0,1,.985-1.137,2.746,2.746,0,0,1,1.483-.4,2.645,2.645,0,0,1,1.824.613,2.563,2.563,0,0,1,.8,1.737H495.8a1.69,1.69,0,0,0-.43-1.065,1.421,1.421,0,0,0-1.013-.327,1.389,1.389,0,0,0-1.191.567,2.831,2.831,0,0,0-.425,1.663v.607a3.005,3.005,0,0,0,.4,1.693,1.318,1.318,0,0,0,1.163.583,1.536,1.536,0,0,0,1.053-.315,1.641,1.641,0,0,0,.447-1.048Z" transform="translate(-412.836 -101.608)" fill="#66686a"/>
      <path id="Path_597" data-name="Path 597" d="M533.2,133.834a4.2,4.2,0,0,1-.348,1.765,2.629,2.629,0,0,1-.994,1.166,2.915,2.915,0,0,1-2.97,0,2.669,2.669,0,0,1-1.006-1.158,4.066,4.066,0,0,1-.359-1.734v-.385a4.161,4.161,0,0,1,.355-1.767,2.667,2.667,0,0,1,1-1.173,2.921,2.921,0,0,1,2.965,0,2.636,2.636,0,0,1,1,1.156,4.157,4.157,0,0,1,.357,1.755Zm-1.189-.357a2.99,2.99,0,0,0-.43-1.744,1.518,1.518,0,0,0-2.425,0,2.933,2.933,0,0,0-.444,1.708v.395a2.966,2.966,0,0,0,.439,1.743,1.414,1.414,0,0,0,1.22.616,1.4,1.4,0,0,0,1.215-.6,3.034,3.034,0,0,0,.425-1.758Z" transform="translate(-439.64 -101.607)" fill="#66686a"/>
      <path id="Path_598" data-name="Path 598" d="M571.19,137.352H570l-3.05-4.855v4.855h-1.189V130.51h1.189l3.06,4.873V130.51h1.18Z" transform="translate(-468.134 -101.883)" fill="#66686a"/>
      <path id="Path_599" data-name="Path 599" d="M607.837,134.452h-2.754v2.9h-1.189v-6.843h4.347v.959h-3.158V133.5h2.754Z" transform="translate(-496.545 -101.883)" fill="#66686a"/>
      <path id="Path_600" data-name="Path 600" d="M639.961,134.3h-2.81V136.4h3.285v.949h-4.474v-6.843H640.4v.959h-3.252v1.889h2.81Z" transform="translate(-520.438 -101.883)" fill="#66686a"/>
      <path id="Path_601" data-name="Path 601" d="M671.151,134.72h-1.325v2.632h-1.189v-6.843h2.406a2.8,2.8,0,0,1,1.828.531,1.881,1.881,0,0,1,.644,1.538,1.925,1.925,0,0,1-.331,1.15,2.107,2.107,0,0,1-.923.713l1.537,2.849v.061h-1.274Zm-1.325-.958h1.222a1.358,1.358,0,0,0,.94-.3,1.057,1.057,0,0,0,.338-.83,1.126,1.126,0,0,0-.312-.851,1.328,1.328,0,0,0-.933-.31h-1.255Z" transform="translate(-544.784 -101.882)" fill="#66686a"/>
      <path id="Path_602" data-name="Path 602" d="M707.523,134.3h-2.81V136.4H708v.949h-4.474v-6.843h4.441v.959h-3.252v1.889h2.81Z" transform="translate(-570.777 -101.883)" fill="#66686a"/>
      <path id="Path_603" data-name="Path 603" d="M741.627,137.352h-1.189l-3.05-4.855v4.855H736.2V130.51h1.189l3.06,4.873V130.51h1.179Z" transform="translate(-595.123 -101.883)" fill="#66686a"/>
      <path id="Path_604" data-name="Path 604" d="M778.92,134.85a2.471,2.471,0,0,1-.808,1.708,2.756,2.756,0,0,1-1.875.613,2.666,2.666,0,0,1-1.44-.388,2.548,2.548,0,0,1-.961-1.1,3.979,3.979,0,0,1-.352-1.659v-.639a4.013,4.013,0,0,1,.343-1.706,2.588,2.588,0,0,1,.985-1.137,2.745,2.745,0,0,1,1.482-.4,2.645,2.645,0,0,1,1.824.613,2.563,2.563,0,0,1,.8,1.737h-1.184a1.691,1.691,0,0,0-.43-1.065,1.421,1.421,0,0,0-1.013-.327,1.388,1.388,0,0,0-1.191.567,2.83,2.83,0,0,0-.425,1.663v.607a3,3,0,0,0,.4,1.693,1.318,1.318,0,0,0,1.163.583,1.535,1.535,0,0,0,1.052-.315,1.64,1.64,0,0,0,.447-1.048Z" transform="translate(-622.902 -101.608)" fill="#66686a"/>
      <path id="Path_605" data-name="Path 605" d="M814.306,134.3H811.5V136.4h3.285v.949h-4.474v-6.843h4.441v.959H811.5v1.889h2.81Z" transform="translate(-650.339 -101.883)" fill="#66686a"/>
    </g>
  </g>
</svg>
