<svg xmlns="http://www.w3.org/2000/svg" width="50" height="50" viewBox="0 0 50 50">
  <g id="Group_3041" data-name="Group 3041" transform="translate(-981 -643)">
    <rect id="Rectangle_811" data-name="Rectangle 811" width="50" height="50" rx="8" transform="translate(981 643)" fill="#efefef" opacity="0"/>
    <g id="Group_3030" data-name="Group 3030" transform="translate(995.615 657.467)">
      <g id="Group_3031" data-name="Group 3031" transform="translate(0 0)">
        <path id="Path_1078" data-name="Path 1078" d="M18.886,1.887A6.687,6.687,0,0,0,9.43,2.03l-.1.111-9.1,9.1a.817.817,0,0,0,.027,1.147.814.814,0,0,0,1.133,0l9.079-9.215a5.092,5.092,0,0,1,3.622-1.648H14.1a4.853,4.853,0,0,1,3.186,8.522L9.176,18.167a3.113,3.113,0,0,1-4.385.16,3.12,3.12,0,0,1-.858-2.165,3.224,3.224,0,0,1,.974-2.274L11.146,7.65a1.179,1.179,0,0,1,.905-.425.946.946,0,0,1,.684.2,1,1,0,0,1,.391.665.955.955,0,0,1,0,.285,1.553,1.553,0,0,1-.411.828L8.505,13.549A.816.816,0,0,0,9.659,14.7L14,10.365a3.532,3.532,0,0,0,.935-2,2.724,2.724,0,0,0-2.609-2.8q-.059,0-.117,0c-.04,0-.079,0-.118,0a2.793,2.793,0,0,0-1.94.913L3.889,12.872A4.891,4.891,0,0,0,2.412,16.31a4.5,4.5,0,0,0,1.335,3.414,4.622,4.622,0,0,0,3.17,1.341,5.094,5.094,0,0,0,3.554-1.476l8.139-8.141a7.685,7.685,0,0,0,2.153-4.82,6.227,6.227,0,0,0-1.877-4.742" transform="translate(0 0)" fill="#939393"/>
      </g>
    </g>
  </g>
</svg>
