<?xml version="1.0" encoding="UTF-8"?>
<svg version="1.1" xmlns="http://www.w3.org/2000/svg" width="128" height="128">
<path d="M0 0 C1 1 1 1 1.53125 3.5703125 C0.71257187 8.85560218 -2.69090226 11.33356859 -6.5 14.875 C-7.21542969 15.56335937 -7.93085937 16.25171875 -8.66796875 16.9609375 C-10.43256007 18.65494516 -12.20957924 20.33338493 -14 22 C-13.2678125 22.72703125 -12.535625 23.4540625 -11.78125 24.203125 C5.09032917 41.16948832 5.09032917 41.16948832 5.625 52 C5.101063 62.61308275 -1.61849334 69.88252857 -9 77 C-21.08363685 87.36257913 -34.8093514 92.39837762 -50.625 92.375 C-52.06999878 92.37584595 -52.06999878 92.37584595 -53.54418945 92.37670898 C-61.59572624 92.25354329 -68.43693085 90.84902302 -76 88 C-77.485 87.505 -77.485 87.505 -79 87 C-79.72533936 87.7724707 -79.72533936 87.7724707 -80.46533203 88.56054688 C-82.66930046 90.88938753 -84.89655226 93.19458284 -87.125 95.5 C-88.26582031 96.71623047 -88.26582031 96.71623047 -89.4296875 97.95703125 C-90.17734375 98.72402344 -90.925 99.49101563 -91.6953125 100.28125 C-92.37609863 100.99345703 -93.05688477 101.70566406 -93.75830078 102.43945312 C-96.66215736 104.46095729 -98.53549925 104.36576795 -102 104 C-103 103 -103 103 -103.29013252 100.21275139 C-102.93925823 96.32738255 -102.07663342 95.32342426 -99.35787964 92.59597778 C-98.14662666 91.35934639 -98.14662666 91.35934639 -96.91090393 90.09773254 C-96.01330856 89.21228256 -95.1157132 88.32683258 -94.19091797 87.41455078 C-93.24375047 86.45925038 -92.29786354 85.50267885 -91.35316467 84.54493713 C-88.78619808 81.95062792 -86.20062505 79.37564511 -83.61046743 76.80451441 C-80.90165679 74.11089932 -78.20752176 71.40267008 -75.51101685 68.69674683 C-70.98032571 64.15514118 -66.43713353 59.62632968 -61.88671875 55.10449219 C-56.62671799 49.87714482 -51.38868241 44.62853214 -46.16153419 39.36834919 C-41.67228945 34.85187264 -37.17145231 30.34719912 -32.66072762 25.85217464 C-29.96700916 23.16780826 -27.27750367 20.47955781 -24.59838486 17.78061295 C-22.07884884 15.24373855 -19.54507527 12.72200358 -16.99958611 10.21117973 C-15.62383583 8.84714184 -14.26281125 7.46830193 -12.90226746 6.08909607 C-12.07784653 5.28159409 -11.2534256 4.4740921 -10.40402222 3.64212036 C-9.69424162 2.93460192 -8.98446102 2.22708347 -8.25317192 1.49812508 C-5.34207594 -0.4374511 -3.42719216 -0.35674604 0 0 Z M-26.75 33.1875 C-29.55736658 35.95851707 -29.55736658 35.95851707 -30 39.75 C-29.505 40.86375 -29.505 40.86375 -29 42 C-26.83201259 48.50396222 -26.69218836 57.18286114 -29.5625 63.5 C-32.92122389 69.05023168 -37.81638156 73.06039019 -44 75 C-47.375 75.265625 -47.375 75.265625 -51 75.25 C-52.794375 75.25773437 -52.794375 75.25773437 -54.625 75.265625 C-57.87600127 75.00975916 -60.05263294 74.31344343 -63 73 C-65.97464919 73.18028177 -66.96337877 73.96846505 -69.25 75.9375 C-71.21565915 77.80335544 -71.21565915 77.80335544 -71 80 C-56.19921921 85.10482461 -42.36388811 85.05031155 -27.91796875 78.54296875 C-19.57792136 74.13290353 -12.71040045 68.49998463 -7 61 C-6.0409375 59.7625 -6.0409375 59.7625 -5.0625 58.5 C-3.48846626 54.79639121 -2.98584012 51.86689347 -4 48 C-7.84979421 41.08628688 -13.30368625 34.35037678 -20 30 C-23.65976546 30 -24.19060636 30.70742641 -26.75 33.1875 Z M-38 45 C-44.6 51.6 -51.2 58.2 -58 65 C-55.53003576 67.46996424 -54.66102667 67.32331778 -51.25 67.375 C-46.3845026 67.26282715 -43.69085067 66.33934108 -40 63 C-35.93795808 58.51037473 -35.57607422 54.97910125 -35.6640625 49.171875 C-35.81305651 46.79313708 -35.81305651 46.79313708 -38 45 Z " fill="#000000" transform="translate(115,12)"/>
<path d="M0 0 C0.97130859 -0.00773437 1.94261719 -0.01546875 2.94335938 -0.0234375 C3.88373047 -0.02085938 4.82410156 -0.01828125 5.79296875 -0.015625 C6.63754639 -0.01336914 7.48212402 -0.01111328 8.35229492 -0.00878906 C11.12175791 0.28253085 13.28285063 1.11215213 15.8125 2.25 C15.9375 5.125 15.9375 5.125 15.8125 8.25 C15.1525 8.91 14.4925 9.57 13.8125 10.25 C10.79296875 10.15625 10.79296875 10.15625 7 9.75 C-8.62042208 8.41030254 -22.12567929 12.47198424 -34.6328125 21.98828125 C-39.95725577 26.70212323 -45.46375025 32.41412634 -46.8125 39.5625 C-46.85155664 44.89373125 -43.43003882 48.64582777 -40.21337891 52.59301758 C-38.9609375 54.19921875 -38.9609375 54.19921875 -37.1875 57.25 C-37.8504261 60.28351628 -38.30782052 61.68449176 -40.9375 63.375 C-44.66783764 63.16775902 -46.78006896 60.8762884 -49.1875 58.25 C-55.16085338 50.32248693 -57.25153129 44.26441216 -56.1875 34.25 C-52.40068059 22.72329116 -41.21985449 13.32079133 -31.1875 7.25 C-20.83572329 2.10031867 -11.47941368 -0.09251374 0 0 Z " fill="#000000" transform="translate(64.1875,23.75)"/>
<path d="M0 0 C0.66 1.65 1.32 3.3 2 5 C-0.41905198 7.92302115 -2.45864795 9.28788198 -6 10.4375 C-10.89351738 12.15023108 -12.86542894 14.65600771 -15.125 19.32421875 C-16.12442773 21.53475856 -17.08055925 23.7551952 -18 26 C-19.99954746 26.04254356 -22.00041636 26.04080783 -24 26 C-25 25 -25 25 -25.3125 21.4375 C-25.19710889 15.56304346 -23.13808841 11.27199792 -19.12890625 7.01171875 C-12.81922282 1.25070345 -8.45013077 -0.28644511 0 0 Z " fill="#000000" transform="translate(65,40)"/>
</svg>
