<svg xmlns="http://www.w3.org/2000/svg" width="32" height="32" viewBox="0 0 32 32">
  <g id="Group_3009" data-name="Group 3009" transform="translate(-1146.454 -592.454)">
    <rect id="Rectangle_65" data-name="Rectangle 65" width="32" height="32" rx="16" transform="translate(1146.454 592.454)" fill="#fff"/>
    <g id="Group_3012" data-name="Group 3012" transform="translate(1673.117 -10523.883)">
      <path id="Path_1068" data-name="Path 1068" d="M-22.61-11.532a1.017,1.017,0,0,0-.27-1.444,1.017,1.017,0,0,0-1.444.27L-27.051-8.73a5.324,5.324,0,0,0-.311-.464l3.785-5.52a1.017,1.017,0,0,0-.27-1.444,1.017,1.017,0,0,0-1.444.269L-28.851-10.7c-.132-.109-.267-.217-.408-.323l4.127-6.019a1.017,1.017,0,0,0-.269-1.444,1.017,1.017,0,0,0-1.444.269L-30.972-12.2c-.152-.093-.3-.174-.452-.259l3.857-5.626a1.017,1.017,0,0,0-.27-1.444,1.017,1.017,0,0,0-1.444.269l-4.079,5.948-.327.477-.293.428a5.2,5.2,0,0,1,1.346,7.22.509.509,0,0,1-.722.135A4.907,4.907,0,0,0-34.7-12.267l.759-3.792a1.018,1.018,0,0,0-.716-1.283,1.017,1.017,0,0,0-1.282.716l-.875,2.6A23.041,23.041,0,0,1-38.021-11a6.234,6.234,0,0,0,2.047,7.935A6.233,6.233,0,0,0-27.31-4.679c.1-.151.189-.3.271-.445l.023.016Z" transform="translate(-480.114 11143.515)" fill="#ffc741"/>
      <path id="Path_1069" data-name="Path 1069" d="M-1.461-5.084H-2.5A3.618,3.618,0,0,1,1.114-8.7v1.039A2.578,2.578,0,0,0-1.461-5.084" transform="translate(-517.5 11131.697)" fill="#ffc741" opacity="0.4"/>
      <path id="Path_1070" data-name="Path 1070" d="M-1.461-7.306H-2.5A5.2,5.2,0,0,1,2.694-12.5v1.039A4.16,4.16,0,0,0-1.461-7.306" transform="translate(-516.483 11136.517)" fill="#ffc741" opacity="0.4"/>
      <path id="Path_1071" data-name="Path 1071" d="M0-5.115V-6.153a2.453,2.453,0,0,0,2.6-2.6H3.636A3.55,3.55,0,0,1,0-5.115" transform="translate(-504.96 11146.789)" fill="#ffc741" opacity="0.4"/>
      <path id="Path_1072" data-name="Path 1072" d="M0-7.337V-8.376a4.509,4.509,0,0,0,4.177-4.177H5.215A4.941,4.941,0,0,1,0-7.337" transform="translate(-507.557 11147.996)" fill="#ffc741" opacity="0.4"/>
    </g>
  </g>
</svg>
