<svg xmlns="http://www.w3.org/2000/svg" width="238.178" height="162.48" viewBox="0 0 238.178 162.48">
  <g id="Group_607" data-name="Group 607" transform="translate(-239.472 -532.467)">
    <path id="Path_557" data-name="Path 557" d="M79.194,21.65c-.024-.047-.024-.095-.047-.142a20.147,20.147,0,0,0-35.5-4.34A22.55,22.55,0,0,0,8.621,42.8c.19.522.4,1.02.64,1.518A13.053,13.053,0,0,0,21.5,67.111c.379-.142.759-.308,1.115-.474.119.4.261.783.4,1.186A22.555,22.555,0,0,0,44.145,82.478,22.523,22.523,0,0,0,64.729,69.032a24.975,24.975,0,0,0,18.379.4A24.912,24.912,0,0,0,79.194,21.65Z" transform="translate(236.875 575.226)" fill="#eaeef0" stroke="#808486" stroke-width="2.5"/>
    <g id="Group_606" data-name="Group 606" transform="translate(295.787 548.316)">
      <path id="Path_407" data-name="Path 407" d="M85.99,13.3a72.69,72.69,0,1,0,72.69,72.69A72.692,72.692,0,0,0,85.99,13.3Z" transform="translate(-13.3 -13.3)" fill="#fff" stroke="#808486" stroke-width="2.5"/>
      <path id="Path_408" data-name="Path 408" d="M61.6,36.89v32.3L91.219,83.34" transform="translate(7.109 2.927)" fill="none" stroke="#808486" stroke-width="5"/>
    </g>
    <path id="Path_556" data-name="Path 556" d="M78.353,38.488a25.232,25.232,0,0,0,.9-6.662,25.747,25.747,0,0,0-49.66-9.655A16.092,16.092,0,0,0,14.885,38.263v.322A16.092,16.092,0,0,0,18.1,70.447H76.035a16.092,16.092,0,0,0,2.317-31.959Z" transform="translate(384.611 527.782)" fill="#eaeef0" stroke="#808486" stroke-width="2.5"/>
  </g>
</svg>
