<svg id="Component_34_1" data-name="Component 34 – 1" xmlns="http://www.w3.org/2000/svg" xmlns:xlink="http://www.w3.org/1999/xlink" width="53" height="53" viewBox="0 0 53 53">
  <defs>
    <linearGradient id="linear-gradient" x1="0.788" y1="0.211" x2="0.269" y2="0.822" gradientUnits="objectBoundingBox">
      <stop offset="0" stop-color="#ffc741"/>
      <stop offset="1" stop-color="#b27e00"/>
    </linearGradient>
  </defs>
  <rect id="Rectangle_65" data-name="Rectangle 65" width="53" height="53" rx="26.5" fill="url(#linear-gradient)"/>
  <g id="Group_2765" data-name="Group 2765" transform="translate(11.777 13.741)">
    <g id="Rectangle_135" data-name="Rectangle 135" transform="translate(0.224 0.259)" fill="none" stroke="#fff" stroke-width="1.5">
      <rect width="30" height="21" rx="4" stroke="none"/>
      <rect x="0.75" y="0.75" width="28.5" height="19.5" rx="3.25" fill="none"/>
    </g>
    <line id="Line_203" data-name="Line 203" x2="23.556" transform="translate(3.435 26.009)" fill="none" stroke="#fff" stroke-linecap="round" stroke-width="1.5"/>
    <path id="Arrow" d="M5.186,23.856a.618.618,0,0,1-.2-.032.647.647,0,0,1-.447-.647c0-.1.667-9.494,10.09-10.232V9.566a.647.647,0,0,1,1.11-.453l6.388,6.524a.647.647,0,0,1,0,.906l-6.388,6.524a.647.647,0,0,1-1.11-.453V19.3c-6.291.239-8.87,4.207-8.9,4.255A.647.647,0,0,1,5.186,23.856Zm10.737-12.7v2.4a.647.647,0,0,1-.625.647,9.179,9.179,0,0,0-9.061,6.9,13.387,13.387,0,0,1,9-3.107h.029a.647.647,0,0,1,.647.647v2.4l4.854-4.938Z" transform="translate(1.88 -6.162)" fill="#fff" opacity="0"/>
    <g id="Group_596" data-name="Group 596" transform="translate(15.229 0.654) rotate(45)">
      <line id="Line_201" data-name="Line 201" y2="14.667" transform="translate(7.333)" fill="none" stroke="#fff" stroke-width="1.5"/>
      <line id="Line_202" data-name="Line 202" y2="14.667" transform="translate(14.667 7.333) rotate(90)" fill="none" stroke="#fff" stroke-width="1.5"/>
    </g>
  </g>
</svg>
