<svg xmlns="http://www.w3.org/2000/svg" xmlns:xlink="http://www.w3.org/1999/xlink" width="48" height="48" viewBox="0 0 48 48">
  <defs>
    <linearGradient id="linear-gradient" x1="0.788" y1="0.211" x2="0.269" y2="0.822" gradientUnits="objectBoundingBox">
      <stop offset="0" stop-color="#808486"/>
      <stop offset="1" stop-color="#182024"/>
    </linearGradient>
  </defs>
  <g id="Group_3367" data-name="Group 3367" transform="translate(-878 -4243)">
    <rect id="Rectangle_65" data-name="Rectangle 65" width="48" height="48" rx="24" transform="translate(926 4291) rotate(180)" opacity="0" fill="url(#linear-gradient)"/>
    <g id="Group_3060" data-name="Group 3060" transform="translate(578.713 4141.902)">
      <g id="Rectangle_135" data-name="Rectangle 135" transform="translate(308.288 112.098)" fill="none" stroke="#eaeef0" stroke-width="1.3">
        <rect width="31" height="22" rx="4" stroke="none"/>
        <rect x="0.65" y="0.65" width="29.7" height="20.7" rx="3.35" fill="none"/>
      </g>
      <line id="Line_203" data-name="Line 203" x2="23.564" transform="translate(312.005 138.365)" fill="none" stroke="#eaeef0" stroke-linecap="round" stroke-width="1.3"/>
      <path id="Arrow" d="M5.03,20.271a.47.47,0,0,1-.152-.025.492.492,0,0,1-.339-.492c0-.074.507-7.215,7.668-7.776V9.41a.492.492,0,0,1,.844-.344L17.9,14.024a.492.492,0,0,1,0,.689L13.05,19.67a.492.492,0,0,1-.844-.344V16.808c-4.781.182-6.741,3.2-6.76,3.234A.492.492,0,0,1,5.03,20.271Zm8.16-9.655v1.822a.492.492,0,0,1-.475.492A6.976,6.976,0,0,0,5.829,18.17a10.173,10.173,0,0,1,6.839-2.361h.022a.492.492,0,0,1,.492.492v1.822l3.689-3.753Z" transform="translate(312.587 107.981)" fill="#eaeef0" stroke="#eaeef0" stroke-width="0.2"/>
    </g>
  </g>
</svg>
