<svg xmlns="http://www.w3.org/2000/svg" width="30" height="30" viewBox="0 0 30 30"><defs><style>.a{fill:#fff;stroke:#707070;opacity:0;}.b,.c{fill:#808486;stroke:#808486;}.b{stroke-width:0.6px;}.c{stroke-width:0.3px;}.d{stroke:none;}.e{fill:none;}</style></defs><g transform="translate(-1090 -329)"><g class="a" transform="translate(1090 329)"><rect class="d" width="30" height="30" rx="15"/><rect class="e" x="0.5" y="0.5" width="29" height="29" rx="14.5"/></g><g transform="translate(1081.836 320.836)"><path class="b" d="M23.266,13.3a9.966,9.966,0,1,0,9.966,9.966A9.966,9.966,0,0,0,23.266,13.3Zm0,18.988a9.022,9.022,0,1,1,9.022-9.022A9.035,9.035,0,0,1,23.266,32.288Z" transform="translate(-0.402 -0.402)"/><path class="c" d="M62.627,39.1v-3.99a.513.513,0,1,0-1.027,0v4.2a.558.558,0,0,0,.15.364l3.911,1.8a.517.517,0,0,0,.727,0,.53.53,0,0,0,0-.727Z" transform="translate(-39.282 -16.757)"/></g></g></svg>