<svg xmlns="http://www.w3.org/2000/svg" xmlns:xlink="http://www.w3.org/1999/xlink" width="640" height="800" viewBox="0 0 640 800"><defs><style>.a,.aa,.ab,.ae,.h,.i,.j,.k,.z{fill:none;}.a,.aa,.ab,.h,.i,.j,.k,.q,.z{stroke:#fff;}.a,.k,.q{stroke-miterlimit:10;}.a,.ab,.q,.z{stroke-width:3px;}.b{fill:url(#a);}.ac,.c,.d,.m{fill:#fff;}.c{opacity:0.11;}.d,.l{opacity:0.25;}.d,.e,.g,.k,.l,.n,.t,.w{isolation:isolate;}.e{opacity:0.4;}.e,.g,.t,.w{mix-blend-mode:multiply;}.f{opacity:0.228;}.g{fill:#605aca;}.g,.h,.k,.n{opacity:0.5;}.h,.i,.j,.z{stroke-linecap:round;}.h,.i,.j{stroke-linejoin:round;}.i{opacity:0.31;}.k,.n{mix-blend-mode:screen;}.o{fill:#4ca1ff;}.p{clip-path:url(#b);}.q{fill:#34a0fe;}.r{fill:#ffd5c7;}.s{fill:#182024;}.t{opacity:0.1;}.u{fill:#568edb;}.v{fill:#5e9ce4;}.w{opacity:0.16;}.x{fill:#4e84d9;}.y{fill:#f9714e;}.aa{stroke-width:4px;}.ac{opacity:0.11;}.ad{stroke:none;}</style><linearGradient id="a" x1="0.951" y1="0.058" x2="0.433" y2="0.44" gradientUnits="objectBoundingBox"><stop offset="0" stop-color="#01bdf4"/><stop offset="1" stop-color="#009dff"/></linearGradient><clipPath id="b"><circle class="a" cx="29.512" cy="29.512" r="29.512"/></clipPath></defs><rect class="b" width="640" height="800"/><g transform="translate(-26.592 192.832)"><path class="c" d="M347.8,558.535C237,569.906,151,466.54,95.75,427.11S16.3,178.516,178.022,203.748s212.1-56.663,302.558-56.878,129.045,81.384,92.158,204.294S458.609,547.164,347.8,558.535Z" transform="translate(667.348 575.906) rotate(180)"/><g transform="translate(519.299 302.175)"><g transform="translate(7.286)"><path class="d" d="M667.341,395.192s20.012-1.827,38.976-9.6c.6-.246.964,3.83.964,3.83s2.792-5.449,3.762-5.907c10.265-4.841,19.677-11.586,24.723-20.925,0,0,2.486,57.262-71.124,69.98Z" transform="translate(-664.642 -362.595)"/></g><g transform="translate(0 97.92)"><path class="d" d="M689.624,490.032s24.295,12.877,71.8,15.115c0,0-32.319,29.492-106.264,19.339l2.426-33.589Z" transform="translate(-655.16 -490.032)"/></g><g class="e" transform="translate(50.421 77.649)"><path class="d" d="M720.78,465.3a101.806,101.806,0,0,0,11.26-.056c1.858-.1,3.7-.316,5.55-.584,1.858-.24,3.674-.668,5.572-1.01a21.207,21.207,0,0,1-5.315,2.219,27.551,27.551,0,0,1-5.7.954,30.673,30.673,0,0,1-5.771-.164A22.446,22.446,0,0,1,720.78,465.3Z" transform="translate(-720.78 -463.651)"/></g><g class="f" transform="translate(15.421 14.879)"><path class="g" d="M730.656,381.959a42.579,42.579,0,0,1-9.336,14.273,61.922,61.922,0,0,1-13.535,10.575l-3.8,2.031c-1.259.689-2.611,1.186-3.917,1.776A70.718,70.718,0,0,1,692,413.537c-1.347.486-2.76.745-4.144,1.094l-4.165.99c-2.821.443-5.642.855-8.46,1.209,2.763-.71,5.542-1.271,8.286-1.966l4.072-1.2a42.308,42.308,0,0,0,4.034-1.289c2.627-1.036,5.326-1.868,7.846-3.139,1.268-.609,2.6-1.093,3.823-1.783l3.7-2.019a71.92,71.92,0,0,0,13.467-10.059,42.043,42.043,0,0,0,2.937-3.027c.463-.529.949-1.042,1.4-1.585L726.1,389.1A41,41,0,0,0,730.656,381.959Z" transform="translate(-675.229 -381.959)"/></g><g transform="translate(11.206 108.117)"><path class="d" d="M749.283,512.264c-3.329.64-6.7,1.034-10.064,1.43q-5.062.49-10.146.744a173.653,173.653,0,0,1-20.362-.288c-3.386-.287-6.768-.675-10.126-1.216a92.208,92.208,0,0,1-10-2.008,69.285,69.285,0,0,1-18.837-7.623,74.252,74.252,0,0,0,9.387,3.777,91.1,91.1,0,0,0,9.733,2.66,142.211,142.211,0,0,0,19.971,2.831c6.709.592,13.457.723,20.2.654S742.537,512.842,749.283,512.264Z" transform="translate(-669.744 -503.302)"/><g transform="translate(25.913 8.453)"><path class="d" d="M725.254,526.681a25.447,25.447,0,0,1-13-2.571,20.072,20.072,0,0,1-5.436-4.027,15.18,15.18,0,0,1-3.347-5.78,24.915,24.915,0,0,0,4.209,4.893,26.942,26.942,0,0,0,5.286,3.5,41.26,41.26,0,0,0,5.957,2.369A63.115,63.115,0,0,0,725.254,526.681Z" transform="translate(-703.468 -514.303)"/></g><g transform="translate(11.4 5.083)"><path class="d" d="M703.169,526.718a25.437,25.437,0,0,1-12.138-5.325,20.064,20.064,0,0,1-4.434-5.108,15.177,15.177,0,0,1-2.016-6.368,24.964,24.964,0,0,0,3.05,5.688,26.967,26.967,0,0,0,4.4,4.561,41.292,41.292,0,0,0,5.3,3.6A63.233,63.233,0,0,0,703.169,526.718Z" transform="translate(-684.58 -509.917)"/></g></g></g><g transform="translate(281.816 415.374)"><path class="d" d="M430.627,575.126a39.509,39.509,0,0,0-29.918-13.415c-8.328.108-16.506,2.878-24.817,2.367a31.727,31.727,0,0,1-29.483-36.238c.962-6.584,4.406-13.2,10.369-16.143a20.024,20.024,0,0,1,10.615-1.677,29.889,29.889,0,0,1,9.535,2.55c6.895,3.06,12.891,8.453,17.685,14.408,4.351,5.416,14.29,13.381,21.008,18.523,3.94,3,6.779,5.035,6.779,5.035C427.137,554.917,427.385,569.547,430.627,575.126Z" transform="translate(-346.09 -509.917)"/><path class="h" d="M361.134,536.307c20.931,5.963,44.051,14.411,60.394,28.783" transform="translate(-349.575 -516.029)"/></g><g transform="translate(376.014 416.829)"><path class="d" d="M520.936,527.687a26.475,26.475,0,0,1-2.709,10.193,22.954,22.954,0,0,1-4.532,5.774,34.756,34.756,0,0,1-2.9,2.46,42.323,42.323,0,0,1-12.706,6.664c-6.546,2.083-13.553,2.47-19.568,6.159a23.8,23.8,0,0,0-9.81,12.286l-.025-5.862c.641-6.491,1.3-13.1,3.717-19.3a55.02,55.02,0,0,1,6.282-11.32,78.4,78.4,0,0,1,13.7-15.4c4.225-3.564,9.064-6.59,14.23-7.36s10.649,1.136,13.013,5.681C521.14,520.581,521.25,524.2,520.936,527.687Z" transform="translate(-468.683 -511.811)"/><path class="i" d="M473.411,561.648A48.63,48.63,0,0,1,491.2,540.171c4.832-3.173,10.13-5.341,15.062-8.314s9.684-7.015,12-12.435" transform="translate(-469.778 -513.574)"/></g><g transform="translate(363.458 454.114)"><path class="d" d="M460.477,576.459c9.208-9.134,22.268-13.319,35.106-15.161,10.708-1.535,21.956-1.593,31.972,2.495,3.138,1.281,6.232,3.061,8.089,5.9s2.118,6.928-.148,9.449c-1.912,2.125-5.018,2.642-7.874,2.745-9.4.338-18.606-2.4-27.816-4.327-15.831-3.319-33.071-4.119-47.462,3.265" transform="translate(-452.342 -560.335)"/><path class="j" d="M477.869,573.6c19.056-8.036,46.581-5.448,58.585,2.859" transform="translate(-458.255 -562.28)"/></g><g transform="translate(68.592 346.716)"><path class="d" d="M157.679,445.815c-8.611-4.138-12.737-15.162-19.813-17.531-8.768-3.03-11.226,6.763-25.4,4.342-11.9-2.032-15.513-15.413-35.4-11.274-6.073,1.264-10.1,6.4-7.824,12.556,1.707,6.129,10.145,10.005,15.167,13.135,4.454,2.513,8.4,3.863,11.035,8.538.028.049.055.1.078.152,1.776,3.8,1.067,7.19,5.213,9.97,9.715,7.107,21.814-4.178,32.865-3.847,7.794.233,7.575,8.326,16.947,10.669,9.281,2.321,6.237-5.988,25.706,1.558a1.36,1.36,0,0,0,1.758-.78h0a1.36,1.36,0,0,0-.286-1.423C164.093,457.616,170.354,451.905,157.679,445.815Z" transform="translate(-68.592 -420.562)"/><path class="k" d="M171.922,467.628c-4.543-2.2-7.911-6.181-11.586-9.641s-8.2-6.625-13.245-6.488c-3.1.084-6.189,1.419-9.209.731-3.983-.906-6.7-5.091-10.749-5.632-2.263-.3-4.5.612-6.78.762-6.505.43-11.59-5.114-16.918-8.87a35.064,35.064,0,0,0-20.653-6.352" transform="translate(-71.878 -423.242)"/></g><g transform="translate(110.822 420.758)"><path class="d" d="M254.235,526.03c-28.329,3-32.861,5.441-39.652,2.506-8.655-3.741-17.752-2.813-26.476-6.389s-18.2-6.309-27.508-4.8c-2.942.478-6.208,1.674-6.618,5.126a5.661,5.661,0,0,0,1.093,3.917c2.05,2.86,5.4,3.82,8.6,4.7l10.709,2.954c3.483.96,3.261,6.091-.316,6.6l-.09.012a25.826,25.826,0,0,1-8.994-.842c-6.431-1.424-12.875-3.156-19.462-3.164-7.97-.011-16.422,2.866-20.364,10.3a13.676,13.676,0,0,0-1.425,8.638c1.389,8.221,9.078,10.964,15.892,10.349,4.795-.433,9.327-2.285,13.854-3.923,11.058-4,20.52.412,32.275.718C218.2,563.584,254.235,526.03,254.235,526.03Z" transform="translate(-123.552 -516.923)"/><path class="h" d="M135.251,555.012c20.171-2.3,40.49-4.637,59.842-10.772,5.676-1.8,12.988-2.3,29.01-14.121" transform="translate(-126.262 -519.98)"/></g><g transform="translate(114.077 244.325)"><path class="d" d="M166.2,381.794A11.4,11.4,0,0,0,168.3,383.1c3.462,1.707,7.426,1.943,10.18,5.05,1.839,1.955,2.835,4.576,4.209,6.9a12.531,12.531,0,0,0,.942,1.475c4.258,5.84,8.448,6.517,12.931,6.417,1.839-.044,3.743-.219,5.7-.217A18.951,18.951,0,0,1,211.879,405a26.207,26.207,0,0,1,6.824,5.553,1.429,1.429,0,0,0,1.811.118,1.547,1.547,0,0,0,.7-1.568,21.62,21.62,0,0,0-6.365-11.587c-7.935-7.509-19.649-8.106-20.359-23.606-.15-3.32.556-5.674.025-8.04a8.358,8.358,0,0,0-2.03-3.718c-2.4-2.586-5.849-3.73-8.923-5.8-8.322-5.935-4.355-15.649-5.094-24.891-.495-7.544-7.278-12.455-12.826-16.727-6.935-5.1-6.919-14.308-11.6-21.149s-16.3-9.6-22.484-.4c-6.569,9.184-2.961,20.666-1.073,29.98a21.608,21.608,0,0,0,2.486,6.564c3.462,6.046,9.4,10.352,14.539,15.474a36.766,36.766,0,0,1,7.642,10.727,31.607,31.607,0,0,1,2.373,7.516c.111.621.231,1.236.352,1.85C159.08,371.75,160.493,377.5,166.2,381.794Z" transform="translate(-127.788 -287.306)"/><path class="k" d="M139.849,295.231c.274,7.142.665,14.65,4.691,20.254,4.329,6.025,12.471,9.235,14.973,16.286.893,2.514,1.03,5.449,2.784,7.435,1.2,1.359,3.005,2.081,4.515,3.125,6.975,4.824,6.719,15.557,12.926,21.233a28.293,28.293,0,0,1,3.382,3.061c2.181,2.768,1.886,6.778,2.48,10.33,1.01,6.039,4.8,11.1,9.506,14.881s10.335,6.438,15.91,9.062" transform="translate(-130.582 -289.142)"/></g><g transform="translate(247.803 436.149)"><path class="d" d="M319.357,538.668c-5.353-2.114-12.5-2.982-15.931,1.637-2.873,3.867-1.385,9.349.6,13.739,1.675,3.706,3.8,7.474,7.336,9.489a20.948,20.948,0,0,0,8,2.118,191.934,191.934,0,0,0,23.194,1.341c8.982-.026,19.862,3.642,27.293,9.243C360.314,558.509,337.369,545.781,319.357,538.668Z" transform="translate(-301.824 -536.954)"/><path class="i" d="M312.422,554.182c6.812.29,13.686.769,20.225,2.7,6.686,1.978,32.407,13.781,36.427,18.805" transform="translate(-304.279 -540.944)"/></g><g transform="translate(519.676 238.418)"><path class="d" d="M662.817,347.241a10.955,10.955,0,0,0-.222,2.363c.012,3.692,1.5,7.19.006,10.871-.892,2.407-2.713,4.377-4.122,6.544a11.9,11.9,0,0,0-.862,1.435c-3.191,6.133-1.988,10.011.006,13.809.82,1.557,1.78,3.113,2.612,4.79a18.124,18.124,0,0,1,2.148,9.2,25.056,25.056,0,0,1-1.853,8.209,1.367,1.367,0,0,0,.669,1.6,1.481,1.481,0,0,0,1.644-.064,20.687,20.687,0,0,0,7.217-10.385c3.055-9.994-1.418-20.283,11.559-27.488,2.781-1.541,5.1-1.939,6.9-3.4a7.994,7.994,0,0,0,2.322-3.322c1.194-3.156.706-6.6,1.168-10.111,1.543-9.655,11.553-10.392,19.156-14.958,6.252-3.634,7.572-11.536,8.871-18.107,1.421-8.113,9.313-12.017,13.182-18.938s1.291-18.049-9.223-19.434c-10.663-1.719-18.964,6.258-26.14,11.84a20.678,20.678,0,0,0-4.566,4.924c-3.707,5.539-4.867,12.462-7.069,19.04a35.182,35.182,0,0,1-5.938,11.112,30.2,30.2,0,0,1-5.429,5.231c-.485.36-.96.724-1.435,1.089C668.393,336.871,664.065,340.529,662.817,347.241Z" transform="translate(-655.65 -279.62)"/><path class="k" d="M729.216,286.173c-6,3.274-12.267,6.8-15.355,12.639-3.319,6.272-2.6,14.614-7.58,19.759-1.773,1.834-4.23,3.2-5.184,5.548-.654,1.607-.5,3.46-.755,5.2-1.165,8.029-10.469,12.378-12.689,20.111a27.039,27.039,0,0,1-1.183,4.2c-1.444,3.047-5,4.5-7.8,6.52-4.743,3.436-7.465,8.833-8.7,14.478s-1.117,11.593-.992,17.488" transform="translate(-658.72 -281.137)"/></g><g transform="translate(477.666 424.892)"><path class="d" d="M619.212,551.266c8.155,4.6,11.482,15.647,18.249,18.419,8.38,3.527,11.413-5.893,25.121-2.614,11.5,2.752,14.18,16.071,33.9,13.3,6.021-.846,10.293-5.608,8.459-11.776-1.275-6.1-9.277-10.437-13.988-13.82-4.194-2.745-7.962-4.317-10.243-9.06-.024-.049-.047-.1-.067-.154-1.492-3.831-.581-7.1-4.458-10.085-9.043-7.574-21.6,2.685-32.388,1.65-7.607-.729-6.873-8.63-15.887-11.523-8.927-2.865-6.484,5.456-25.039-3.176a1.333,1.333,0,0,0-1.77.65h0a1.332,1.332,0,0,0,.189,1.41C613.7,539.312,607.209,544.495,619.212,551.266Z" transform="translate(-600.977 -522.304)"/><path class="k" d="M612.366,534.728c4.3,2.446,7.34,6.553,10.711,10.172s7.592,7.006,12.535,7.2c3.034.117,6.144-.99,9.053-.124,3.837,1.142,6.225,5.41,10.15,6.2,2.194.441,4.443-.309,6.68-.31,6.389,0,11.005,5.745,15.975,9.762a34.366,34.366,0,0,0,19.79,7.539" transform="translate(-603.615 -525.182)"/></g><g transform="translate(95.1 380.56)"><g class="l" transform="translate(0 0)"><path class="m" d="M212.545,515.566s-35.557-7.777-62.9-4.851c-.864.092.19-5.3.19-5.3s-5.634,5.98-7.056,6.208c-15.039,2.4-29.691,7.582-39.685,17.733,0,0,18.191-74.735,117.821-63.623Z" transform="translate(-103.091 -464.609)"/></g><g class="n" transform="translate(15.307 22.1)"><path class="o" d="M123.012,519.668c4.533-6.192,10.757-11,17.365-14.908a83.111,83.111,0,0,1,21.4-8.574l5.654-1.2c1.882-.418,3.809-.552,5.713-.824a94.816,94.816,0,0,1,11.5-.753c1.918-.124,3.836.071,5.75.138l5.738.28c3.8.483,7.592,1.007,11.356,1.6-3.827-.118-7.619-.433-11.415-.562l-5.7.021c-1.9.032-3.793-.067-5.681.154-3.774.354-7.563.417-11.286,1.114-1.862.313-3.756.438-5.594.871l-5.525,1.219a96.516,96.516,0,0,0-21.116,7.933,56.121,56.121,0,0,0-4.918,2.805c-.8.509-1.613.989-2.393,1.521l-2.3,1.655A55.026,55.026,0,0,0,123.012,519.668Z" transform="translate(-123.012 -493.371)"/></g><g class="n" transform="translate(66.926 23.092)"><path class="o" d="M200.068,494.662c-2.072,3.3-4.089,6.428-5.777,9.731a39.062,39.062,0,0,0-3.754,10.522c-.917-3.855.087-8,1.862-11.49a26.11,26.11,0,0,1,3.3-4.875A19.687,19.687,0,0,1,200.068,494.662Z" transform="translate(-190.191 -494.662)"/></g></g><g transform="translate(166.925 101.736)"><rect class="a" width="58.887" height="32.001" transform="translate(161.99 334.413)"/><path class="a" d="M465.393,577.773H385.866a6.835,6.835,0,1,0,0,13.669h79.527a6.834,6.834,0,0,0,6.835-6.835h0A6.834,6.834,0,0,0,465.393,577.773Z" transform="translate(-234.196 -210.995)"/><path class="a" d="M572.249,107.723a1.2,1.2,0,0,1,1.2,1.2V429.109a1.2,1.2,0,0,1-1.2,1.2H203.75a1.2,1.2,0,0,1-1.2-1.2V108.92a1.2,1.2,0,0,1,1.2-1.2h368.5m0-5.987H203.75a7.184,7.184,0,0,0-7.184,7.184V429.109a7.185,7.185,0,0,0,7.184,7.185h368.5a7.186,7.186,0,0,0,7.185-7.185V108.92a7.185,7.185,0,0,0-7.185-7.184Z" transform="translate(-196.566 -101.736)"/><g transform="translate(161.922 63.07)"><g class="p"><path class="a" d="M451.921,210.021a11.4,11.4,0,1,1-11.4-11.4A11.4,11.4,0,0,1,451.921,210.021Zm5.806,49.116v-23.2a8.8,8.8,0,0,0-8.8-8.8H432.107a8.8,8.8,0,0,0-8.8,8.8v23.2a2.439,2.439,0,0,0,2.439,2.439h29.543A2.439,2.439,0,0,0,457.727,259.137Z" transform="translate(-411.006 -187.245)"/></g><circle class="a" cx="29.512" cy="29.512" r="29.512"/></g><path class="a" d="M491.511,297.283H350.29a11.677,11.677,0,0,1-11.677-11.677h0a11.677,11.677,0,0,1,11.677-11.677H491.511a11.677,11.677,0,0,1,11.678,11.677h0A11.677,11.677,0,0,1,491.511,297.283Z" transform="translate(-229.467 -141.619)"/><path class="a" d="M491.658,351.948H350.438a11.677,11.677,0,0,1-11.678-11.677h0a11.677,11.677,0,0,1,11.678-11.678H491.658a11.677,11.677,0,0,1,11.677,11.678h0A11.677,11.677,0,0,1,491.658,351.948Z" transform="translate(-229.501 -154.281)"/><path class="a" d="M491.658,406.045H350.438a11.677,11.677,0,0,1-11.678-11.678h0a11.677,11.677,0,0,1,11.678-11.677H491.658a11.677,11.677,0,0,1,11.677,11.677h0A11.677,11.677,0,0,1,491.658,406.045Z" transform="translate(-229.501 -166.81)"/><path class="a" d="M357.741,346.188h0a3.049,3.049,0,0,1-3.049-3.05h0a3.049,3.049,0,0,1,3.049-3.05h0a3.05,3.05,0,0,1,3.05,3.05h0A3.05,3.05,0,0,1,357.741,346.188Zm12.117-3.05h0a3.05,3.05,0,0,0-3.049-3.05h0a3.05,3.05,0,0,0-3.05,3.05h0a3.05,3.05,0,0,0,3.05,3.05h0A3.05,3.05,0,0,0,369.858,343.139Zm9.068,0h0a3.049,3.049,0,0,0-3.049-3.05h0a3.05,3.05,0,0,0-3.05,3.05h0a3.05,3.05,0,0,0,3.05,3.05h0A3.049,3.049,0,0,0,378.926,343.139Zm9.068,0h0a3.05,3.05,0,0,0-3.05-3.05h0a3.05,3.05,0,0,0-3.05,3.05h0a3.05,3.05,0,0,0,3.05,3.05h0A3.05,3.05,0,0,0,387.994,343.139Zm9.068,0h0a3.05,3.05,0,0,0-3.05-3.05h0a3.05,3.05,0,0,0-3.05,3.05h0a3.05,3.05,0,0,0,3.05,3.05h0A3.05,3.05,0,0,0,397.062,343.139Z" transform="translate(-233.191 -156.943)"/></g><g transform="translate(422.626 369.426)"><path class="q" d="M571.749,450.167c-17.153.93-31.152,16.294-31.152,33.472V514.81h65.957V483.1A33.014,33.014,0,0,0,571.749,450.167Zm-20.255,53.744V483.543c0-11.616,8.794-21.59,20.377-22.464A22.1,22.1,0,0,1,595.656,483.1v20.815Z" transform="translate(-531.952 -450.117)"/><path class="q" d="M607.393,519.137H534.545a5.2,5.2,0,0,0-5.2,5.2v48.327a5.2,5.2,0,0,0,5.2,5.2h72.849a5.2,5.2,0,0,0,5.2-5.2V524.336A5.2,5.2,0,0,0,607.393,519.137Zm-30.853,37.035v10.779H565.4V556.172a12.1,12.1,0,1,1,11.142,0Z" transform="translate(-529.346 -466.104)"/></g><g transform="translate(461.722 277.161)"><path class="r" d="M593.988,449.583q.794,2.743,1.588,5.485a1.995,1.995,0,0,0,2.586,1.72,3.606,3.606,0,0,0,2.329-.663,2.482,2.482,0,0,0,.679-1.239,5.381,5.381,0,0,0-.76-3.989,15.968,15.968,0,0,0-2.71-3.15" transform="translate(-583.414 -357.304)"/><path class="r" d="M722.272,365.562a43.793,43.793,0,0,1,2.606-7.439,3.642,3.642,0,0,1,.411,2.647,5.987,5.987,0,0,1,2.917-3.081.622.622,0,0,1,.5-.077.64.64,0,0,1,.3.472,8.435,8.435,0,0,1-5.031,9.9" transform="translate(-613.127 -336.421)"/><path class="r" d="M650,589.8c4.658,1.136,8.558,2.507,10.7,4.425H642.734l.344-4.167Z" transform="translate(-594.704 -390.207)"/><path class="r" d="M620.377,589.8c-4.659,1.136-8.558,2.507-10.7,4.425h17.958l-.344-4.167Z" transform="translate(-587.048 -390.207)"/><g transform="translate(21.052 92.264)"><path class="s" d="M651.305,452.809l-8.467,105.374a28.859,28.859,0,0,1-3.981.723,17.781,17.781,0,0,1-2.327-.324c-.981-.2-1.836-.4-1.836-.4l-3.17-79.654h-3.976l-.761,79.654a17.252,17.252,0,0,1-4.318.63,23.114,23.114,0,0,1-4.682-.63L607.625,450.117Z" transform="translate(-607.625 -450.117)"/></g><g transform="translate(33.309 0)"><path class="s" d="M626.534,349.315a.857.857,0,0,1,.057.141c.642,3.484,3.948,5.27,7.623,6.284,2.988.825,3.681,1.186,6.08-.546,4.975-3.593,9.4-8.366,7.966-14.945a.962.962,0,0,1,.12-.727c-1.416-2.534-4.027-3.751-6.923-6.376-9.735-8.821-21.306,3.435-16.925,8.483C625.242,342.448,626.538,346.013,626.534,349.315Z" transform="translate(-623.576 -330.041)"/></g><path class="s" d="M655.321,400.238c0-20.031-8.291-32.486-24.169-32.486s-24.209,16.749-24.209,36.779l-2.44,58.343s37.014,7.34,51.084.471Z" transform="translate(-585.849 -338.776)"/><path class="r" d="M644.348,350.135c-.594-3.942-4.106-7.9-8.4-5.846a8.671,8.671,0,0,1-7.846.264c-.066.759-.159,1.866-.244,3.027-.475-.871-1.269-1.005-1.507.084-.256,1.166.06,3.333,1.315,3.74,0,.2-.005.406,0,.579.059,2.946,1.262,7.635,6.043,8.754a4.79,4.79,0,0,1-.13,2.765c.265.927,3.982,1.521,5.21.431a22,22,0,0,1-.1-3.065c2.828-.453,5.189-3.241,6.256-6.824C649.217,351.654,646.165,347.291,644.348,350.135Z" transform="translate(-590.892 -333.212)"/><path class="r" d="M646.374,350.771a8.788,8.788,0,0,0-1.939-4.3c.117,6.85-2.8,13.217-9.414,14.688.231.078.467.152.718.211a4.791,4.791,0,0,1-.13,2.765c.265.927,3.982,1.521,5.21.431a22,22,0,0,1-.1-3.065c2.828-.453,5.189-3.242,6.256-6.824C651.243,352.29,648.191,347.926,646.374,350.771Z" transform="translate(-592.918 -333.847)"/><path class="s" d="M615.362,371.328c-18.611,9-37.008,37.984-34.982,44.375s7.175,13.873,10.629,18.871l6.759-1.189s-8.021-12.005-7.729-19.326c.181-4.516,17.925-19.382,17.925-19.382Z" transform="translate(-580.226 -339.604)"/><path class="s" d="M655.794,370.459c2.915,2.095,27.23,16.663,40.6,3.8,9.658-9.293,10.63-11.088,10.63-11.088l3.313,5.866s-15.113,26.668-33.393,23.583-18.745-4.033-18.745-4.033Z" transform="translate(-597.729 -337.714)"/></g><g transform="translate(185.662 281.261)"><g transform="translate(0 21.749)"><path class="q" d="M246.618,363.681h-20.7v14.567h17.253v3.469H225.923v14.567h17.253v94.011h16.157V363.681Z" transform="translate(-222.103 -363.681)"/><g transform="translate(0 119.871)"><path class="q" d="M220.952,548.838A29.152,29.152,0,1,1,250.1,577.988,29.185,29.185,0,0,1,220.952,548.838Zm15.032,0a14.12,14.12,0,1,0,14.119-14.12A14.135,14.135,0,0,0,235.984,548.838Z" transform="translate(-220.952 -519.686)"/></g></g><g transform="translate(33.372)"><path class="r" d="M338.177,373.652l-.779,5.962,6.27.688v-6.289Z" transform="translate(-281.296 -344.242)"/><path class="t" d="M272.942,429.856s-8.3-4.09-8.541,0c-.457,7.747,8.541,3.38,8.541,3.38Z" transform="translate(-264.384 -356.839)"/><path class="r" d="M274.471,428.326s-8.3-4.089-8.541,0c-.456,7.747,8.541,3.381,8.541,3.381Z" transform="translate(-264.738 -356.484)"/><g transform="translate(51.219 10.244)"><path class="r" d="M331.043,358.724c0,5.419,5.6,12.16,11.014,12.16,3.19,0,8.336-.477,8.335-12.16,0-12.281-4.118-9.813-9.537-9.813A9.813,9.813,0,0,0,331.043,358.724Z" transform="translate(-331.043 -348.708)"/></g><path class="r" d="M339.291,363.337a42.688,42.688,0,0,1,2.284-14.383c-.237.008-.476.014-.719.014a9.813,9.813,0,0,0-9.812,9.813c0,5.316,5.384,11.888,10.705,12.137A10.942,10.942,0,0,1,339.291,363.337Z" transform="translate(-279.824 -338.521)"/><path class="s" d="M347.284,350.294c-.867.13-1.795-.285-2.61.044-1.3.526-1.392,2.514-2.594,3.245-1.5.912-3.763-.667-5.075.506-.773.691-.682,1.906-.6,2.946a22.117,22.117,0,0,1-.9,8.145c-.186.611.619,1.7.139,2.119-.8.693-3.11.087-3.976-.519a6.641,6.641,0,0,1-1.9-2.512,24.97,24.97,0,0,1-3.2-11.475c.031-4.014,1.67-8.16,4.912-10.481,3.569-2.556,8.564-1.781,12.361-.081,1.562.7,3.912,1.992,4.805,3.481C349.519,347.171,349.381,349.981,347.284,350.294Z" transform="translate(-278.786 -336.601)"/><path class="s" d="M323.2,336.963a10.685,10.685,0,0,0-4.868-1.585c-3.407-.068-6.368,2.573-7.943,5.626a12.684,12.684,0,0,0-1.351,8.1,9.043,9.043,0,0,0,4.766,6.473,4.235,4.235,0,0,0,2.357.468,4.874,4.874,0,0,0,2.713-1.657c1.82-1.912,2.13-4.193,3.466-6.262,1.081-1.673,3.453-.986,5.037-2.078C331.4,343.28,325.676,338.334,323.2,336.963Z" transform="translate(-274.683 -335.376)"/><path class="r" d="M323.152,589.8c4.658,1.136,8.558,2.507,10.7,4.425H315.891l.344-4.167Z" transform="translate(-276.314 -394.307)"/><path class="r" d="M344.1,589.8c4.659,1.136,8.558,2.507,10.7,4.425H336.843l.343-4.167Z" transform="translate(-281.167 -394.307)"/><path class="t" d="M404.736,393.736a2.383,2.383,0,0,0-.377-.168,2.3,2.3,0,0,0-1.854.7,31.022,31.022,0,0,0-3.642,3.142h.006a4.346,4.346,0,0,0-.7.774,2.906,2.906,0,0,0-.217,3.113,2.638,2.638,0,0,0,2.146,1.26,5.558,5.558,0,0,0,3.771-1.647,2.634,2.634,0,0,0,.162-3.2,2.593,2.593,0,0,0-1.654-1.36,13.932,13.932,0,0,0,2.146-1.577,1.253,1.253,0,0,0,.377-.488A.455.455,0,0,0,404.736,393.736Z" transform="translate(-295.239 -348.845)"/><g transform="translate(102.629 43.308)"><g transform="translate(0 2.729)"><path class="r" d="M404.388,396.742a2.633,2.633,0,0,1-.162,3.2,5.559,5.559,0,0,1-3.771,1.647,2.639,2.639,0,0,1-2.147-1.26,2.906,2.906,0,0,1,.217-3.113C399.832,395.321,403.063,394.262,404.388,396.742Z" transform="translate(-397.95 -395.289)"/></g><g transform="translate(1.266)"><path class="r" d="M402.658,394.849a13.956,13.956,0,0,0,2.6-1.868,1.246,1.246,0,0,0,.378-.488.455.455,0,0,0-.17-.547,2.383,2.383,0,0,0-.377-.167,2.3,2.3,0,0,0-1.853.7,30.89,30.89,0,0,0-3.642,3.143A6.48,6.48,0,0,0,402.658,394.849Z" transform="translate(-399.598 -391.738)"/></g></g><g transform="translate(68.509 38.637)"><path class="s" d="M369.122,409.935c6.662-4.431,11.935-9.182,17.967-14.537a.91.91,0,0,1,1.3.091c1.107,1.315,2.913,3.274,2.722,4.1a2.809,2.809,0,0,1-.748,1.179L373.47,419.488a18.454,18.454,0,0,1-3.634,3.365,6.225,6.225,0,0,1-4.729,1c-2.71-.67-4.228-3.461-5.7-5.83-7.277-11.686-6.078-15.91-5.189-19.51.619-2.5,1.4-4.975,1.852-7.518.143-.8-1.78-5.274-.683-5.331,3.286,3.839,8.212,15.534,11.57,23.6A1.475,1.475,0,0,0,369.122,409.935Z" transform="translate(-353.544 -385.66)"/></g><g transform="translate(31.533 97.819)"><path class="s" d="M305.422,465.135l8.467,96.022a31.351,31.351,0,0,0,3.981.659,19.424,19.424,0,0,0,2.327-.294c.981-.182,1.836-.365,1.836-.365l.085-72.584h7l.821,72.584a18.778,18.778,0,0,0,4.318.575,25.2,25.2,0,0,0,4.682-.575L349.1,462.682Z" transform="translate(-305.422 -462.682)"/><g transform="translate(21.78 9.645)"><path class="u" d="M333.767,475.239c.05,3.252-.175,6.188.957,9.141a5.721,5.721,0,0,0,5.776,3.755c4.192-.085,7.1-2.372,7.117-6.6,0-.545.271-6.285.545-6.3Z" transform="translate(-333.767 -475.235)"/></g><g transform="translate(1.899 9.654)"><path class="u" d="M307.893,475.246c.05,3.253-.093,6.186.709,9.145.627,2.313,2.037,3.826,4.04,3.782,2.92-.066,4.547-3.312,4.927-6.572.063-.539.159-6.283.35-6.292Z" transform="translate(-307.893 -475.246)"/></g><g transform="translate(0.126 5.683)"><path class="v" d="M322.151,490.276l.031,0a.175.175,0,0,0,.142-.2c-1.123-6.524-.352-19.011-.343-19.137a.18.18,0,0,0-.051-.134.188.188,0,0,0-.133-.051c-.114.005-11.3.526-15.993-.662a.175.175,0,0,0-.085.34c4.394,1.111,14.378.745,15.9.68-.093,1.621-.692,12.91.36,19.026A.176.176,0,0,0,322.151,490.276Z" transform="translate(-305.586 -470.078)"/></g><g transform="translate(17.35 3.821)"><path class="v" d="M328.745,489.715h.015a.178.178,0,0,0,.161-.191,104.493,104.493,0,0,1-.247-18.918,148.463,148.463,0,0,0,24.093-2.6.177.177,0,0,0,.141-.2.172.172,0,0,0-.2-.141,147.542,147.542,0,0,1-24.189,2.6.173.173,0,0,0-.173.158,104.343,104.343,0,0,0,.229,19.138A.176.176,0,0,0,328.745,489.715Z" transform="translate(-328.001 -467.655)"/></g><g class="w" transform="translate(12.594 25.656)"><path class="x" d="M323.993,569.256c.981-.182,1.836-.365,1.836-.365l.085-72.584h.589a.424.424,0,0,0-.589-.183,7.288,7.288,0,0,0-2.874,2.692,5.565,5.565,0,0,0-1.093,3.154C321.386,524.343,322.69,541.374,323.993,569.256Z" transform="translate(-321.813 -496.072)"/></g></g><path class="y" d="M315.089,381.515c-13.853,3.185-24.3,37.2-42.833,34.944v6.053c8.673,0,20.516-2.769,30.226-16.077C316.523,387.193,315.089,381.515,315.089,381.515Z" transform="translate(-266.207 -346.063)"/><path class="s" d="M315.089,381.515c-13.853,3.185-24.3,37.2-42.833,34.944v6.053c8.673,0,20.516-2.769,30.226-16.077C316.523,387.193,315.089,381.515,315.089,381.515Z" transform="translate(-266.207 -346.063)"/><path class="s" d="M343.7,384.018c8.507,9.748,7.8,59.182,8.766,89.88-15.333,3.218-31.771,3.083-48.984.6,0,0-2.678-49.463,5.945-77.48C315.278,377.993,334.719,373.731,343.7,384.018Z" transform="translate(-273.348 -345.381)"/></g></g><g transform="translate(122.45 251.574)"><path class="d" d="M243.216,324.99c-1.655-1.045-3.485-2.444-3.483-4.4s2.049-3.46,4.013-3.47a8.224,8.224,0,0,1,5.261,2.357c6.245,5.482,5.467,11.736,5.467,11.736S245.059,326.155,243.216,324.99Z" transform="translate(-162.09 -301.461)"/><path class="d" d="M249.377,303.546a8.037,8.037,0,0,1-3.8-2.709,2.587,2.587,0,0,1-.395-2.2c.428-1.216,1.189-2.307,4.251-1.751,9.695,1.759,11.807,8.4,11.807,8.4S251.95,304.652,249.377,303.546Z" transform="translate(-163.326 -296.741)"/><path class="d" d="M287.641,320.482A15.324,15.324,0,0,0,298,315.171a9.488,9.488,0,0,0,2.081-3.853,4.219,4.219,0,0,0-1.136-4.055,4.289,4.289,0,0,0-5.021.005,10.083,10.083,0,0,0-3.243,4.222C289.638,313.648,287.641,320.482,287.641,320.482Z" transform="translate(-173.186 -298.991)"/><path class="h" d="M183.7,461.6l-28.248-24.9c-5.018-4.424-10.142-8.977-13.32-14.864-6.832-12.654-2.894-29.095,6.334-40.125s22.742-17.544,36.319-22.284,27.709-8.066,40.652-14.333c8.116-3.932,16.277-9.788,18.5-18.528a18.487,18.487,0,0,0-16.814-23.018" transform="translate(-138.685 -298.318)"/><path class="h" d="M291.027,312.963c-2.573,7.9-12.594,12.707-17.168,19.55" transform="translate(-169.994 -300.499)"/><path class="h" d="M249.375,324.788c1.973,2.084,4.337,3.807,6.058,6.1,3.638,4.852,3.943,12.734-1.44,17.624" transform="translate(-164.323 -303.237)"/></g><g transform="translate(465.852 167.31)"><path class="d" d="M586.992,194.358a4.165,4.165,0,0,1,.6-4.155,3.047,3.047,0,0,1,3.246-.728c8.235,3.632,7.344,16.519,7.344,16.519S590.373,204.863,586.992,194.358Z" transform="translate(-585.859 -187.585)"/><path class="d" d="M586.535,226.4c-5.328,9.658,13.607,8.921,20.435,3.234C606.97,229.634,591.121,218.088,586.535,226.4Z" transform="translate(-585.602 -195.488)"/><path class="d" d="M617.61,194.582c-1.285-1.768-1.742-4.4-.343-6.078a4.667,4.667,0,0,1,4.453-1.327,10.429,10.429,0,0,1,5,3.058c6.232,7.776,3.3,15.386,3.3,15.386S619.716,197.477,617.61,194.582Z" transform="translate(-592.738 -187.077)"/><path class="d" d="M715.759,226.388a4.272,4.272,0,0,1,.813-4.394,3.716,3.716,0,0,1,2.77-.831,8.4,8.4,0,0,1,2.832.848,9.061,9.061,0,0,1,4.361,4.347c2.342,4.839.752,10.827.752,10.827S716.9,230.136,715.759,226.388Z" transform="translate(-615.69 -194.969)"/><path class="d" d="M680.189,250.14a12.132,12.132,0,0,0-12.555-2.027,6.437,6.437,0,0,0-2.685,2.022c-1.5,2.075-.971,5.108.581,7.141s3.9,3.269,6.229,4.327c4.215,1.918,10.754,2.3,15.239,3.449C687,265.053,686.978,256.121,680.189,250.14Z" transform="translate(-603.774 -200.998)"/><path class="h" d="M594.756,198.588c2.785,9.146,10.67,16.048,19.448,19.781s18.446,4.719,27.96,5.336,19.142.925,28.343,3.431c8.967,2.441,17.9,7.526,21.745,16.009,4.684,10.326.536,22.672-6.039,31.9s-15.431,16.667-21.792,26.045c-2.921,4.307-5.361,9.348-4.77,14.524.787,6.9,6.582,11.98,11.967,16.343" transform="translate(-587.722 -189.743)"/><path class="h" d="M623.3,194.222a54.8,54.8,0,0,1,12.571,27.289" transform="translate(-594.333 -188.732)"/><path class="h" d="M595.706,228.57a43.5,43.5,0,0,0,10.988,1.935,16.761,16.761,0,0,0,10.732-4.663" transform="translate(-587.942 -196.055)"/><path class="h" d="M723.863,228.706a18.7,18.7,0,0,1,5.606,12.588c.176,4.706-2.427,10.411-5.552,13.926" transform="translate(-617.626 -196.719)"/><path class="h" d="M677.871,256.5a188.121,188.121,0,0,0,20.119,16.558c3.424,2.415,10.221,5.511,13.238,4.714" transform="translate(-606.973 -203.157)"/></g><line class="z" x2="223" transform="translate(232.385 496.668)"/><line class="z" x2="113" transform="translate(416.385 508.668)"/><g class="aa" transform="translate(503.521 66.143)"><circle class="ad" cx="8.525" cy="8.525" r="8.525"/><circle class="ae" cx="8.525" cy="8.525" r="6.525"/></g><g class="aa" transform="translate(195.521 134.143)"><circle class="ad" cx="8.525" cy="8.525" r="8.525"/><circle class="ae" cx="8.525" cy="8.525" r="6.525"/></g><g class="ab" transform="translate(520.57 54.208)"><circle class="ad" cx="5.967" cy="5.967" r="5.967"/><circle class="ae" cx="5.967" cy="5.967" r="4.467"/></g><g class="ab" transform="translate(549.57 497.208)"><circle class="ad" cx="5.967" cy="5.967" r="5.967"/><circle class="ae" cx="5.967" cy="5.967" r="4.467"/></g><circle class="ac" cx="17.049" cy="17.049" r="17.049" transform="translate(120.227 48.7)"/><circle class="ac" cx="17.049" cy="17.049" r="17.049" transform="translate(173.227 535.7)"/></g></svg>