<svg xmlns="http://www.w3.org/2000/svg" width="32" height="32" viewBox="0 0 32 32"><defs><style>.a{fill:#fff;stroke:#808486;stroke-width:0.4px;opacity:0;}.b{fill:#009dff;stroke:#009dff;stroke-width:0.5px;}.c{stroke:none;}.d{fill:none;}</style></defs><g class="a"><rect class="c" width="32" height="32"/><rect class="d" x="0.2" y="0.2" width="31.6" height="31.6"/></g><g transform="translate(3.022 3.022)"><path class="b" d="M25.978,13.3A12.678,12.678,0,1,0,38.655,25.978,12.678,12.678,0,0,0,25.978,13.3Zm0,24.155A11.477,11.477,0,1,1,37.455,25.978,11.493,11.493,0,0,1,25.978,37.455Z" transform="translate(-13.3 -13.3)"/><path class="b" d="M62.906,40.329V35.253a.653.653,0,1,0-1.306,0V40.6a.71.71,0,0,0,.191.463l4.975,2.29a.657.657,0,0,0,.925,0,.674.674,0,0,0,0-.925Z" transform="translate(-49.617 -28.309)"/></g></svg>