<svg xmlns="http://www.w3.org/2000/svg" width="32" height="32" viewBox="0 0 32 32">
  <g id="Group_3009" data-name="Group 3009" transform="translate(-1146.454)">
    <rect id="Rectangle_65" data-name="Rectangle 65" width="32" height="32" rx="16" transform="translate(1146.454)" fill="#fff"/>
    <g id="Group_3470" data-name="Group 3470" transform="translate(844.166 -103.952)">
      <g id="Rectangle_135" data-name="Rectangle 135" transform="translate(308.288 111.952)" fill="none" stroke="#182024" stroke-width="1.2">
        <rect width="20" height="14" rx="3" stroke="none"/>
        <rect x="0.6" y="0.6" width="18.8" height="12.8" rx="2.4" fill="none"/>
      </g>
      <line id="Line_203" data-name="Line 203" x2="15.359" transform="translate(310.711 128.219)" fill="none" stroke="#182024" stroke-linecap="round" stroke-width="1.3"/>
      <path id="Arrow" d="M4.859,16.318a.306.306,0,0,1-.1-.016.321.321,0,0,1-.221-.321c0-.048.33-4.7,5-5.068V9.239a.321.321,0,0,1,.55-.224l3.164,3.232a.321.321,0,0,1,0,.449l-3.164,3.232a.321.321,0,0,1-.55-.224V14.061a5.477,5.477,0,0,0-4.406,2.108A.321.321,0,0,1,4.859,16.318Zm5.319-6.293v1.188a.321.321,0,0,1-.309.321A4.547,4.547,0,0,0,5.38,14.949,6.631,6.631,0,0,1,9.837,13.41h.014a.321.321,0,0,1,.321.321v1.188l2.4-2.446Z" transform="translate(309.51 106.309)" fill="#182024" stroke="#182024" stroke-width="0.4"/>
    </g>
  </g>
</svg>
