<svg id="Component_65_16" data-name="Component 65 – 16" xmlns="http://www.w3.org/2000/svg" width="32" height="32" viewBox="0 0 32 32">
  <g id="Rectangle_125" data-name="Rectangle 125" fill="#fff" stroke="#808486" stroke-width="0.4">
    <rect width="32" height="32" rx="16" stroke="none"/>
    <rect x="0.2" y="0.2" width="31.6" height="31.6" rx="15.8" fill="none"/>
  </g>
  <path id="Path_563" data-name="Path 563" d="M17.413,18.261a.85.85,0,0,0,.848-.848V14.454a.85.85,0,0,0-.848-.848,9.671,9.671,0,0,1-3.027-.483.712.712,0,0,0-.263-.042.868.868,0,0,0-.6.246l-1.865,1.865A12.843,12.843,0,0,1,6.069,9.6L7.934,7.739a.851.851,0,0,0,.212-.865,9.632,9.632,0,0,1-.483-3.027A.85.85,0,0,0,6.815,3H3.848A.85.85,0,0,0,3,3.848,14.412,14.412,0,0,0,17.413,18.261Zm-3.052-3.374a10.812,10.812,0,0,0,2.2.382v1.263a13.079,13.079,0,0,1-3.222-.636ZM4.721,4.7H5.993a11.022,11.022,0,0,0,.39,2.2L5.365,7.909A12.569,12.569,0,0,1,4.721,4.7Z" transform="translate(5.37 5.37)" fill="#808486"/>
</svg>
